{"asset":{"generator":"Khronos glTF Blender I/O v4.2.57","version":"2.0"},"scene":0,"scenes":[{"name":"Scene","nodes":[40]}],"nodes":[{"name":"FrontFoot.R_end","translation":[-3.184978503156799e-09,1,-2.088540895783808e-09]},{"children":[0],"name":"FrontFoot.R","rotation":[0.7071067690849304,-6.434409556277387e-07,-6.434409556277387e-07,0.7071067690849304],"translation":[-0.9117709994316101,0.10000348091125488,1.927022933959961]},{"name":"FrontLowLeg.R_end","rotation":[-5.774199962615967e-08,-2.1428534502376806e-09,-1.4551731266363235e-14,1],"translation":[-4.041704926294187e-08,1.5877689123153687,-1.2506993130045885e-07]},{"children":[2],"name":"FrontLowLeg.R","rotation":[0.18233048915863037,-0.018664436414837837,0.0034618335776031017,0.9830540418624878],"scale":[0.9999999403953552,1.0000001192092896,1],"translation":[6.146728992462158e-08,0.9248150587081909,-1.1175870895385742e-08]},{"children":[3],"name":"FrontUpLeg.R","rotation":[0.7024968266487122,-0.6989304423332214,-0.08061231672763824,0.10721990466117859],"scale":[1,0.9999996423721313,1],"translation":[-8.358752978665507e-08,0.602558434009552,2.671805532372673e-08]},{"children":[4],"name":"FrontLeg.R","rotation":[-0.5000001192092896,0.5,0.5000000596046448,0.4999999403953552],"scale":[1,0.9999999403953552,1],"translation":[-0.3246806561946869,1.873094081878662,-0.2698836028575897]},{"name":"BackLowLeg.R_end","rotation":[-1.2665987014770508e-07,-6.35114361102751e-08,5.662712254661528e-08,1],"translation":[-1.5591973934192538e-08,1.584388256072998,-1.0024510288531019e-07]},{"children":[6],"name":"BackLowLeg.R","rotation":[-0.3539120852947235,0.018098758533596992,0.006849860772490501,0.935078501701355],"scale":[1,1.0000001192092896,1.0000001192092896],"translation":[4.842877388000488e-08,1.175507664680481,2.3283064365386963e-07]},{"children":[7],"name":"BackUpLeg.R","rotation":[-0.6821678280830383,0.6744544506072998,-0.18613645434379578,0.21239472925662994],"scale":[1,0.9999998807907104,1],"translation":[-7.990288963810599e-08,0.46958306431770325,1.656806603023142e-07]},{"children":[8],"name":"BackLeg.R","rotation":[-0.5000002980232239,0.4999998211860657,0.5000002384185791,0.4999997615814209],"scale":[1,0.9999999403953552,1],"translation":[-0.3246806561946869,-2.178527355194092,-0.3527335226535797]},{"name":"FrontLowLeg.L_end","rotation":[1.3038518886787642e-07,1.3863379777490081e-08,-1.862617060588434e-09,1],"scale":[1,0.9999999403953552,1],"translation":[1.330798049536952e-08,1.5877678394317627,3.095652800766402e-08]},{"children":[10],"name":"FrontLowLeg.L","rotation":[0.18211393058300018,0.05141075327992439,-0.009535297751426697,0.9818862080574036],"translation":[4.842877388000488e-08,0.9248147010803223,-3.203749656677246e-07]},{"children":[11],"name":"FrontUpLeg.L","rotation":[-0.05715978518128395,-0.13044975697994232,0.7047927975654602,0.6949695944786072],"scale":[1.0000001192092896,1.0000001192092896,0.9999999403953552],"translation":[-4.483679560962628e-08,0.6025585532188416,2.8997789058848866e-08]},{"children":[12],"name":"FrontLeg.L","rotation":[0.5000001192092896,0.5,-0.5000000596046448,0.4999999403953552],"scale":[1,0.9999999403953552,1],"translation":[0.2630482017993927,1.873094081878662,-0.26988354325294495]},{"name":"BackLowLeg.L_end","rotation":[-2.2351741790771484e-08,-1.0439480391255529e-09,-7.771117327111735e-15,1],"translation":[7.918488975633409e-09,1.5843883752822876,3.719216579156637e-08]},{"children":[14],"name":"BackLowLeg.L","rotation":[-0.3539629280567169,-0.008887449279427528,-0.0033638605382293463,0.9352112412452698],"scale":[0.9999999403953552,1,0.9999999403953552],"translation":[-7.078051567077637e-08,1.1755083799362183,-6.239861249923706e-08]},{"children":[15],"name":"BackUpLeg.L","rotation":[0.19284653663635254,0.20574142038822174,0.6803014278411865,0.676513671875],"scale":[1,0.9999999403953552,0.9999998807907104],"translation":[-1.1034151725652919e-07,0.46958303451538086,-2.1784842374472646e-08]},{"children":[16],"name":"BackLeg.L","rotation":[0.5000002980232239,0.4999997317790985,-0.5000002384185791,0.4999997615814209],"translation":[0.2630482017993927,-2.178527355194092,-0.35273346304893494]},{"name":"Tail4_end","rotation":[-2.7939672797572257e-09,1.778477698444192e-09,1.7622089343305447e-09,1],"translation":[6.857447942820727e-10,1.0569915771484375,5.990401774624843e-08]},{"children":[18],"name":"Tail4","rotation":[-0.048028890043497086,2.910476304407439e-08,4.254839680584155e-08,0.9988459944725037],"translation":[1.024076823341602e-09,0.6993343830108643,4.110688394121098e-07]},{"children":[19],"name":"Tail3","rotation":[-1.035035701590914e-08,0.9860858917236328,-0.16623683273792267,3.095485681114951e-07],"translation":[6.23785467723792e-10,0.7273354530334473,-2.421348881398444e-07]},{"children":[20],"name":"Tail2","rotation":[-0.6231533288955688,9.370125297891718e-08,-7.327786732957975e-08,0.782099723815918],"scale":[1,0.9999999403953552,1],"translation":[-1.1004072097975381e-09,0.8363475203514099,-3.5390286257097614e-08]},{"children":[21],"name":"Tail1","rotation":[-0.5939562916755676,1.422516362481474e-07,-1.90842044389683e-07,0.8044973611831665],"scale":[1,1,0.9999998807907104],"translation":[0.011168662458658218,1.3754069805145264,0.39693379402160645]},{"children":[22],"name":"Back","rotation":[-0.803467333316803,1.6529213553440059e-07,1.0693025842556381e-07,0.5953488349914551],"translation":[-0.03228263556957245,-2.662663221359253,-0.8511270880699158]},{"name":"Head_end","rotation":[3.610330878700552e-08,1.862645504502325e-08,-3.6670828595930516e-09,1],"scale":[0.9999999403953552,0.9999998211860657,0.9999999403953552],"translation":[7.078051567077637e-08,1.775381326675415,-8.437782526016235e-07]},{"children":[24],"name":"Head","rotation":[-0.6245376467704773,-0.19781439006328583,0.1666077822446823,0.7369288206100464],"scale":[1,0.9999997615814209,0.9999998807907104],"translation":[-3.2163370633497834e-08,1.357330560684204,-1.0833521457698225e-07]},{"children":[25],"name":"Neck","rotation":[0.15129424631595612,-0.018451806157827377,-0.01304666418582201,0.9882304072380066],"scale":[1,0.9999998211860657,1],"translation":[3.3527612686157227e-08,1.318922996520996,3.426684997975826e-07]},{"children":[26],"name":"Shoulders","rotation":[-0.01935679279267788,-0.9658055305480957,0.25828123092651367,0.011657394468784332],"scale":[0.9999999403953552,1.0000003576278687,1],"translation":[-0.07365459948778152,1.6744574308395386,-0.6714882850646973]},{"name":"Torso_end","rotation":[7.871497587075282e-08,-7.216640369733796e-07,-1.5133990727278501e-09,1],"scale":[1,1.0000001192092896,1],"translation":[-5.587935447692871e-09,1.5270235538482666,-1.3940689314040355e-07]},{"children":[28],"name":"Torso","rotation":[0.08639006316661835,0.0012032472295686603,-0.013495171442627907,0.9961692690849304],"scale":[0.9999999403953552,1,1],"translation":[-2.170352786379226e-09,1.9258193969726562,-1.8565279447102512e-07]},{"children":[29],"name":"Hips","rotation":[2.3969687390490435e-07,0.9987248182296753,0.05048424005508423,4.837693268200383e-06],"scale":[1,0.9999999403953552,1],"translation":[-0.03228260949254036,-1.7345860004425049,-1.1335411071777344]},{"children":[5,9,13,17,23,27,30],"name":"Body","rotation":[0.7071067690849304,3.0908619663705394e-08,3.0908619663705394e-08,0.7071067690849304],"translation":[0.005377650260925293,2.3020823001861572,-0.01735416054725647]},{"name":"BackFoot.R_end","translation":[-3.1849833881381073e-09,0.674536943435669,-2.531521658966085e-10]},{"children":[32],"name":"BackFoot.R","rotation":[0.7071067690849304,-6.434409556277387e-07,-6.434409556277387e-07,0.7071067690849304],"translation":[-0.8358624577522278,0.10000348091125488,-2.604720115661621]},{"name":"FrontFoot.L_end","translation":[2.065353221780697e-08,1,-3.5546463550417684e-09]},{"children":[34],"name":"FrontFoot.L","rotation":[0.7071067690849304,-9.806157095226808e-07,-9.806157095226808e-07,0.7071067690849304],"translation":[0.860893964767456,0.10000348091125488,1.927022933959961]},{"name":"BackFoot.L_end","translation":[2.065352511237961e-08,0.674536943435669,-3.2092373203340685e-09]},{"children":[36],"name":"BackFoot.L","rotation":[0.7071067690849304,-9.806157095226808e-07,-9.806157095226808e-07,0.7071067690849304],"translation":[0.7849856615066528,0.10000348091125488,-2.604720115661621]},{"children":[1,31,33,35,37],"name":"root"},{"mesh":0,"name":"Cow","skin":0},{"children":[39,38],"name":"Armature"}],"animations":[{"channels":[{"sampler":0,"target":{"node":38,"path":"translation"}},{"sampler":1,"target":{"node":38,"path":"rotation"}},{"sampler":2,"target":{"node":38,"path":"scale"}},{"sampler":3,"target":{"node":1,"path":"translation"}},{"sampler":4,"target":{"node":1,"path":"rotation"}},{"sampler":5,"target":{"node":1,"path":"scale"}},{"sampler":6,"target":{"node":0,"path":"translation"}},{"sampler":7,"target":{"node":0,"path":"rotation"}},{"sampler":8,"target":{"node":0,"path":"scale"}},{"sampler":9,"target":{"node":31,"path":"translation"}},{"sampler":10,"target":{"node":31,"path":"rotation"}},{"sampler":11,"target":{"node":31,"path":"scale"}},{"sampler":12,"target":{"node":5,"path":"translation"}},{"sampler":13,"target":{"node":5,"path":"rotation"}},{"sampler":14,"target":{"node":5,"path":"scale"}},{"sampler":15,"target":{"node":4,"path":"translation"}},{"sampler":16,"target":{"node":4,"path":"rotation"}},{"sampler":17,"target":{"node":4,"path":"scale"}},{"sampler":18,"target":{"node":3,"path":"translation"}},{"sampler":19,"target":{"node":3,"path":"rotation"}},{"sampler":20,"target":{"node":3,"path":"scale"}},{"sampler":21,"target":{"node":2,"path":"translation"}},{"sampler":22,"target":{"node":2,"path":"rotation"}},{"sampler":23,"target":{"node":2,"path":"scale"}},{"sampler":24,"target":{"node":9,"path":"translation"}},{"sampler":25,"target":{"node":9,"path":"rotation"}},{"sampler":26,"target":{"node":9,"path":"scale"}},{"sampler":27,"target":{"node":8,"path":"translation"}},{"sampler":28,"target":{"node":8,"path":"rotation"}},{"sampler":29,"target":{"node":8,"path":"scale"}},{"sampler":30,"target":{"node":7,"path":"translation"}},{"sampler":31,"target":{"node":7,"path":"rotation"}},{"sampler":32,"target":{"node":7,"path":"scale"}},{"sampler":33,"target":{"node":6,"path":"translation"}},{"sampler":34,"target":{"node":6,"path":"rotation"}},{"sampler":35,"target":{"node":6,"path":"scale"}},{"sampler":36,"target":{"node":13,"path":"translation"}},{"sampler":37,"target":{"node":13,"path":"rotation"}},{"sampler":38,"target":{"node":13,"path":"scale"}},{"sampler":39,"target":{"node":12,"path":"translation"}},{"sampler":40,"target":{"node":12,"path":"rotation"}},{"sampler":41,"target":{"node":12,"path":"scale"}},{"sampler":42,"target":{"node":11,"path":"translation"}},{"sampler":43,"target":{"node":11,"path":"rotation"}},{"sampler":44,"target":{"node":11,"path":"scale"}},{"sampler":45,"target":{"node":10,"path":"translation"}},{"sampler":46,"target":{"node":10,"path":"rotation"}},{"sampler":47,"target":{"node":10,"path":"scale"}},{"sampler":48,"target":{"node":17,"path":"translation"}},{"sampler":49,"target":{"node":17,"path":"rotation"}},{"sampler":50,"target":{"node":17,"path":"scale"}},{"sampler":51,"target":{"node":16,"path":"translation"}},{"sampler":52,"target":{"node":16,"path":"rotation"}},{"sampler":53,"target":{"node":16,"path":"scale"}},{"sampler":54,"target":{"node":15,"path":"translation"}},{"sampler":55,"target":{"node":15,"path":"rotation"}},{"sampler":56,"target":{"node":15,"path":"scale"}},{"sampler":57,"target":{"node":14,"path":"translation"}},{"sampler":58,"target":{"node":14,"path":"rotation"}},{"sampler":59,"target":{"node":14,"path":"scale"}},{"sampler":60,"target":{"node":23,"path":"translation"}},{"sampler":61,"target":{"node":23,"path":"rotation"}},{"sampler":62,"target":{"node":23,"path":"scale"}},{"sampler":63,"target":{"node":22,"path":"translation"}},{"sampler":64,"target":{"node":22,"path":"rotation"}},{"sampler":65,"target":{"node":22,"path":"scale"}},{"sampler":66,"target":{"node":21,"path":"translation"}},{"sampler":67,"target":{"node":21,"path":"rotation"}},{"sampler":68,"target":{"node":21,"path":"scale"}},{"sampler":69,"target":{"node":20,"path":"translation"}},{"sampler":70,"target":{"node":20,"path":"rotation"}},{"sampler":71,"target":{"node":20,"path":"scale"}},{"sampler":72,"target":{"node":19,"path":"translation"}},{"sampler":73,"target":{"node":19,"path":"rotation"}},{"sampler":74,"target":{"node":19,"path":"scale"}},{"sampler":75,"target":{"node":18,"path":"translation"}},{"sampler":76,"target":{"node":18,"path":"rotation"}},{"sampler":77,"target":{"node":18,"path":"scale"}},{"sampler":78,"target":{"node":27,"path":"translation"}},{"sampler":79,"target":{"node":27,"path":"rotation"}},{"sampler":80,"target":{"node":27,"path":"scale"}},{"sampler":81,"target":{"node":26,"path":"translation"}},{"sampler":82,"target":{"node":26,"path":"rotation"}},{"sampler":83,"target":{"node":26,"path":"scale"}},{"sampler":84,"target":{"node":25,"path":"translation"}},{"sampler":85,"target":{"node":25,"path":"rotation"}},{"sampler":86,"target":{"node":25,"path":"scale"}},{"sampler":87,"target":{"node":24,"path":"translation"}},{"sampler":88,"target":{"node":24,"path":"rotation"}},{"sampler":89,"target":{"node":24,"path":"scale"}},{"sampler":90,"target":{"node":30,"path":"translation"}},{"sampler":91,"target":{"node":30,"path":"rotation"}},{"sampler":92,"target":{"node":30,"path":"scale"}},{"sampler":93,"target":{"node":29,"path":"translation"}},{"sampler":94,"target":{"node":29,"path":"rotation"}},{"sampler":95,"target":{"node":29,"path":"scale"}},{"sampler":96,"target":{"node":28,"path":"translation"}},{"sampler":97,"target":{"node":28,"path":"rotation"}},{"sampler":98,"target":{"node":28,"path":"scale"}},{"sampler":99,"target":{"node":33,"path":"translation"}},{"sampler":100,"target":{"node":33,"path":"rotation"}},{"sampler":101,"target":{"node":33,"path":"scale"}},{"sampler":102,"target":{"node":32,"path":"translation"}},{"sampler":103,"target":{"node":32,"path":"rotation"}},{"sampler":104,"target":{"node":32,"path":"scale"}},{"sampler":105,"target":{"node":35,"path":"translation"}},{"sampler":106,"target":{"node":35,"path":"rotation"}},{"sampler":107,"target":{"node":35,"path":"scale"}},{"sampler":108,"target":{"node":34,"path":"translation"}},{"sampler":109,"target":{"node":34,"path":"rotation"}},{"sampler":110,"target":{"node":34,"path":"scale"}},{"sampler":111,"target":{"node":37,"path":"translation"}},{"sampler":112,"target":{"node":37,"path":"rotation"}},{"sampler":113,"target":{"node":37,"path":"scale"}},{"sampler":114,"target":{"node":36,"path":"translation"}},{"sampler":115,"target":{"node":36,"path":"rotation"}},{"sampler":116,"target":{"node":36,"path":"scale"}},{"sampler":117,"target":{"node":40,"path":"translation"}},{"sampler":118,"target":{"node":40,"path":"rotation"}},{"sampler":119,"target":{"node":40,"path":"scale"}}],"name":"Armature|Armature|Death","samplers":[{"input":22,"interpolation":"STEP","output":23},{"input":22,"interpolation":"STEP","output":24},{"input":22,"interpolation":"STEP","output":25},{"input":26,"interpolation":"LINEAR","output":27},{"input":26,"interpolation":"LINEAR","output":28},{"input":22,"interpolation":"STEP","output":29},{"input":22,"interpolation":"STEP","output":30},{"input":22,"interpolation":"STEP","output":31},{"input":22,"interpolation":"STEP","output":32},{"input":26,"interpolation":"LINEAR","output":33},{"input":26,"interpolation":"LINEAR","output":34},{"input":22,"interpolation":"LINEAR","output":35},{"input":22,"interpolation":"LINEAR","output":36},{"input":26,"interpolation":"LINEAR","output":37},{"input":22,"interpolation":"LINEAR","output":38},{"input":22,"interpolation":"LINEAR","output":39},{"input":26,"interpolation":"LINEAR","output":40},{"input":22,"interpolation":"LINEAR","output":41},{"input":22,"interpolation":"LINEAR","output":42},{"input":26,"interpolation":"LINEAR","output":43},{"input":22,"interpolation":"LINEAR","output":44},{"input":22,"interpolation":"STEP","output":45},{"input":22,"interpolation":"STEP","output":46},{"input":22,"interpolation":"STEP","output":47},{"input":22,"interpolation":"LINEAR","output":48},{"input":26,"interpolation":"LINEAR","output":49},{"input":22,"interpolation":"LINEAR","output":50},{"input":22,"interpolation":"LINEAR","output":51},{"input":26,"interpolation":"LINEAR","output":52},{"input":22,"interpolation":"LINEAR","output":53},{"input":22,"interpolation":"LINEAR","output":54},{"input":26,"interpolation":"LINEAR","output":55},{"input":22,"interpolation":"LINEAR","output":56},{"input":22,"interpolation":"STEP","output":57},{"input":22,"interpolation":"STEP","output":58},{"input":22,"interpolation":"STEP","output":59},{"input":22,"interpolation":"LINEAR","output":60},{"input":26,"interpolation":"LINEAR","output":61},{"input":22,"interpolation":"LINEAR","output":62},{"input":22,"interpolation":"LINEAR","output":63},{"input":26,"interpolation":"LINEAR","output":64},{"input":22,"interpolation":"LINEAR","output":65},{"input":22,"interpolation":"LINEAR","output":66},{"input":26,"interpolation":"LINEAR","output":67},{"input":22,"interpolation":"LINEAR","output":68},{"input":22,"interpolation":"STEP","output":69},{"input":22,"interpolation":"STEP","output":70},{"input":22,"interpolation":"STEP","output":71},{"input":22,"interpolation":"LINEAR","output":72},{"input":26,"interpolation":"LINEAR","output":73},{"input":22,"interpolation":"LINEAR","output":74},{"input":22,"interpolation":"LINEAR","output":75},{"input":26,"interpolation":"LINEAR","output":76},{"input":22,"interpolation":"LINEAR","output":77},{"input":22,"interpolation":"LINEAR","output":78},{"input":26,"interpolation":"LINEAR","output":79},{"input":22,"interpolation":"LINEAR","output":80},{"input":22,"interpolation":"STEP","output":81},{"input":22,"interpolation":"STEP","output":82},{"input":22,"interpolation":"STEP","output":83},{"input":26,"interpolation":"LINEAR","output":84},{"input":22,"interpolation":"LINEAR","output":85},{"input":22,"interpolation":"LINEAR","output":86},{"input":22,"interpolation":"LINEAR","output":87},{"input":22,"interpolation":"LINEAR","output":88},{"input":22,"interpolation":"STEP","output":89},{"input":22,"interpolation":"LINEAR","output":90},{"input":26,"interpolation":"LINEAR","output":91},{"input":22,"interpolation":"STEP","output":92},{"input":22,"interpolation":"LINEAR","output":93},{"input":26,"interpolation":"LINEAR","output":94},{"input":22,"interpolation":"STEP","output":95},{"input":22,"interpolation":"LINEAR","output":96},{"input":26,"interpolation":"LINEAR","output":97},{"input":22,"interpolation":"LINEAR","output":98},{"input":22,"interpolation":"STEP","output":99},{"input":22,"interpolation":"STEP","output":100},{"input":22,"interpolation":"STEP","output":101},{"input":26,"interpolation":"LINEAR","output":102},{"input":26,"interpolation":"LINEAR","output":103},{"input":22,"interpolation":"LINEAR","output":104},{"input":22,"interpolation":"LINEAR","output":105},{"input":26,"interpolation":"LINEAR","output":106},{"input":22,"interpolation":"LINEAR","output":107},{"input":22,"interpolation":"LINEAR","output":108},{"input":26,"interpolation":"LINEAR","output":109},{"input":22,"interpolation":"LINEAR","output":110},{"input":22,"interpolation":"STEP","output":111},{"input":22,"interpolation":"STEP","output":112},{"input":22,"interpolation":"STEP","output":113},{"input":26,"interpolation":"LINEAR","output":114},{"input":22,"interpolation":"LINEAR","output":115},{"input":22,"interpolation":"LINEAR","output":116},{"input":22,"interpolation":"LINEAR","output":117},{"input":22,"interpolation":"LINEAR","output":118},{"input":22,"interpolation":"STEP","output":119},{"input":22,"interpolation":"STEP","output":120},{"input":22,"interpolation":"STEP","output":121},{"input":22,"interpolation":"STEP","output":122},{"input":26,"interpolation":"LINEAR","output":123},{"input":26,"interpolation":"LINEAR","output":124},{"input":22,"interpolation":"STEP","output":125},{"input":22,"interpolation":"STEP","output":126},{"input":22,"interpolation":"STEP","output":127},{"input":22,"interpolation":"STEP","output":128},{"input":26,"interpolation":"LINEAR","output":129},{"input":26,"interpolation":"LINEAR","output":130},{"input":22,"interpolation":"STEP","output":131},{"input":22,"interpolation":"STEP","output":132},{"input":22,"interpolation":"STEP","output":133},{"input":22,"interpolation":"STEP","output":134},{"input":26,"interpolation":"LINEAR","output":135},{"input":26,"interpolation":"LINEAR","output":136},{"input":22,"interpolation":"STEP","output":137},{"input":22,"interpolation":"STEP","output":138},{"input":22,"interpolation":"STEP","output":139},{"input":22,"interpolation":"STEP","output":140},{"input":22,"interpolation":"STEP","output":141},{"input":22,"interpolation":"STEP","output":142},{"input":22,"interpolation":"STEP","output":143}]},{"channels":[{"sampler":0,"target":{"node":38,"path":"translation"}},{"sampler":1,"target":{"node":38,"path":"rotation"}},{"sampler":2,"target":{"node":38,"path":"scale"}},{"sampler":3,"target":{"node":1,"path":"translation"}},{"sampler":4,"target":{"node":1,"path":"rotation"}},{"sampler":5,"target":{"node":1,"path":"scale"}},{"sampler":6,"target":{"node":0,"path":"translation"}},{"sampler":7,"target":{"node":0,"path":"rotation"}},{"sampler":8,"target":{"node":0,"path":"scale"}},{"sampler":9,"target":{"node":31,"path":"translation"}},{"sampler":10,"target":{"node":31,"path":"rotation"}},{"sampler":11,"target":{"node":31,"path":"scale"}},{"sampler":12,"target":{"node":5,"path":"translation"}},{"sampler":13,"target":{"node":5,"path":"rotation"}},{"sampler":14,"target":{"node":5,"path":"scale"}},{"sampler":15,"target":{"node":4,"path":"translation"}},{"sampler":16,"target":{"node":4,"path":"rotation"}},{"sampler":17,"target":{"node":4,"path":"scale"}},{"sampler":18,"target":{"node":3,"path":"translation"}},{"sampler":19,"target":{"node":3,"path":"rotation"}},{"sampler":20,"target":{"node":3,"path":"scale"}},{"sampler":21,"target":{"node":2,"path":"translation"}},{"sampler":22,"target":{"node":2,"path":"rotation"}},{"sampler":23,"target":{"node":2,"path":"scale"}},{"sampler":24,"target":{"node":9,"path":"translation"}},{"sampler":25,"target":{"node":9,"path":"rotation"}},{"sampler":26,"target":{"node":9,"path":"scale"}},{"sampler":27,"target":{"node":8,"path":"translation"}},{"sampler":28,"target":{"node":8,"path":"rotation"}},{"sampler":29,"target":{"node":8,"path":"scale"}},{"sampler":30,"target":{"node":7,"path":"translation"}},{"sampler":31,"target":{"node":7,"path":"rotation"}},{"sampler":32,"target":{"node":7,"path":"scale"}},{"sampler":33,"target":{"node":6,"path":"translation"}},{"sampler":34,"target":{"node":6,"path":"rotation"}},{"sampler":35,"target":{"node":6,"path":"scale"}},{"sampler":36,"target":{"node":13,"path":"translation"}},{"sampler":37,"target":{"node":13,"path":"rotation"}},{"sampler":38,"target":{"node":13,"path":"scale"}},{"sampler":39,"target":{"node":12,"path":"translation"}},{"sampler":40,"target":{"node":12,"path":"rotation"}},{"sampler":41,"target":{"node":12,"path":"scale"}},{"sampler":42,"target":{"node":11,"path":"translation"}},{"sampler":43,"target":{"node":11,"path":"rotation"}},{"sampler":44,"target":{"node":11,"path":"scale"}},{"sampler":45,"target":{"node":10,"path":"translation"}},{"sampler":46,"target":{"node":10,"path":"rotation"}},{"sampler":47,"target":{"node":10,"path":"scale"}},{"sampler":48,"target":{"node":17,"path":"translation"}},{"sampler":49,"target":{"node":17,"path":"rotation"}},{"sampler":50,"target":{"node":17,"path":"scale"}},{"sampler":51,"target":{"node":16,"path":"translation"}},{"sampler":52,"target":{"node":16,"path":"rotation"}},{"sampler":53,"target":{"node":16,"path":"scale"}},{"sampler":54,"target":{"node":15,"path":"translation"}},{"sampler":55,"target":{"node":15,"path":"rotation"}},{"sampler":56,"target":{"node":15,"path":"scale"}},{"sampler":57,"target":{"node":14,"path":"translation"}},{"sampler":58,"target":{"node":14,"path":"rotation"}},{"sampler":59,"target":{"node":14,"path":"scale"}},{"sampler":60,"target":{"node":23,"path":"translation"}},{"sampler":61,"target":{"node":23,"path":"rotation"}},{"sampler":62,"target":{"node":23,"path":"scale"}},{"sampler":63,"target":{"node":22,"path":"translation"}},{"sampler":64,"target":{"node":22,"path":"rotation"}},{"sampler":65,"target":{"node":22,"path":"scale"}},{"sampler":66,"target":{"node":21,"path":"translation"}},{"sampler":67,"target":{"node":21,"path":"rotation"}},{"sampler":68,"target":{"node":21,"path":"scale"}},{"sampler":69,"target":{"node":20,"path":"translation"}},{"sampler":70,"target":{"node":20,"path":"rotation"}},{"sampler":71,"target":{"node":20,"path":"scale"}},{"sampler":72,"target":{"node":19,"path":"translation"}},{"sampler":73,"target":{"node":19,"path":"rotation"}},{"sampler":74,"target":{"node":19,"path":"scale"}},{"sampler":75,"target":{"node":18,"path":"translation"}},{"sampler":76,"target":{"node":18,"path":"rotation"}},{"sampler":77,"target":{"node":18,"path":"scale"}},{"sampler":78,"target":{"node":27,"path":"translation"}},{"sampler":79,"target":{"node":27,"path":"rotation"}},{"sampler":80,"target":{"node":27,"path":"scale"}},{"sampler":81,"target":{"node":26,"path":"translation"}},{"sampler":82,"target":{"node":26,"path":"rotation"}},{"sampler":83,"target":{"node":26,"path":"scale"}},{"sampler":84,"target":{"node":25,"path":"translation"}},{"sampler":85,"target":{"node":25,"path":"rotation"}},{"sampler":86,"target":{"node":25,"path":"scale"}},{"sampler":87,"target":{"node":24,"path":"translation"}},{"sampler":88,"target":{"node":24,"path":"rotation"}},{"sampler":89,"target":{"node":24,"path":"scale"}},{"sampler":90,"target":{"node":30,"path":"translation"}},{"sampler":91,"target":{"node":30,"path":"rotation"}},{"sampler":92,"target":{"node":30,"path":"scale"}},{"sampler":93,"target":{"node":29,"path":"translation"}},{"sampler":94,"target":{"node":29,"path":"rotation"}},{"sampler":95,"target":{"node":29,"path":"scale"}},{"sampler":96,"target":{"node":28,"path":"translation"}},{"sampler":97,"target":{"node":28,"path":"rotation"}},{"sampler":98,"target":{"node":28,"path":"scale"}},{"sampler":99,"target":{"node":33,"path":"translation"}},{"sampler":100,"target":{"node":33,"path":"rotation"}},{"sampler":101,"target":{"node":33,"path":"scale"}},{"sampler":102,"target":{"node":32,"path":"translation"}},{"sampler":103,"target":{"node":32,"path":"rotation"}},{"sampler":104,"target":{"node":32,"path":"scale"}},{"sampler":105,"target":{"node":35,"path":"translation"}},{"sampler":106,"target":{"node":35,"path":"rotation"}},{"sampler":107,"target":{"node":35,"path":"scale"}},{"sampler":108,"target":{"node":34,"path":"translation"}},{"sampler":109,"target":{"node":34,"path":"rotation"}},{"sampler":110,"target":{"node":34,"path":"scale"}},{"sampler":111,"target":{"node":37,"path":"translation"}},{"sampler":112,"target":{"node":37,"path":"rotation"}},{"sampler":113,"target":{"node":37,"path":"scale"}},{"sampler":114,"target":{"node":36,"path":"translation"}},{"sampler":115,"target":{"node":36,"path":"rotation"}},{"sampler":116,"target":{"node":36,"path":"scale"}},{"sampler":117,"target":{"node":40,"path":"translation"}},{"sampler":118,"target":{"node":40,"path":"rotation"}},{"sampler":119,"target":{"node":40,"path":"scale"}}],"name":"Idle","samplers":[{"input":144,"interpolation":"STEP","output":145},{"input":144,"interpolation":"STEP","output":146},{"input":144,"interpolation":"STEP","output":147},{"input":144,"interpolation":"STEP","output":148},{"input":144,"interpolation":"STEP","output":149},{"input":144,"interpolation":"STEP","output":150},{"input":144,"interpolation":"STEP","output":151},{"input":144,"interpolation":"STEP","output":152},{"input":144,"interpolation":"STEP","output":153},{"input":154,"interpolation":"LINEAR","output":155},{"input":144,"interpolation":"STEP","output":156},{"input":144,"interpolation":"STEP","output":157},{"input":144,"interpolation":"STEP","output":158},{"input":154,"interpolation":"LINEAR","output":159},{"input":144,"interpolation":"STEP","output":160},{"input":144,"interpolation":"STEP","output":161},{"input":144,"interpolation":"STEP","output":162},{"input":144,"interpolation":"STEP","output":163},{"input":144,"interpolation":"STEP","output":164},{"input":154,"interpolation":"LINEAR","output":165},{"input":144,"interpolation":"STEP","output":166},{"input":144,"interpolation":"STEP","output":167},{"input":144,"interpolation":"STEP","output":168},{"input":144,"interpolation":"STEP","output":169},{"input":144,"interpolation":"STEP","output":170},{"input":154,"interpolation":"LINEAR","output":171},{"input":144,"interpolation":"STEP","output":172},{"input":144,"interpolation":"STEP","output":173},{"input":144,"interpolation":"STEP","output":174},{"input":144,"interpolation":"STEP","output":175},{"input":144,"interpolation":"STEP","output":176},{"input":154,"interpolation":"LINEAR","output":177},{"input":144,"interpolation":"STEP","output":178},{"input":144,"interpolation":"STEP","output":179},{"input":144,"interpolation":"STEP","output":180},{"input":144,"interpolation":"STEP","output":181},{"input":144,"interpolation":"STEP","output":182},{"input":154,"interpolation":"LINEAR","output":183},{"input":144,"interpolation":"STEP","output":184},{"input":144,"interpolation":"STEP","output":185},{"input":144,"interpolation":"STEP","output":186},{"input":144,"interpolation":"STEP","output":187},{"input":144,"interpolation":"STEP","output":188},{"input":154,"interpolation":"LINEAR","output":189},{"input":144,"interpolation":"STEP","output":190},{"input":144,"interpolation":"STEP","output":191},{"input":144,"interpolation":"STEP","output":192},{"input":144,"interpolation":"STEP","output":193},{"input":144,"interpolation":"STEP","output":194},{"input":154,"interpolation":"LINEAR","output":195},{"input":144,"interpolation":"STEP","output":196},{"input":144,"interpolation":"STEP","output":197},{"input":144,"interpolation":"STEP","output":198},{"input":144,"interpolation":"STEP","output":199},{"input":144,"interpolation":"STEP","output":200},{"input":154,"interpolation":"LINEAR","output":201},{"input":144,"interpolation":"STEP","output":202},{"input":144,"interpolation":"STEP","output":203},{"input":144,"interpolation":"STEP","output":204},{"input":144,"interpolation":"STEP","output":205},{"input":144,"interpolation":"STEP","output":206},{"input":144,"interpolation":"STEP","output":207},{"input":144,"interpolation":"STEP","output":208},{"input":144,"interpolation":"STEP","output":209},{"input":144,"interpolation":"STEP","output":210},{"input":144,"interpolation":"STEP","output":211},{"input":144,"interpolation":"STEP","output":212},{"input":144,"interpolation":"STEP","output":213},{"input":144,"interpolation":"STEP","output":214},{"input":144,"interpolation":"STEP","output":215},{"input":154,"interpolation":"LINEAR","output":216},{"input":144,"interpolation":"STEP","output":217},{"input":144,"interpolation":"STEP","output":218},{"input":154,"interpolation":"LINEAR","output":219},{"input":144,"interpolation":"STEP","output":220},{"input":144,"interpolation":"STEP","output":221},{"input":144,"interpolation":"STEP","output":222},{"input":144,"interpolation":"STEP","output":223},{"input":144,"interpolation":"STEP","output":224},{"input":144,"interpolation":"STEP","output":225},{"input":144,"interpolation":"STEP","output":226},{"input":144,"interpolation":"STEP","output":227},{"input":154,"interpolation":"LINEAR","output":228},{"input":144,"interpolation":"STEP","output":229},{"input":144,"interpolation":"STEP","output":230},{"input":154,"interpolation":"LINEAR","output":231},{"input":144,"interpolation":"STEP","output":232},{"input":144,"interpolation":"STEP","output":233},{"input":144,"interpolation":"STEP","output":234},{"input":144,"interpolation":"STEP","output":235},{"input":144,"interpolation":"STEP","output":236},{"input":144,"interpolation":"STEP","output":237},{"input":144,"interpolation":"STEP","output":238},{"input":144,"interpolation":"STEP","output":239},{"input":144,"interpolation":"STEP","output":240},{"input":144,"interpolation":"STEP","output":241},{"input":144,"interpolation":"STEP","output":242},{"input":144,"interpolation":"STEP","output":243},{"input":144,"interpolation":"STEP","output":244},{"input":144,"interpolation":"STEP","output":245},{"input":144,"interpolation":"STEP","output":246},{"input":144,"interpolation":"STEP","output":247},{"input":144,"interpolation":"STEP","output":248},{"input":144,"interpolation":"STEP","output":249},{"input":144,"interpolation":"STEP","output":250},{"input":144,"interpolation":"STEP","output":251},{"input":144,"interpolation":"STEP","output":252},{"input":144,"interpolation":"STEP","output":253},{"input":144,"interpolation":"STEP","output":254},{"input":144,"interpolation":"STEP","output":255},{"input":144,"interpolation":"STEP","output":256},{"input":144,"interpolation":"STEP","output":257},{"input":144,"interpolation":"STEP","output":258},{"input":144,"interpolation":"STEP","output":259},{"input":144,"interpolation":"STEP","output":260},{"input":144,"interpolation":"STEP","output":261},{"input":144,"interpolation":"STEP","output":262},{"input":144,"interpolation":"STEP","output":263},{"input":144,"interpolation":"STEP","output":264},{"input":144,"interpolation":"STEP","output":265}]}],"materials":[{"alphaMode":"MASK","doubleSided":true,"name":"White","pbrMetallicRoughness":{"baseColorFactor":[0.800000011920929,0.800000011920929,0.800000011920929,0],"metallicFactor":0,"roughnessFactor":0.690034806728363}},{"alphaMode":"MASK","doubleSided":true,"name":"Black","pbrMetallicRoughness":{"baseColorFactor":[0.029097795486450195,0.029097795486450195,0.029097795486450195,0],"metallicFactor":0,"roughnessFactor":0.690034806728363}},{"alphaMode":"MASK","doubleSided":true,"name":"Pink","pbrMetallicRoughness":{"baseColorFactor":[0.8000000715255737,0.17604881525039673,0.21668972074985504,0],"metallicFactor":0,"roughnessFactor":0.690034806728363}}],"meshes":[{"name":"Cylinder","primitives":[{"attributes":{"POSITION":0,"NORMAL":1,"COLOR_0":2,"COLOR_1":3,"JOINTS_0":4,"WEIGHTS_0":5},"indices":6,"material":0},{"attributes":{"POSITION":7,"NORMAL":8,"COLOR_0":9,"COLOR_1":10,"JOINTS_0":11,"WEIGHTS_0":12},"indices":13,"material":1},{"attributes":{"POSITION":14,"NORMAL":15,"COLOR_0":16,"COLOR_1":17,"JOINTS_0":18,"WEIGHTS_0":19},"indices":20,"material":2}]}],"skins":[{"inverseBindMatrices":21,"joints":[38,1,0,31,5,4,3,2,9,8,7,6,13,12,11,10,17,16,15,14,23,22,21,20,19,18,27,26,25,24,30,29,28,33,32,35,34,37,36],"name":"Armature"}],"accessors":[{"bufferView":0,"componentType":5126,"count":710,"max":[1.1247835159301758,5.079702377319336,5.345300674438477],"min":[-1.1247835159301758,0.300417959690094,-3.7443528175354004],"type":"VEC3"},{"bufferView":1,"componentType":5126,"count":710,"type":"VEC3"},{"bufferView":2,"componentType":5121,"count":710,"normalized":true,"type":"VEC4"},{"bufferView":3,"componentType":5126,"count":710,"type":"VEC3"},{"bufferView":4,"componentType":5121,"count":710,"type":"VEC4"},{"bufferView":5,"componentType":5126,"count":710,"type":"VEC4"},{"bufferView":6,"componentType":5123,"count":1062,"type":"SCALAR"},{"bufferView":7,"componentType":5126,"count":804,"max":[1.1178910732269287,4.999445915222168,5.329851150512695],"min":[-1.1178910732269287,-0.06804600358009338,-3.776237726211548],"type":"VEC3"},{"bufferView":8,"componentType":5126,"count":804,"type":"VEC3"},{"bufferView":9,"componentType":5121,"count":804,"normalized":true,"type":"VEC4"},{"bufferView":10,"componentType":5126,"count":804,"type":"VEC3"},{"bufferView":11,"componentType":5121,"count":804,"type":"VEC4"},{"bufferView":12,"componentType":5126,"count":804,"type":"VEC4"},{"bufferView":13,"componentType":5123,"count":1188,"type":"SCALAR"},{"bufferView":14,"componentType":5126,"count":102,"max":[0.6959424614906311,3.833357334136963,5.396209716796875],"min":[-0.6959423422813416,1.5822323560714722,-2.076094627380371],"type":"VEC3"},{"bufferView":15,"componentType":5126,"count":102,"type":"VEC3"},{"bufferView":16,"componentType":5121,"count":102,"normalized":true,"type":"VEC4"},{"bufferView":17,"componentType":5126,"count":102,"type":"VEC3"},{"bufferView":18,"componentType":5121,"count":102,"type":"VEC4"},{"bufferView":19,"componentType":5126,"count":102,"type":"VEC4"},{"bufferView":20,"componentType":5123,"count":138,"type":"SCALAR"},{"bufferView":21,"componentType":5126,"count":39,"type":"MAT4"},{"bufferView":22,"componentType":5126,"count":2,"max":[1.2916666666666667],"min":[0.041666666666666664],"type":"SCALAR"},{"bufferView":23,"componentType":5126,"count":2,"type":"VEC3"},{"bufferView":24,"componentType":5126,"count":2,"type":"VEC4"},{"bufferView":25,"componentType":5126,"count":2,"type":"VEC3"},{"bufferView":26,"componentType":5126,"count":31,"max":[1.2916666666666667],"min":[0.041666666666666664],"type":"SCALAR"},{"bufferView":27,"componentType":5126,"count":31,"type":"VEC3"},{"bufferView":28,"componentType":5126,"count":31,"type":"VEC4"},{"bufferView":29,"componentType":5126,"count":2,"type":"VEC3"},{"bufferView":30,"componentType":5126,"count":2,"type":"VEC3"},{"bufferView":31,"componentType":5126,"count":2,"type":"VEC4"},{"bufferView":32,"componentType":5126,"count":2,"type":"VEC3"},{"bufferView":33,"componentType":5126,"count":31,"type":"VEC3"},{"bufferView":34,"componentType":5126,"count":31,"type":"VEC4"},{"bufferView":35,"componentType":5126,"count":2,"type":"VEC3"},{"bufferView":36,"componentType":5126,"count":2,"type":"VEC3"},{"bufferView":37,"componentType":5126,"count":31,"type":"VEC4"},{"bufferView":38,"componentType":5126,"count":2,"type":"VEC3"},{"bufferView":39,"componentType":5126,"count":2,"type":"VEC3"},{"bufferView":40,"componentType":5126,"count":31,"type":"VEC4"},{"bufferView":41,"componentType":5126,"count":2,"type":"VEC3"},{"bufferView":42,"componentType":5126,"count":2,"type":"VEC3"},{"bufferView":43,"componentType":5126,"count":31,"type":"VEC4"},{"bufferView":44,"componentType":5126,"count":2,"type":"VEC3"},{"bufferView":45,"componentType":5126,"count":2,"type":"VEC3"},{"bufferView":46,"componentType":5126,"count":2,"type":"VEC4"},{"bufferView":47,"componentType":5126,"count":2,"type":"VEC3"},{"bufferView":48,"componentType":5126,"count":2,"type":"VEC3"},{"bufferView":49,"componentType":5126,"count":31,"type":"VEC4"},{"bufferView":50,"componentType":5126,"count":2,"type":"VEC3"},{"bufferView":51,"componentType":5126,"count":2,"type":"VEC3"},{"bufferView":52,"componentType":5126,"count":31,"type":"VEC4"},{"bufferView":53,"componentType":5126,"count":2,"type":"VEC3"},{"bufferView":54,"componentType":5126,"count":2,"type":"VEC3"},{"bufferView":55,"componentType":5126,"count":31,"type":"VEC4"},{"bufferView":56,"componentType":5126,"count":2,"type":"VEC3"},{"bufferView":57,"componentType":5126,"count":2,"type":"VEC3"},{"bufferView":58,"componentType":5126,"count":2,"type":"VEC4"},{"bufferView":59,"componentType":5126,"count":2,"type":"VEC3"},{"bufferView":60,"componentType":5126,"count":2,"type":"VEC3"},{"bufferView":61,"componentType":5126,"count":31,"type":"VEC4"},{"bufferView":62,"componentType":5126,"count":2,"type":"VEC3"},{"bufferView":63,"componentType":5126,"count":2,"type":"VEC3"},{"bufferView":64,"componentType":5126,"count":31,"type":"VEC4"},{"bufferView":65,"componentType":5126,"count":2,"type":"VEC3"},{"bufferView":66,"componentType":5126,"count":2,"type":"VEC3"},{"bufferView":67,"componentType":5126,"count":31,"type":"VEC4"},{"bufferView":68,"componentType":5126,"count":2,"type":"VEC3"},{"bufferView":69,"componentType":5126,"count":2,"type":"VEC3"},{"bufferView":70,"componentType":5126,"count":2,"type":"VEC4"},{"bufferView":71,"componentType":5126,"count":2,"type":"VEC3"},{"bufferView":72,"componentType":5126,"count":2,"type":"VEC3"},{"bufferView":73,"componentType":5126,"count":31,"type":"VEC4"},{"bufferView":74,"componentType":5126,"count":2,"type":"VEC3"},{"bufferView":75,"componentType":5126,"count":2,"type":"VEC3"},{"bufferView":76,"componentType":5126,"count":31,"type":"VEC4"},{"bufferView":77,"componentType":5126,"count":2,"type":"VEC3"},{"bufferView":78,"componentType":5126,"count":2,"type":"VEC3"},{"bufferView":79,"componentType":5126,"count":31,"type":"VEC4"},{"bufferView":80,"componentType":5126,"count":2,"type":"VEC3"},{"bufferView":81,"componentType":5126,"count":2,"type":"VEC3"},{"bufferView":82,"componentType":5126,"count":2,"type":"VEC4"},{"bufferView":83,"componentType":5126,"count":2,"type":"VEC3"},{"bufferView":84,"componentType":5126,"count":31,"type":"VEC3"},{"bufferView":85,"componentType":5126,"count":2,"type":"VEC4"},{"bufferView":86,"componentType":5126,"count":2,"type":"VEC3"},{"bufferView":87,"componentType":5126,"count":2,"type":"VEC3"},{"bufferView":88,"componentType":5126,"count":2,"type":"VEC4"},{"bufferView":89,"componentType":5126,"count":2,"type":"VEC3"},{"bufferView":90,"componentType":5126,"count":2,"type":"VEC3"},{"bufferView":91,"componentType":5126,"count":31,"type":"VEC4"},{"bufferView":92,"componentType":5126,"count":2,"type":"VEC3"},{"bufferView":93,"componentType":5126,"count":2,"type":"VEC3"},{"bufferView":94,"componentType":5126,"count":31,"type":"VEC4"},{"bufferView":95,"componentType":5126,"count":2,"type":"VEC3"},{"bufferView":96,"componentType":5126,"count":2,"type":"VEC3"},{"bufferView":97,"componentType":5126,"count":31,"type":"VEC4"},{"bufferView":98,"componentType":5126,"count":2,"type":"VEC3"},{"bufferView":99,"componentType":5126,"count":2,"type":"VEC3"},{"bufferView":100,"componentType":5126,"count":2,"type":"VEC4"},{"bufferView":101,"componentType":5126,"count":2,"type":"VEC3"},{"bufferView":102,"componentType":5126,"count":31,"type":"VEC3"},{"bufferView":103,"componentType":5126,"count":31,"type":"VEC4"},{"bufferView":104,"componentType":5126,"count":2,"type":"VEC3"},{"bufferView":105,"componentType":5126,"count":2,"type":"VEC3"},{"bufferView":106,"componentType":5126,"count":31,"type":"VEC4"},{"bufferView":107,"componentType":5126,"count":2,"type":"VEC3"},{"bufferView":108,"componentType":5126,"count":2,"type":"VEC3"},{"bufferView":109,"componentType":5126,"count":31,"type":"VEC4"},{"bufferView":110,"componentType":5126,"count":2,"type":"VEC3"},{"bufferView":111,"componentType":5126,"count":2,"type":"VEC3"},{"bufferView":112,"componentType":5126,"count":2,"type":"VEC4"},{"bufferView":113,"componentType":5126,"count":2,"type":"VEC3"},{"bufferView":114,"componentType":5126,"count":31,"type":"VEC3"},{"bufferView":115,"componentType":5126,"count":2,"type":"VEC4"},{"bufferView":116,"componentType":5126,"count":2,"type":"VEC3"},{"bufferView":117,"componentType":5126,"count":2,"type":"VEC3"},{"bufferView":118,"componentType":5126,"count":2,"type":"VEC4"},{"bufferView":119,"componentType":5126,"count":2,"type":"VEC3"},{"bufferView":120,"componentType":5126,"count":2,"type":"VEC3"},{"bufferView":121,"componentType":5126,"count":2,"type":"VEC4"},{"bufferView":122,"componentType":5126,"count":2,"type":"VEC3"},{"bufferView":123,"componentType":5126,"count":31,"type":"VEC3"},{"bufferView":124,"componentType":5126,"count":31,"type":"VEC4"},{"bufferView":125,"componentType":5126,"count":2,"type":"VEC3"},{"bufferView":126,"componentType":5126,"count":2,"type":"VEC3"},{"bufferView":127,"componentType":5126,"count":2,"type":"VEC4"},{"bufferView":128,"componentType":5126,"count":2,"type":"VEC3"},{"bufferView":129,"componentType":5126,"count":31,"type":"VEC3"},{"bufferView":130,"componentType":5126,"count":31,"type":"VEC4"},{"bufferView":131,"componentType":5126,"count":2,"type":"VEC3"},{"bufferView":132,"componentType":5126,"count":2,"type":"VEC3"},{"bufferView":133,"componentType":5126,"count":2,"type":"VEC4"},{"bufferView":134,"componentType":5126,"count":2,"type":"VEC3"},{"bufferView":135,"componentType":5126,"count":31,"type":"VEC3"},{"bufferView":136,"componentType":5126,"count":31,"type":"VEC4"},{"bufferView":137,"componentType":5126,"count":2,"type":"VEC3"},{"bufferView":138,"componentType":5126,"count":2,"type":"VEC3"},{"bufferView":139,"componentType":5126,"count":2,"type":"VEC4"},{"bufferView":140,"componentType":5126,"count":2,"type":"VEC3"},{"bufferView":141,"componentType":5126,"count":2,"type":"VEC3"},{"bufferView":142,"componentType":5126,"count":2,"type":"VEC4"},{"bufferView":143,"componentType":5126,"count":2,"type":"VEC3"},{"bufferView":144,"componentType":5126,"count":2,"max":[6.291666666666667],"min":[0.041666666666666664],"type":"SCALAR"},{"bufferView":145,"componentType":5126,"count":2,"type":"VEC3"},{"bufferView":146,"componentType":5126,"count":2,"type":"VEC4"},{"bufferView":147,"componentType":5126,"count":2,"type":"VEC3"},{"bufferView":148,"componentType":5126,"count":2,"type":"VEC3"},{"bufferView":149,"componentType":5126,"count":2,"type":"VEC4"},{"bufferView":150,"componentType":5126,"count":2,"type":"VEC3"},{"bufferView":151,"componentType":5126,"count":2,"type":"VEC3"},{"bufferView":152,"componentType":5126,"count":2,"type":"VEC4"},{"bufferView":153,"componentType":5126,"count":2,"type":"VEC3"},{"bufferView":154,"componentType":5126,"count":151,"max":[6.291666666666667],"min":[0.041666666666666664],"type":"SCALAR"},{"bufferView":155,"componentType":5126,"count":151,"type":"VEC3"},{"bufferView":156,"componentType":5126,"count":2,"type":"VEC4"},{"bufferView":157,"componentType":5126,"count":2,"type":"VEC3"},{"bufferView":158,"componentType":5126,"count":2,"type":"VEC3"},{"bufferView":159,"componentType":5126,"count":151,"type":"VEC4"},{"bufferView":160,"componentType":5126,"count":2,"type":"VEC3"},{"bufferView":161,"componentType":5126,"count":2,"type":"VEC3"},{"bufferView":162,"componentType":5126,"count":2,"type":"VEC4"},{"bufferView":163,"componentType":5126,"count":2,"type":"VEC3"},{"bufferView":164,"componentType":5126,"count":2,"type":"VEC3"},{"bufferView":165,"componentType":5126,"count":151,"type":"VEC4"},{"bufferView":166,"componentType":5126,"count":2,"type":"VEC3"},{"bufferView":167,"componentType":5126,"count":2,"type":"VEC3"},{"bufferView":168,"componentType":5126,"count":2,"type":"VEC4"},{"bufferView":169,"componentType":5126,"count":2,"type":"VEC3"},{"bufferView":170,"componentType":5126,"count":2,"type":"VEC3"},{"bufferView":171,"componentType":5126,"count":151,"type":"VEC4"},{"bufferView":172,"componentType":5126,"count":2,"type":"VEC3"},{"bufferView":173,"componentType":5126,"count":2,"type":"VEC3"},{"bufferView":174,"componentType":5126,"count":2,"type":"VEC4"},{"bufferView":175,"componentType":5126,"count":2,"type":"VEC3"},{"bufferView":176,"componentType":5126,"count":2,"type":"VEC3"},{"bufferView":177,"componentType":5126,"count":151,"type":"VEC4"},{"bufferView":178,"componentType":5126,"count":2,"type":"VEC3"},{"bufferView":179,"componentType":5126,"count":2,"type":"VEC3"},{"bufferView":180,"componentType":5126,"count":2,"type":"VEC4"},{"bufferView":181,"componentType":5126,"count":2,"type":"VEC3"},{"bufferView":182,"componentType":5126,"count":2,"type":"VEC3"},{"bufferView":183,"componentType":5126,"count":151,"type":"VEC4"},{"bufferView":184,"componentType":5126,"count":2,"type":"VEC3"},{"bufferView":185,"componentType":5126,"count":2,"type":"VEC3"},{"bufferView":186,"componentType":5126,"count":2,"type":"VEC4"},{"bufferView":187,"componentType":5126,"count":2,"type":"VEC3"},{"bufferView":188,"componentType":5126,"count":2,"type":"VEC3"},{"bufferView":189,"componentType":5126,"count":151,"type":"VEC4"},{"bufferView":190,"componentType":5126,"count":2,"type":"VEC3"},{"bufferView":191,"componentType":5126,"count":2,"type":"VEC3"},{"bufferView":192,"componentType":5126,"count":2,"type":"VEC4"},{"bufferView":193,"componentType":5126,"count":2,"type":"VEC3"},{"bufferView":194,"componentType":5126,"count":2,"type":"VEC3"},{"bufferView":195,"componentType":5126,"count":151,"type":"VEC4"},{"bufferView":196,"componentType":5126,"count":2,"type":"VEC3"},{"bufferView":197,"componentType":5126,"count":2,"type":"VEC3"},{"bufferView":198,"componentType":5126,"count":2,"type":"VEC4"},{"bufferView":199,"componentType":5126,"count":2,"type":"VEC3"},{"bufferView":200,"componentType":5126,"count":2,"type":"VEC3"},{"bufferView":201,"componentType":5126,"count":151,"type":"VEC4"},{"bufferView":202,"componentType":5126,"count":2,"type":"VEC3"},{"bufferView":203,"componentType":5126,"count":2,"type":"VEC3"},{"bufferView":204,"componentType":5126,"count":2,"type":"VEC4"},{"bufferView":205,"componentType":5126,"count":2,"type":"VEC3"},{"bufferView":206,"componentType":5126,"count":2,"type":"VEC3"},{"bufferView":207,"componentType":5126,"count":2,"type":"VEC4"},{"bufferView":208,"componentType":5126,"count":2,"type":"VEC3"},{"bufferView":209,"componentType":5126,"count":2,"type":"VEC3"},{"bufferView":210,"componentType":5126,"count":2,"type":"VEC4"},{"bufferView":211,"componentType":5126,"count":2,"type":"VEC3"},{"bufferView":212,"componentType":5126,"count":2,"type":"VEC3"},{"bufferView":213,"componentType":5126,"count":2,"type":"VEC4"},{"bufferView":214,"componentType":5126,"count":2,"type":"VEC3"},{"bufferView":215,"componentType":5126,"count":2,"type":"VEC3"},{"bufferView":216,"componentType":5126,"count":151,"type":"VEC4"},{"bufferView":217,"componentType":5126,"count":2,"type":"VEC3"},{"bufferView":218,"componentType":5126,"count":2,"type":"VEC3"},{"bufferView":219,"componentType":5126,"count":151,"type":"VEC4"},{"bufferView":220,"componentType":5126,"count":2,"type":"VEC3"},{"bufferView":221,"componentType":5126,"count":2,"type":"VEC3"},{"bufferView":222,"componentType":5126,"count":2,"type":"VEC4"},{"bufferView":223,"componentType":5126,"count":2,"type":"VEC3"},{"bufferView":224,"componentType":5126,"count":2,"type":"VEC3"},{"bufferView":225,"componentType":5126,"count":2,"type":"VEC4"},{"bufferView":226,"componentType":5126,"count":2,"type":"VEC3"},{"bufferView":227,"componentType":5126,"count":2,"type":"VEC3"},{"bufferView":228,"componentType":5126,"count":151,"type":"VEC4"},{"bufferView":229,"componentType":5126,"count":2,"type":"VEC3"},{"bufferView":230,"componentType":5126,"count":2,"type":"VEC3"},{"bufferView":231,"componentType":5126,"count":151,"type":"VEC4"},{"bufferView":232,"componentType":5126,"count":2,"type":"VEC3"},{"bufferView":233,"componentType":5126,"count":2,"type":"VEC3"},{"bufferView":234,"componentType":5126,"count":2,"type":"VEC4"},{"bufferView":235,"componentType":5126,"count":2,"type":"VEC3"},{"bufferView":236,"componentType":5126,"count":2,"type":"VEC3"},{"bufferView":237,"componentType":5126,"count":2,"type":"VEC4"},{"bufferView":238,"componentType":5126,"count":2,"type":"VEC3"},{"bufferView":239,"componentType":5126,"count":2,"type":"VEC3"},{"bufferView":240,"componentType":5126,"count":2,"type":"VEC4"},{"bufferView":241,"componentType":5126,"count":2,"type":"VEC3"},{"bufferView":242,"componentType":5126,"count":2,"type":"VEC3"},{"bufferView":243,"componentType":5126,"count":2,"type":"VEC4"},{"bufferView":244,"componentType":5126,"count":2,"type":"VEC3"},{"bufferView":245,"componentType":5126,"count":2,"type":"VEC3"},{"bufferView":246,"componentType":5126,"count":2,"type":"VEC4"},{"bufferView":247,"componentType":5126,"count":2,"type":"VEC3"},{"bufferView":248,"componentType":5126,"count":2,"type":"VEC3"},{"bufferView":249,"componentType":5126,"count":2,"type":"VEC4"},{"bufferView":250,"componentType":5126,"count":2,"type":"VEC3"},{"bufferView":251,"componentType":5126,"count":2,"type":"VEC3"},{"bufferView":252,"componentType":5126,"count":2,"type":"VEC4"},{"bufferView":253,"componentType":5126,"count":2,"type":"VEC3"},{"bufferView":254,"componentType":5126,"count":2,"type":"VEC3"},{"bufferView":255,"componentType":5126,"count":2,"type":"VEC4"},{"bufferView":256,"componentType":5126,"count":2,"type":"VEC3"},{"bufferView":257,"componentType":5126,"count":2,"type":"VEC3"},{"bufferView":258,"componentType":5126,"count":2,"type":"VEC4"},{"bufferView":259,"componentType":5126,"count":2,"type":"VEC3"},{"bufferView":260,"componentType":5126,"count":2,"type":"VEC3"},{"bufferView":261,"componentType":5126,"count":2,"type":"VEC4"},{"bufferView":262,"componentType":5126,"count":2,"type":"VEC3"},{"bufferView":263,"componentType":5126,"count":2,"type":"VEC3"},{"bufferView":264,"componentType":5126,"count":2,"type":"VEC4"},{"bufferView":265,"componentType":5126,"count":2,"type":"VEC3"}],"bufferViews":[{"buffer":0,"byteLength":8520,"byteOffset":0,"target":34962},{"buffer":0,"byteLength":8520,"byteOffset":8520,"target":34962},{"buffer":0,"byteLength":2840,"byteOffset":17040,"target":34962},{"buffer":0,"byteLength":8520,"byteOffset":19880,"target":34962},{"buffer":0,"byteLength":2840,"byteOffset":28400,"target":34962},{"buffer":0,"byteLength":11360,"byteOffset":31240,"target":34962},{"buffer":0,"byteLength":2124,"byteOffset":42600,"target":34963},{"buffer":0,"byteLength":9648,"byteOffset":44724,"target":34962},{"buffer":0,"byteLength":9648,"byteOffset":54372,"target":34962},{"buffer":0,"byteLength":3216,"byteOffset":64020,"target":34962},{"buffer":0,"byteLength":9648,"byteOffset":67236,"target":34962},{"buffer":0,"byteLength":3216,"byteOffset":76884,"target":34962},{"buffer":0,"byteLength":12864,"byteOffset":80100,"target":34962},{"buffer":0,"byteLength":2376,"byteOffset":92964,"target":34963},{"buffer":0,"byteLength":1224,"byteOffset":95340,"target":34962},{"buffer":0,"byteLength":1224,"byteOffset":96564,"target":34962},{"buffer":0,"byteLength":408,"byteOffset":97788,"target":34962},{"buffer":0,"byteLength":1224,"byteOffset":98196,"target":34962},{"buffer":0,"byteLength":408,"byteOffset":99420,"target":34962},{"buffer":0,"byteLength":1632,"byteOffset":99828,"target":34962},{"buffer":0,"byteLength":276,"byteOffset":101460,"target":34963},{"buffer":0,"byteLength":2496,"byteOffset":101736},{"buffer":0,"byteLength":8,"byteOffset":104232},{"buffer":0,"byteLength":24,"byteOffset":104240},{"buffer":0,"byteLength":32,"byteOffset":104264},{"buffer":0,"byteLength":24,"byteOffset":104296},{"buffer":0,"byteLength":124,"byteOffset":104320},{"buffer":0,"byteLength":372,"byteOffset":104444},{"buffer":0,"byteLength":496,"byteOffset":104816},{"buffer":0,"byteLength":24,"byteOffset":105312},{"buffer":0,"byteLength":24,"byteOffset":105336},{"buffer":0,"byteLength":32,"byteOffset":105360},{"buffer":0,"byteLength":24,"byteOffset":105392},{"buffer":0,"byteLength":372,"byteOffset":105416},{"buffer":0,"byteLength":496,"byteOffset":105788},{"buffer":0,"byteLength":24,"byteOffset":106284},{"buffer":0,"byteLength":24,"byteOffset":106308},{"buffer":0,"byteLength":496,"byteOffset":106332},{"buffer":0,"byteLength":24,"byteOffset":106828},{"buffer":0,"byteLength":24,"byteOffset":106852},{"buffer":0,"byteLength":496,"byteOffset":106876},{"buffer":0,"byteLength":24,"byteOffset":107372},{"buffer":0,"byteLength":24,"byteOffset":107396},{"buffer":0,"byteLength":496,"byteOffset":107420},{"buffer":0,"byteLength":24,"byteOffset":107916},{"buffer":0,"byteLength":24,"byteOffset":107940},{"buffer":0,"byteLength":32,"byteOffset":107964},{"buffer":0,"byteLength":24,"byteOffset":107996},{"buffer":0,"byteLength":24,"byteOffset":108020},{"buffer":0,"byteLength":496,"byteOffset":108044},{"buffer":0,"byteLength":24,"byteOffset":108540},{"buffer":0,"byteLength":24,"byteOffset":108564},{"buffer":0,"byteLength":496,"byteOffset":108588},{"buffer":0,"byteLength":24,"byteOffset":109084},{"buffer":0,"byteLength":24,"byteOffset":109108},{"buffer":0,"byteLength":496,"byteOffset":109132},{"buffer":0,"byteLength":24,"byteOffset":109628},{"buffer":0,"byteLength":24,"byteOffset":109652},{"buffer":0,"byteLength":32,"byteOffset":109676},{"buffer":0,"byteLength":24,"byteOffset":109708},{"buffer":0,"byteLength":24,"byteOffset":109732},{"buffer":0,"byteLength":496,"byteOffset":109756},{"buffer":0,"byteLength":24,"byteOffset":110252},{"buffer":0,"byteLength":24,"byteOffset":110276},{"buffer":0,"byteLength":496,"byteOffset":110300},{"buffer":0,"byteLength":24,"byteOffset":110796},{"buffer":0,"byteLength":24,"byteOffset":110820},{"buffer":0,"byteLength":496,"byteOffset":110844},{"buffer":0,"byteLength":24,"byteOffset":111340},{"buffer":0,"byteLength":24,"byteOffset":111364},{"buffer":0,"byteLength":32,"byteOffset":111388},{"buffer":0,"byteLength":24,"byteOffset":111420},{"buffer":0,"byteLength":24,"byteOffset":111444},{"buffer":0,"byteLength":496,"byteOffset":111468},{"buffer":0,"byteLength":24,"byteOffset":111964},{"buffer":0,"byteLength":24,"byteOffset":111988},{"buffer":0,"byteLength":496,"byteOffset":112012},{"buffer":0,"byteLength":24,"byteOffset":112508},{"buffer":0,"byteLength":24,"byteOffset":112532},{"buffer":0,"byteLength":496,"byteOffset":112556},{"buffer":0,"byteLength":24,"byteOffset":113052},{"buffer":0,"byteLength":24,"byteOffset":113076},{"buffer":0,"byteLength":32,"byteOffset":113100},{"buffer":0,"byteLength":24,"byteOffset":113132},{"buffer":0,"byteLength":372,"byteOffset":113156},{"buffer":0,"byteLength":32,"byteOffset":113528},{"buffer":0,"byteLength":24,"byteOffset":113560},{"buffer":0,"byteLength":24,"byteOffset":113584},{"buffer":0,"byteLength":32,"byteOffset":113608},{"buffer":0,"byteLength":24,"byteOffset":113640},{"buffer":0,"byteLength":24,"byteOffset":113664},{"buffer":0,"byteLength":496,"byteOffset":113688},{"buffer":0,"byteLength":24,"byteOffset":114184},{"buffer":0,"byteLength":24,"byteOffset":114208},{"buffer":0,"byteLength":496,"byteOffset":114232},{"buffer":0,"byteLength":24,"byteOffset":114728},{"buffer":0,"byteLength":24,"byteOffset":114752},{"buffer":0,"byteLength":496,"byteOffset":114776},{"buffer":0,"byteLength":24,"byteOffset":115272},{"buffer":0,"byteLength":24,"byteOffset":115296},{"buffer":0,"byteLength":32,"byteOffset":115320},{"buffer":0,"byteLength":24,"byteOffset":115352},{"buffer":0,"byteLength":372,"byteOffset":115376},{"buffer":0,"byteLength":496,"byteOffset":115748},{"buffer":0,"byteLength":24,"byteOffset":116244},{"buffer":0,"byteLength":24,"byteOffset":116268},{"buffer":0,"byteLength":496,"byteOffset":116292},{"buffer":0,"byteLength":24,"byteOffset":116788},{"buffer":0,"byteLength":24,"byteOffset":116812},{"buffer":0,"byteLength":496,"byteOffset":116836},{"buffer":0,"byteLength":24,"byteOffset":117332},{"buffer":0,"byteLength":24,"byteOffset":117356},{"buffer":0,"byteLength":32,"byteOffset":117380},{"buffer":0,"byteLength":24,"byteOffset":117412},{"buffer":0,"byteLength":372,"byteOffset":117436},{"buffer":0,"byteLength":32,"byteOffset":117808},{"buffer":0,"byteLength":24,"byteOffset":117840},{"buffer":0,"byteLength":24,"byteOffset":117864},{"buffer":0,"byteLength":32,"byteOffset":117888},{"buffer":0,"byteLength":24,"byteOffset":117920},{"buffer":0,"byteLength":24,"byteOffset":117944},{"buffer":0,"byteLength":32,"byteOffset":117968},{"buffer":0,"byteLength":24,"byteOffset":118000},{"buffer":0,"byteLength":372,"byteOffset":118024},{"buffer":0,"byteLength":496,"byteOffset":118396},{"buffer":0,"byteLength":24,"byteOffset":118892},{"buffer":0,"byteLength":24,"byteOffset":118916},{"buffer":0,"byteLength":32,"byteOffset":118940},{"buffer":0,"byteLength":24,"byteOffset":118972},{"buffer":0,"byteLength":372,"byteOffset":118996},{"buffer":0,"byteLength":496,"byteOffset":119368},{"buffer":0,"byteLength":24,"byteOffset":119864},{"buffer":0,"byteLength":24,"byteOffset":119888},{"buffer":0,"byteLength":32,"byteOffset":119912},{"buffer":0,"byteLength":24,"byteOffset":119944},{"buffer":0,"byteLength":372,"byteOffset":119968},{"buffer":0,"byteLength":496,"byteOffset":120340},{"buffer":0,"byteLength":24,"byteOffset":120836},{"buffer":0,"byteLength":24,"byteOffset":120860},{"buffer":0,"byteLength":32,"byteOffset":120884},{"buffer":0,"byteLength":24,"byteOffset":120916},{"buffer":0,"byteLength":24,"byteOffset":120940},{"buffer":0,"byteLength":32,"byteOffset":120964},{"buffer":0,"byteLength":24,"byteOffset":120996},{"buffer":0,"byteLength":8,"byteOffset":121020},{"buffer":0,"byteLength":24,"byteOffset":121028},{"buffer":0,"byteLength":32,"byteOffset":121052},{"buffer":0,"byteLength":24,"byteOffset":121084},{"buffer":0,"byteLength":24,"byteOffset":121108},{"buffer":0,"byteLength":32,"byteOffset":121132},{"buffer":0,"byteLength":24,"byteOffset":121164},{"buffer":0,"byteLength":24,"byteOffset":121188},{"buffer":0,"byteLength":32,"byteOffset":121212},{"buffer":0,"byteLength":24,"byteOffset":121244},{"buffer":0,"byteLength":604,"byteOffset":121268},{"buffer":0,"byteLength":1812,"byteOffset":121872},{"buffer":0,"byteLength":32,"byteOffset":123684},{"buffer":0,"byteLength":24,"byteOffset":123716},{"buffer":0,"byteLength":24,"byteOffset":123740},{"buffer":0,"byteLength":2416,"byteOffset":123764},{"buffer":0,"byteLength":24,"byteOffset":126180},{"buffer":0,"byteLength":24,"byteOffset":126204},{"buffer":0,"byteLength":32,"byteOffset":126228},{"buffer":0,"byteLength":24,"byteOffset":126260},{"buffer":0,"byteLength":24,"byteOffset":126284},{"buffer":0,"byteLength":2416,"byteOffset":126308},{"buffer":0,"byteLength":24,"byteOffset":128724},{"buffer":0,"byteLength":24,"byteOffset":128748},{"buffer":0,"byteLength":32,"byteOffset":128772},{"buffer":0,"byteLength":24,"byteOffset":128804},{"buffer":0,"byteLength":24,"byteOffset":128828},{"buffer":0,"byteLength":2416,"byteOffset":128852},{"buffer":0,"byteLength":24,"byteOffset":131268},{"buffer":0,"byteLength":24,"byteOffset":131292},{"buffer":0,"byteLength":32,"byteOffset":131316},{"buffer":0,"byteLength":24,"byteOffset":131348},{"buffer":0,"byteLength":24,"byteOffset":131372},{"buffer":0,"byteLength":2416,"byteOffset":131396},{"buffer":0,"byteLength":24,"byteOffset":133812},{"buffer":0,"byteLength":24,"byteOffset":133836},{"buffer":0,"byteLength":32,"byteOffset":133860},{"buffer":0,"byteLength":24,"byteOffset":133892},{"buffer":0,"byteLength":24,"byteOffset":133916},{"buffer":0,"byteLength":2416,"byteOffset":133940},{"buffer":0,"byteLength":24,"byteOffset":136356},{"buffer":0,"byteLength":24,"byteOffset":136380},{"buffer":0,"byteLength":32,"byteOffset":136404},{"buffer":0,"byteLength":24,"byteOffset":136436},{"buffer":0,"byteLength":24,"byteOffset":136460},{"buffer":0,"byteLength":2416,"byteOffset":136484},{"buffer":0,"byteLength":24,"byteOffset":138900},{"buffer":0,"byteLength":24,"byteOffset":138924},{"buffer":0,"byteLength":32,"byteOffset":138948},{"buffer":0,"byteLength":24,"byteOffset":138980},{"buffer":0,"byteLength":24,"byteOffset":139004},{"buffer":0,"byteLength":2416,"byteOffset":139028},{"buffer":0,"byteLength":24,"byteOffset":141444},{"buffer":0,"byteLength":24,"byteOffset":141468},{"buffer":0,"byteLength":32,"byteOffset":141492},{"buffer":0,"byteLength":24,"byteOffset":141524},{"buffer":0,"byteLength":24,"byteOffset":141548},{"buffer":0,"byteLength":2416,"byteOffset":141572},{"buffer":0,"byteLength":24,"byteOffset":143988},{"buffer":0,"byteLength":24,"byteOffset":144012},{"buffer":0,"byteLength":32,"byteOffset":144036},{"buffer":0,"byteLength":24,"byteOffset":144068},{"buffer":0,"byteLength":24,"byteOffset":144092},{"buffer":0,"byteLength":32,"byteOffset":144116},{"buffer":0,"byteLength":24,"byteOffset":144148},{"buffer":0,"byteLength":24,"byteOffset":144172},{"buffer":0,"byteLength":32,"byteOffset":144196},{"buffer":0,"byteLength":24,"byteOffset":144228},{"buffer":0,"byteLength":24,"byteOffset":144252},{"buffer":0,"byteLength":32,"byteOffset":144276},{"buffer":0,"byteLength":24,"byteOffset":144308},{"buffer":0,"byteLength":24,"byteOffset":144332},{"buffer":0,"byteLength":2416,"byteOffset":144356},{"buffer":0,"byteLength":24,"byteOffset":146772},{"buffer":0,"byteLength":24,"byteOffset":146796},{"buffer":0,"byteLength":2416,"byteOffset":146820},{"buffer":0,"byteLength":24,"byteOffset":149236},{"buffer":0,"byteLength":24,"byteOffset":149260},{"buffer":0,"byteLength":32,"byteOffset":149284},{"buffer":0,"byteLength":24,"byteOffset":149316},{"buffer":0,"byteLength":24,"byteOffset":149340},{"buffer":0,"byteLength":32,"byteOffset":149364},{"buffer":0,"byteLength":24,"byteOffset":149396},{"buffer":0,"byteLength":24,"byteOffset":149420},{"buffer":0,"byteLength":2416,"byteOffset":149444},{"buffer":0,"byteLength":24,"byteOffset":151860},{"buffer":0,"byteLength":24,"byteOffset":151884},{"buffer":0,"byteLength":2416,"byteOffset":151908},{"buffer":0,"byteLength":24,"byteOffset":154324},{"buffer":0,"byteLength":24,"byteOffset":154348},{"buffer":0,"byteLength":32,"byteOffset":154372},{"buffer":0,"byteLength":24,"byteOffset":154404},{"buffer":0,"byteLength":24,"byteOffset":154428},{"buffer":0,"byteLength":32,"byteOffset":154452},{"buffer":0,"byteLength":24,"byteOffset":154484},{"buffer":0,"byteLength":24,"byteOffset":154508},{"buffer":0,"byteLength":32,"byteOffset":154532},{"buffer":0,"byteLength":24,"byteOffset":154564},{"buffer":0,"byteLength":24,"byteOffset":154588},{"buffer":0,"byteLength":32,"byteOffset":154612},{"buffer":0,"byteLength":24,"byteOffset":154644},{"buffer":0,"byteLength":24,"byteOffset":154668},{"buffer":0,"byteLength":32,"byteOffset":154692},{"buffer":0,"byteLength":24,"byteOffset":154724},{"buffer":0,"byteLength":24,"byteOffset":154748},{"buffer":0,"byteLength":32,"byteOffset":154772},{"buffer":0,"byteLength":24,"byteOffset":154804},{"buffer":0,"byteLength":24,"byteOffset":154828},{"buffer":0,"byteLength":32,"byteOffset":154852},{"buffer":0,"byteLength":24,"byteOffset":154884},{"buffer":0,"byteLength":24,"byteOffset":154908},{"buffer":0,"byteLength":32,"byteOffset":154932},{"buffer":0,"byteLength":24,"byteOffset":154964},{"buffer":0,"byteLength":24,"byteOffset":154988},{"buffer":0,"byteLength":32,"byteOffset":155012},{"buffer":0,"byteLength":24,"byteOffset":155044},{"buffer":0,"byteLength":24,"byteOffset":155068},{"buffer":0,"byteLength":32,"byteOffset":155092},{"buffer":0,"byteLength":24,"byteOffset":155124},{"buffer":0,"byteLength":24,"byteOffset":155148},{"buffer":0,"byteLength":32,"byteOffset":155172},{"buffer":0,"byteLength":24,"byteOffset":155204}],"buffers":[{"byteLength":155228,"uri":"data:application/octet-stream;base64,"}]}