{"asset":{"generator":"Khronos glTF Blender I/O v4.2.57","version":"2.0"},"scene":0,"scenes":[{"name":"Scene","nodes":[40]}],"nodes":[{"name":"FrontFoot.R_end","translation":[-3.184978503156799e-09,1,-2.088540895783808e-09]},{"children":[0],"name":"FrontFoot.R","rotation":[0.7071067690849304,-6.434409556277387e-07,-6.434409556277387e-07,0.7071067690849304],"translation":[-0.9117709994316101,0.10000348091125488,1.927022933959961]},{"name":"FrontLowLeg.R_end","rotation":[-7.450580596923828e-08,1.693720363959983e-08,-1.83042985213433e-08,1],"scale":[1,0.9999999403953552,0.9999999403953552],"translation":[2.1830247831644556e-08,1.5877680778503418,3.319918562283419e-08]},{"children":[2],"name":"FrontLowLeg.R","rotation":[0.13236455619335175,-0.018815649673342705,0.0025131378788501024,0.9910193085670471],"scale":[1,0.9999999403953552,0.9999999403953552],"translation":[-2.7008354663848877e-08,1.4804553985595703,3.0174851417541504e-07]},{"children":[3],"name":"FrontUpLeg.R","rotation":[0.7056754231452942,-0.7034597396850586,-0.04496978968381882,0.07172371447086334],"translation":[6.878883596073138e-08,0.6025583744049072,-4.528232011580258e-08]},{"children":[4],"name":"FrontLeg.R","rotation":[-2.508792249500402e-07,-2.890676320532748e-08,0.7071067690849304,0.7071067690849304],"translation":[-0.3246806859970093,0.8379973769187927,1.873094081878662]},{"name":"BackLowLeg.R_end","rotation":[1.6763806343078613e-08,1.488757228607085e-09,-2.435640578113407e-10,1],"translation":[2.1811477068922613e-08,2.171189069747925,-1.8175944660470122e-07]},{"children":[6],"name":"BackLowLeg.R","rotation":[-0.3593641221523285,0.018058473244309425,0.006955515127629042,0.9329967498779297],"scale":[1,1,0.9999999403953552],"translation":[-5.587935447692871e-08,1.0874390602111816,2.6263296604156494e-07]},{"children":[7],"name":"BackUpLeg.R","rotation":[-0.6769956350326538,0.668589174747467,-0.2041482776403427,0.23019307851791382],"scale":[1,0.9999997615814209,1.0000001192092896],"translation":[9.3403720313745e-08,0.46958303451538086,1.5261201724570128e-07]},{"children":[8],"name":"BackLeg.R","rotation":[-4.700013391811808e-07,-2.4802884013297444e-07,0.7071067690849304,0.7071067690849304],"translation":[-0.3246806859970093,0.837997317314148,-2.1785271167755127]},{"name":"FrontLowLeg.L_end","rotation":[-1.1175870895385742e-08,-5.095282062939077e-08,5.681067349883051e-08,1],"translation":[-2.1297022811950228e-08,1.5877680778503418,1.6304809946632304e-07]},{"children":[10],"name":"FrontLowLeg.L","rotation":[0.13220730423927307,0.05182737857103348,-0.0069222887977957726,0.9898420572280884],"scale":[0.9999999403953552,0.9999999403953552,0.9999999403953552],"translation":[3.725290298461914e-09,1.4804565906524658,2.9802322387695312e-08]},{"children":[11],"name":"FrontUpLeg.L","rotation":[-0.021431179717183113,-0.0951242446899414,0.7067819833755493,0.7006791234016418],"scale":[1.0000001192092896,1.0000001192092896,1.0000001192092896],"translation":[-1.0993600341180354e-07,0.6025584936141968,-8.015121011339943e-09]},{"children":[12],"name":"FrontLeg.L","rotation":[-0.7071067690849304,-0.7071067690849304,5.781346601452242e-08,2.2197245641564223e-07],"translation":[0.2630481719970703,0.8379973769187927,1.873094081878662]},{"name":"BackLowLeg.L_end","rotation":[-3.725290653733282e-08,-1.731349996703102e-08,1.2816409267202289e-08,1],"translation":[1.0500846769900818e-07,2.1711883544921875,1.0777171155496035e-08]},{"children":[14],"name":"BackLowLeg.L","rotation":[-0.3594152331352234,-0.00886763446033001,-0.003415721235796809,0.9331293702125549],"scale":[1,1,0.9999999403953552],"translation":[5.774199962615967e-08,1.0874391794204712,1.862645149230957e-08]},{"children":[15],"name":"BackUpLeg.L","rotation":[0.21080654859542847,0.2235964685678482,0.6749520897865295,0.6708240509033203],"scale":[0.9999999403953552,0.9999999403953552,1],"translation":[-2.9883324259571964e-08,0.46958303451538086,-6.055216772438143e-08]},{"children":[16],"name":"BackLeg.L","rotation":[-0.7071067690849304,-0.7071067690849304,4.1176397758135863e-07,3.0626614488937776e-07],"translation":[0.2630481719970703,0.837997317314148,-2.1785271167755127]},{"name":"Tail4_end","rotation":[2.2351741790771484e-07,-3.272065507431421e-09,-2.721049163767475e-09,1],"translation":[1.3227552386751995e-09,1.0268243551254272,8.448025567986406e-08]},{"children":[18],"name":"Tail4","rotation":[0.03903919830918312,3.6026513328124565e-08,1.9375539395127817e-08,0.9992376565933228],"scale":[1,1.0000001192092896,1],"translation":[-1.993271325773094e-09,0.699330747127533,1.1311039571637593e-07]},{"children":[19],"name":"Tail3","rotation":[-1.315618813890751e-08,0.9891946315765381,-0.14660848677158356,3.105244843482069e-07],"scale":[1,0.9999998807907104,1.0000001192092896],"translation":[5.679652304024785e-10,0.8778810501098633,1.1542667976982557e-07]},{"children":[20],"name":"Tail2","rotation":[-0.6165581941604614,9.425114910754928e-08,-7.529742873657597e-08,0.7873093485832214],"scale":[1,0.9999999403953552,1],"translation":[1.1726933868416722e-09,0.8375225067138672,3.576278970740532e-07]},{"children":[21],"name":"Tail1","rotation":[-0.6164658069610596,1.467509349595275e-07,-1.8692173853196437e-07,0.7873817086219788],"scale":[1,0.9999999403953552,0.9999999403953552],"translation":[0.011168531142175198,1.1115171909332275,0.04445922374725342]},{"children":[22],"name":"Back","rotation":[-0.14716225862503052,3.5117494689984596e-08,2.3514924407663784e-07,0.989112377166748],"translation":[-0.03228271007537842,1.4074052572250366,-2.402278184890747]},{"name":"Head_end","rotation":[-7.056223694235086e-08,1.825392246246338e-07,3.149034455418587e-08,1],"translation":[-3.166496753692627e-08,1.7753822803497314,-1.4901161193847656e-07]},{"children":[24],"name":"Head","rotation":[-0.624537467956543,-0.197814479470253,0.16660787165164948,0.7369288802146912],"scale":[0.9999999403953552,0.9999998807907104,0.9999998807907104],"translation":[1.5006662579253316e-09,1.3573296070098877,-2.5897742261804524e-07]},{"children":[25],"name":"Neck","rotation":[-0.08868448436260223,-0.02248888649046421,-0.017817644402384758,0.9956464767456055],"scale":[1,1.0000001192092896,1],"translation":[1.7695128917694092e-08,1.3137195110321045,9.208451956510544e-07]},{"children":[26],"name":"Shoulders","rotation":[-0.008421191945672035,-0.9597338438034058,-0.27944204211235046,0.027426157146692276],"translation":[-0.0736546516418457,1.8077162504196167,1.8519929647445679]},{"name":"Torso_end","rotation":[-7.50234221413848e-08,7.24073288438376e-07,-2.2992026060819626e-09,1],"translation":[-1.862645149230957e-09,1.5270235538482666,2.918443442467833e-07]},{"children":[28],"name":"Torso","rotation":[0.05375257879495621,0.000759026559535414,-0.013527121394872665,0.9984623789787292],"scale":[1,0.9999998211860657,0.9999999403953552],"translation":[2.15505746581357e-09,1.4671728610992432,1.8631141074365587e-08]},{"children":[29],"name":"Hips","rotation":[3.4854974728659727e-06,0.694421112537384,0.7195688486099243,3.3636852094787173e-06],"translation":[-0.03228271007537842,1.6898193359375,-1.4742004871368408]},{"children":[5,9,13,17,23,27,30],"name":"Body","translation":[0.005377650260925293,2.3020823001861572,-0.01735416054725647]},{"name":"BackFoot.R_end","translation":[-3.1849833881381073e-09,0.674536943435669,-2.531521658966085e-10]},{"children":[32],"name":"BackFoot.R","rotation":[0.7071067690849304,-6.434409556277387e-07,-6.434409556277387e-07,0.7071067690849304],"translation":[-0.8358624577522278,0.10000348091125488,-2.604720115661621]},{"name":"FrontFoot.L_end","translation":[2.065353221780697e-08,1,-3.5546463550417684e-09]},{"children":[34],"name":"FrontFoot.L","rotation":[0.7071067690849304,-9.806157095226808e-07,-9.806157095226808e-07,0.7071067690849304],"translation":[0.860893964767456,0.10000348091125488,1.927022933959961]},{"name":"BackFoot.L_end","translation":[2.065352511237961e-08,0.674536943435669,-3.2092373203340685e-09]},{"children":[36],"name":"BackFoot.L","rotation":[0.7071067690849304,-9.806157095226808e-07,-9.806157095226808e-07,0.7071067690849304],"translation":[0.7849856615066528,0.10000348091125488,-2.604720115661621]},{"children":[1,31,33,35,37],"name":"root"},{"mesh":0,"name":"Horse","skin":0},{"children":[39,38],"name":"Armature"}],"animations":[{"channels":[{"sampler":0,"target":{"node":38,"path":"translation"}},{"sampler":1,"target":{"node":38,"path":"rotation"}},{"sampler":2,"target":{"node":38,"path":"scale"}},{"sampler":3,"target":{"node":1,"path":"translation"}},{"sampler":4,"target":{"node":1,"path":"rotation"}},{"sampler":5,"target":{"node":1,"path":"scale"}},{"sampler":6,"target":{"node":0,"path":"translation"}},{"sampler":7,"target":{"node":0,"path":"rotation"}},{"sampler":8,"target":{"node":0,"path":"scale"}},{"sampler":9,"target":{"node":31,"path":"translation"}},{"sampler":10,"target":{"node":31,"path":"rotation"}},{"sampler":11,"target":{"node":31,"path":"scale"}},{"sampler":12,"target":{"node":5,"path":"translation"}},{"sampler":13,"target":{"node":5,"path":"rotation"}},{"sampler":14,"target":{"node":5,"path":"scale"}},{"sampler":15,"target":{"node":4,"path":"translation"}},{"sampler":16,"target":{"node":4,"path":"rotation"}},{"sampler":17,"target":{"node":4,"path":"scale"}},{"sampler":18,"target":{"node":3,"path":"translation"}},{"sampler":19,"target":{"node":3,"path":"rotation"}},{"sampler":20,"target":{"node":3,"path":"scale"}},{"sampler":21,"target":{"node":2,"path":"translation"}},{"sampler":22,"target":{"node":2,"path":"rotation"}},{"sampler":23,"target":{"node":2,"path":"scale"}},{"sampler":24,"target":{"node":9,"path":"translation"}},{"sampler":25,"target":{"node":9,"path":"rotation"}},{"sampler":26,"target":{"node":9,"path":"scale"}},{"sampler":27,"target":{"node":8,"path":"translation"}},{"sampler":28,"target":{"node":8,"path":"rotation"}},{"sampler":29,"target":{"node":8,"path":"scale"}},{"sampler":30,"target":{"node":7,"path":"translation"}},{"sampler":31,"target":{"node":7,"path":"rotation"}},{"sampler":32,"target":{"node":7,"path":"scale"}},{"sampler":33,"target":{"node":6,"path":"translation"}},{"sampler":34,"target":{"node":6,"path":"rotation"}},{"sampler":35,"target":{"node":6,"path":"scale"}},{"sampler":36,"target":{"node":13,"path":"translation"}},{"sampler":37,"target":{"node":13,"path":"rotation"}},{"sampler":38,"target":{"node":13,"path":"scale"}},{"sampler":39,"target":{"node":12,"path":"translation"}},{"sampler":40,"target":{"node":12,"path":"rotation"}},{"sampler":41,"target":{"node":12,"path":"scale"}},{"sampler":42,"target":{"node":11,"path":"translation"}},{"sampler":43,"target":{"node":11,"path":"rotation"}},{"sampler":44,"target":{"node":11,"path":"scale"}},{"sampler":45,"target":{"node":10,"path":"translation"}},{"sampler":46,"target":{"node":10,"path":"rotation"}},{"sampler":47,"target":{"node":10,"path":"scale"}},{"sampler":48,"target":{"node":17,"path":"translation"}},{"sampler":49,"target":{"node":17,"path":"rotation"}},{"sampler":50,"target":{"node":17,"path":"scale"}},{"sampler":51,"target":{"node":16,"path":"translation"}},{"sampler":52,"target":{"node":16,"path":"rotation"}},{"sampler":53,"target":{"node":16,"path":"scale"}},{"sampler":54,"target":{"node":15,"path":"translation"}},{"sampler":55,"target":{"node":15,"path":"rotation"}},{"sampler":56,"target":{"node":15,"path":"scale"}},{"sampler":57,"target":{"node":14,"path":"translation"}},{"sampler":58,"target":{"node":14,"path":"rotation"}},{"sampler":59,"target":{"node":14,"path":"scale"}},{"sampler":60,"target":{"node":23,"path":"translation"}},{"sampler":61,"target":{"node":23,"path":"rotation"}},{"sampler":62,"target":{"node":23,"path":"scale"}},{"sampler":63,"target":{"node":22,"path":"translation"}},{"sampler":64,"target":{"node":22,"path":"rotation"}},{"sampler":65,"target":{"node":22,"path":"scale"}},{"sampler":66,"target":{"node":21,"path":"translation"}},{"sampler":67,"target":{"node":21,"path":"rotation"}},{"sampler":68,"target":{"node":21,"path":"scale"}},{"sampler":69,"target":{"node":20,"path":"translation"}},{"sampler":70,"target":{"node":20,"path":"rotation"}},{"sampler":71,"target":{"node":20,"path":"scale"}},{"sampler":72,"target":{"node":19,"path":"translation"}},{"sampler":73,"target":{"node":19,"path":"rotation"}},{"sampler":74,"target":{"node":19,"path":"scale"}},{"sampler":75,"target":{"node":18,"path":"translation"}},{"sampler":76,"target":{"node":18,"path":"rotation"}},{"sampler":77,"target":{"node":18,"path":"scale"}},{"sampler":78,"target":{"node":27,"path":"translation"}},{"sampler":79,"target":{"node":27,"path":"rotation"}},{"sampler":80,"target":{"node":27,"path":"scale"}},{"sampler":81,"target":{"node":26,"path":"translation"}},{"sampler":82,"target":{"node":26,"path":"rotation"}},{"sampler":83,"target":{"node":26,"path":"scale"}},{"sampler":84,"target":{"node":25,"path":"translation"}},{"sampler":85,"target":{"node":25,"path":"rotation"}},{"sampler":86,"target":{"node":25,"path":"scale"}},{"sampler":87,"target":{"node":24,"path":"translation"}},{"sampler":88,"target":{"node":24,"path":"rotation"}},{"sampler":89,"target":{"node":24,"path":"scale"}},{"sampler":90,"target":{"node":30,"path":"translation"}},{"sampler":91,"target":{"node":30,"path":"rotation"}},{"sampler":92,"target":{"node":30,"path":"scale"}},{"sampler":93,"target":{"node":29,"path":"translation"}},{"sampler":94,"target":{"node":29,"path":"rotation"}},{"sampler":95,"target":{"node":29,"path":"scale"}},{"sampler":96,"target":{"node":28,"path":"translation"}},{"sampler":97,"target":{"node":28,"path":"rotation"}},{"sampler":98,"target":{"node":28,"path":"scale"}},{"sampler":99,"target":{"node":33,"path":"translation"}},{"sampler":100,"target":{"node":33,"path":"rotation"}},{"sampler":101,"target":{"node":33,"path":"scale"}},{"sampler":102,"target":{"node":32,"path":"translation"}},{"sampler":103,"target":{"node":32,"path":"rotation"}},{"sampler":104,"target":{"node":32,"path":"scale"}},{"sampler":105,"target":{"node":35,"path":"translation"}},{"sampler":106,"target":{"node":35,"path":"rotation"}},{"sampler":107,"target":{"node":35,"path":"scale"}},{"sampler":108,"target":{"node":34,"path":"translation"}},{"sampler":109,"target":{"node":34,"path":"rotation"}},{"sampler":110,"target":{"node":34,"path":"scale"}},{"sampler":111,"target":{"node":37,"path":"translation"}},{"sampler":112,"target":{"node":37,"path":"rotation"}},{"sampler":113,"target":{"node":37,"path":"scale"}},{"sampler":114,"target":{"node":36,"path":"translation"}},{"sampler":115,"target":{"node":36,"path":"rotation"}},{"sampler":116,"target":{"node":36,"path":"scale"}},{"sampler":117,"target":{"node":40,"path":"translation"}},{"sampler":118,"target":{"node":40,"path":"rotation"}},{"sampler":119,"target":{"node":40,"path":"scale"}}],"name":"Armature|Armature|Death","samplers":[{"input":15,"interpolation":"STEP","output":16},{"input":15,"interpolation":"STEP","output":17},{"input":15,"interpolation":"STEP","output":18},{"input":19,"interpolation":"LINEAR","output":20},{"input":19,"interpolation":"LINEAR","output":21},{"input":15,"interpolation":"STEP","output":22},{"input":15,"interpolation":"STEP","output":23},{"input":15,"interpolation":"STEP","output":24},{"input":15,"interpolation":"STEP","output":25},{"input":19,"interpolation":"LINEAR","output":26},{"input":19,"interpolation":"LINEAR","output":27},{"input":15,"interpolation":"LINEAR","output":28},{"input":15,"interpolation":"LINEAR","output":29},{"input":19,"interpolation":"LINEAR","output":30},{"input":15,"interpolation":"LINEAR","output":31},{"input":15,"interpolation":"LINEAR","output":32},{"input":19,"interpolation":"LINEAR","output":33},{"input":15,"interpolation":"LINEAR","output":34},{"input":15,"interpolation":"LINEAR","output":35},{"input":19,"interpolation":"LINEAR","output":36},{"input":15,"interpolation":"LINEAR","output":37},{"input":15,"interpolation":"STEP","output":38},{"input":15,"interpolation":"STEP","output":39},{"input":15,"interpolation":"STEP","output":40},{"input":15,"interpolation":"LINEAR","output":41},{"input":19,"interpolation":"LINEAR","output":42},{"input":15,"interpolation":"LINEAR","output":43},{"input":15,"interpolation":"LINEAR","output":44},{"input":19,"interpolation":"LINEAR","output":45},{"input":15,"interpolation":"LINEAR","output":46},{"input":15,"interpolation":"LINEAR","output":47},{"input":19,"interpolation":"LINEAR","output":48},{"input":15,"interpolation":"LINEAR","output":49},{"input":15,"interpolation":"STEP","output":50},{"input":15,"interpolation":"STEP","output":51},{"input":15,"interpolation":"STEP","output":52},{"input":15,"interpolation":"LINEAR","output":53},{"input":19,"interpolation":"LINEAR","output":54},{"input":15,"interpolation":"LINEAR","output":55},{"input":15,"interpolation":"LINEAR","output":56},{"input":19,"interpolation":"LINEAR","output":57},{"input":15,"interpolation":"LINEAR","output":58},{"input":15,"interpolation":"LINEAR","output":59},{"input":19,"interpolation":"LINEAR","output":60},{"input":15,"interpolation":"LINEAR","output":61},{"input":15,"interpolation":"STEP","output":62},{"input":15,"interpolation":"STEP","output":63},{"input":15,"interpolation":"STEP","output":64},{"input":15,"interpolation":"LINEAR","output":65},{"input":19,"interpolation":"LINEAR","output":66},{"input":15,"interpolation":"LINEAR","output":67},{"input":15,"interpolation":"LINEAR","output":68},{"input":19,"interpolation":"LINEAR","output":69},{"input":15,"interpolation":"STEP","output":70},{"input":15,"interpolation":"LINEAR","output":71},{"input":19,"interpolation":"LINEAR","output":72},{"input":15,"interpolation":"LINEAR","output":73},{"input":15,"interpolation":"STEP","output":74},{"input":15,"interpolation":"STEP","output":75},{"input":15,"interpolation":"STEP","output":76},{"input":19,"interpolation":"LINEAR","output":77},{"input":15,"interpolation":"LINEAR","output":78},{"input":15,"interpolation":"LINEAR","output":79},{"input":15,"interpolation":"LINEAR","output":80},{"input":15,"interpolation":"LINEAR","output":81},{"input":15,"interpolation":"STEP","output":82},{"input":15,"interpolation":"LINEAR","output":83},{"input":19,"interpolation":"LINEAR","output":84},{"input":15,"interpolation":"LINEAR","output":85},{"input":15,"interpolation":"LINEAR","output":86},{"input":19,"interpolation":"LINEAR","output":87},{"input":15,"interpolation":"LINEAR","output":88},{"input":15,"interpolation":"LINEAR","output":89},{"input":19,"interpolation":"LINEAR","output":90},{"input":15,"interpolation":"LINEAR","output":91},{"input":15,"interpolation":"STEP","output":92},{"input":15,"interpolation":"STEP","output":93},{"input":15,"interpolation":"STEP","output":94},{"input":19,"interpolation":"LINEAR","output":95},{"input":19,"interpolation":"LINEAR","output":96},{"input":15,"interpolation":"LINEAR","output":97},{"input":15,"interpolation":"LINEAR","output":98},{"input":19,"interpolation":"LINEAR","output":99},{"input":15,"interpolation":"LINEAR","output":100},{"input":15,"interpolation":"LINEAR","output":101},{"input":19,"interpolation":"LINEAR","output":102},{"input":15,"interpolation":"STEP","output":103},{"input":15,"interpolation":"STEP","output":104},{"input":15,"interpolation":"STEP","output":105},{"input":15,"interpolation":"STEP","output":106},{"input":19,"interpolation":"LINEAR","output":107},{"input":15,"interpolation":"LINEAR","output":108},{"input":15,"interpolation":"LINEAR","output":109},{"input":15,"interpolation":"LINEAR","output":110},{"input":15,"interpolation":"LINEAR","output":111},{"input":15,"interpolation":"LINEAR","output":112},{"input":15,"interpolation":"STEP","output":113},{"input":15,"interpolation":"STEP","output":114},{"input":15,"interpolation":"STEP","output":115},{"input":19,"interpolation":"LINEAR","output":116},{"input":19,"interpolation":"LINEAR","output":117},{"input":15,"interpolation":"STEP","output":118},{"input":15,"interpolation":"STEP","output":119},{"input":15,"interpolation":"STEP","output":120},{"input":15,"interpolation":"STEP","output":121},{"input":19,"interpolation":"LINEAR","output":122},{"input":19,"interpolation":"LINEAR","output":123},{"input":15,"interpolation":"STEP","output":124},{"input":15,"interpolation":"STEP","output":125},{"input":15,"interpolation":"STEP","output":126},{"input":15,"interpolation":"STEP","output":127},{"input":19,"interpolation":"LINEAR","output":128},{"input":19,"interpolation":"LINEAR","output":129},{"input":15,"interpolation":"STEP","output":130},{"input":15,"interpolation":"STEP","output":131},{"input":15,"interpolation":"STEP","output":132},{"input":15,"interpolation":"STEP","output":133},{"input":15,"interpolation":"STEP","output":134},{"input":15,"interpolation":"STEP","output":135},{"input":15,"interpolation":"STEP","output":136}]},{"channels":[{"sampler":0,"target":{"node":38,"path":"translation"}},{"sampler":1,"target":{"node":38,"path":"rotation"}},{"sampler":2,"target":{"node":38,"path":"scale"}},{"sampler":3,"target":{"node":1,"path":"translation"}},{"sampler":4,"target":{"node":1,"path":"rotation"}},{"sampler":5,"target":{"node":1,"path":"scale"}},{"sampler":6,"target":{"node":0,"path":"translation"}},{"sampler":7,"target":{"node":0,"path":"rotation"}},{"sampler":8,"target":{"node":0,"path":"scale"}},{"sampler":9,"target":{"node":31,"path":"translation"}},{"sampler":10,"target":{"node":31,"path":"rotation"}},{"sampler":11,"target":{"node":31,"path":"scale"}},{"sampler":12,"target":{"node":5,"path":"translation"}},{"sampler":13,"target":{"node":5,"path":"rotation"}},{"sampler":14,"target":{"node":5,"path":"scale"}},{"sampler":15,"target":{"node":4,"path":"translation"}},{"sampler":16,"target":{"node":4,"path":"rotation"}},{"sampler":17,"target":{"node":4,"path":"scale"}},{"sampler":18,"target":{"node":3,"path":"translation"}},{"sampler":19,"target":{"node":3,"path":"rotation"}},{"sampler":20,"target":{"node":3,"path":"scale"}},{"sampler":21,"target":{"node":2,"path":"translation"}},{"sampler":22,"target":{"node":2,"path":"rotation"}},{"sampler":23,"target":{"node":2,"path":"scale"}},{"sampler":24,"target":{"node":9,"path":"translation"}},{"sampler":25,"target":{"node":9,"path":"rotation"}},{"sampler":26,"target":{"node":9,"path":"scale"}},{"sampler":27,"target":{"node":8,"path":"translation"}},{"sampler":28,"target":{"node":8,"path":"rotation"}},{"sampler":29,"target":{"node":8,"path":"scale"}},{"sampler":30,"target":{"node":7,"path":"translation"}},{"sampler":31,"target":{"node":7,"path":"rotation"}},{"sampler":32,"target":{"node":7,"path":"scale"}},{"sampler":33,"target":{"node":6,"path":"translation"}},{"sampler":34,"target":{"node":6,"path":"rotation"}},{"sampler":35,"target":{"node":6,"path":"scale"}},{"sampler":36,"target":{"node":13,"path":"translation"}},{"sampler":37,"target":{"node":13,"path":"rotation"}},{"sampler":38,"target":{"node":13,"path":"scale"}},{"sampler":39,"target":{"node":12,"path":"translation"}},{"sampler":40,"target":{"node":12,"path":"rotation"}},{"sampler":41,"target":{"node":12,"path":"scale"}},{"sampler":42,"target":{"node":11,"path":"translation"}},{"sampler":43,"target":{"node":11,"path":"rotation"}},{"sampler":44,"target":{"node":11,"path":"scale"}},{"sampler":45,"target":{"node":10,"path":"translation"}},{"sampler":46,"target":{"node":10,"path":"rotation"}},{"sampler":47,"target":{"node":10,"path":"scale"}},{"sampler":48,"target":{"node":17,"path":"translation"}},{"sampler":49,"target":{"node":17,"path":"rotation"}},{"sampler":50,"target":{"node":17,"path":"scale"}},{"sampler":51,"target":{"node":16,"path":"translation"}},{"sampler":52,"target":{"node":16,"path":"rotation"}},{"sampler":53,"target":{"node":16,"path":"scale"}},{"sampler":54,"target":{"node":15,"path":"translation"}},{"sampler":55,"target":{"node":15,"path":"rotation"}},{"sampler":56,"target":{"node":15,"path":"scale"}},{"sampler":57,"target":{"node":14,"path":"translation"}},{"sampler":58,"target":{"node":14,"path":"rotation"}},{"sampler":59,"target":{"node":14,"path":"scale"}},{"sampler":60,"target":{"node":23,"path":"translation"}},{"sampler":61,"target":{"node":23,"path":"rotation"}},{"sampler":62,"target":{"node":23,"path":"scale"}},{"sampler":63,"target":{"node":22,"path":"translation"}},{"sampler":64,"target":{"node":22,"path":"rotation"}},{"sampler":65,"target":{"node":22,"path":"scale"}},{"sampler":66,"target":{"node":21,"path":"translation"}},{"sampler":67,"target":{"node":21,"path":"rotation"}},{"sampler":68,"target":{"node":21,"path":"scale"}},{"sampler":69,"target":{"node":20,"path":"translation"}},{"sampler":70,"target":{"node":20,"path":"rotation"}},{"sampler":71,"target":{"node":20,"path":"scale"}},{"sampler":72,"target":{"node":19,"path":"translation"}},{"sampler":73,"target":{"node":19,"path":"rotation"}},{"sampler":74,"target":{"node":19,"path":"scale"}},{"sampler":75,"target":{"node":18,"path":"translation"}},{"sampler":76,"target":{"node":18,"path":"rotation"}},{"sampler":77,"target":{"node":18,"path":"scale"}},{"sampler":78,"target":{"node":27,"path":"translation"}},{"sampler":79,"target":{"node":27,"path":"rotation"}},{"sampler":80,"target":{"node":27,"path":"scale"}},{"sampler":81,"target":{"node":26,"path":"translation"}},{"sampler":82,"target":{"node":26,"path":"rotation"}},{"sampler":83,"target":{"node":26,"path":"scale"}},{"sampler":84,"target":{"node":25,"path":"translation"}},{"sampler":85,"target":{"node":25,"path":"rotation"}},{"sampler":86,"target":{"node":25,"path":"scale"}},{"sampler":87,"target":{"node":24,"path":"translation"}},{"sampler":88,"target":{"node":24,"path":"rotation"}},{"sampler":89,"target":{"node":24,"path":"scale"}},{"sampler":90,"target":{"node":30,"path":"translation"}},{"sampler":91,"target":{"node":30,"path":"rotation"}},{"sampler":92,"target":{"node":30,"path":"scale"}},{"sampler":93,"target":{"node":29,"path":"translation"}},{"sampler":94,"target":{"node":29,"path":"rotation"}},{"sampler":95,"target":{"node":29,"path":"scale"}},{"sampler":96,"target":{"node":28,"path":"translation"}},{"sampler":97,"target":{"node":28,"path":"rotation"}},{"sampler":98,"target":{"node":28,"path":"scale"}},{"sampler":99,"target":{"node":33,"path":"translation"}},{"sampler":100,"target":{"node":33,"path":"rotation"}},{"sampler":101,"target":{"node":33,"path":"scale"}},{"sampler":102,"target":{"node":32,"path":"translation"}},{"sampler":103,"target":{"node":32,"path":"rotation"}},{"sampler":104,"target":{"node":32,"path":"scale"}},{"sampler":105,"target":{"node":35,"path":"translation"}},{"sampler":106,"target":{"node":35,"path":"rotation"}},{"sampler":107,"target":{"node":35,"path":"scale"}},{"sampler":108,"target":{"node":34,"path":"translation"}},{"sampler":109,"target":{"node":34,"path":"rotation"}},{"sampler":110,"target":{"node":34,"path":"scale"}},{"sampler":111,"target":{"node":37,"path":"translation"}},{"sampler":112,"target":{"node":37,"path":"rotation"}},{"sampler":113,"target":{"node":37,"path":"scale"}},{"sampler":114,"target":{"node":36,"path":"translation"}},{"sampler":115,"target":{"node":36,"path":"rotation"}},{"sampler":116,"target":{"node":36,"path":"scale"}},{"sampler":117,"target":{"node":40,"path":"translation"}},{"sampler":118,"target":{"node":40,"path":"rotation"}},{"sampler":119,"target":{"node":40,"path":"scale"}}],"name":"Idle","samplers":[{"input":137,"interpolation":"STEP","output":138},{"input":137,"interpolation":"STEP","output":139},{"input":137,"interpolation":"STEP","output":140},{"input":137,"interpolation":"STEP","output":141},{"input":137,"interpolation":"STEP","output":142},{"input":137,"interpolation":"STEP","output":143},{"input":137,"interpolation":"STEP","output":144},{"input":137,"interpolation":"STEP","output":145},{"input":137,"interpolation":"STEP","output":146},{"input":147,"interpolation":"LINEAR","output":148},{"input":137,"interpolation":"STEP","output":149},{"input":137,"interpolation":"STEP","output":150},{"input":137,"interpolation":"STEP","output":151},{"input":147,"interpolation":"LINEAR","output":152},{"input":137,"interpolation":"STEP","output":153},{"input":137,"interpolation":"STEP","output":154},{"input":137,"interpolation":"STEP","output":155},{"input":137,"interpolation":"STEP","output":156},{"input":137,"interpolation":"STEP","output":157},{"input":147,"interpolation":"LINEAR","output":158},{"input":137,"interpolation":"STEP","output":159},{"input":137,"interpolation":"STEP","output":160},{"input":137,"interpolation":"STEP","output":161},{"input":137,"interpolation":"STEP","output":162},{"input":137,"interpolation":"STEP","output":163},{"input":147,"interpolation":"LINEAR","output":164},{"input":137,"interpolation":"STEP","output":165},{"input":137,"interpolation":"STEP","output":166},{"input":137,"interpolation":"STEP","output":167},{"input":137,"interpolation":"STEP","output":168},{"input":137,"interpolation":"STEP","output":169},{"input":147,"interpolation":"LINEAR","output":170},{"input":137,"interpolation":"STEP","output":171},{"input":137,"interpolation":"STEP","output":172},{"input":137,"interpolation":"STEP","output":173},{"input":137,"interpolation":"STEP","output":174},{"input":137,"interpolation":"STEP","output":175},{"input":147,"interpolation":"LINEAR","output":176},{"input":137,"interpolation":"STEP","output":177},{"input":137,"interpolation":"STEP","output":178},{"input":137,"interpolation":"STEP","output":179},{"input":137,"interpolation":"STEP","output":180},{"input":137,"interpolation":"STEP","output":181},{"input":147,"interpolation":"LINEAR","output":182},{"input":137,"interpolation":"STEP","output":183},{"input":137,"interpolation":"STEP","output":184},{"input":137,"interpolation":"STEP","output":185},{"input":137,"interpolation":"STEP","output":186},{"input":137,"interpolation":"STEP","output":187},{"input":147,"interpolation":"LINEAR","output":188},{"input":137,"interpolation":"STEP","output":189},{"input":137,"interpolation":"STEP","output":190},{"input":137,"interpolation":"STEP","output":191},{"input":137,"interpolation":"STEP","output":192},{"input":137,"interpolation":"STEP","output":193},{"input":147,"interpolation":"LINEAR","output":194},{"input":137,"interpolation":"STEP","output":195},{"input":137,"interpolation":"STEP","output":196},{"input":137,"interpolation":"STEP","output":197},{"input":137,"interpolation":"STEP","output":198},{"input":137,"interpolation":"STEP","output":199},{"input":137,"interpolation":"STEP","output":200},{"input":137,"interpolation":"STEP","output":201},{"input":137,"interpolation":"STEP","output":202},{"input":137,"interpolation":"STEP","output":203},{"input":137,"interpolation":"STEP","output":204},{"input":137,"interpolation":"STEP","output":205},{"input":137,"interpolation":"STEP","output":206},{"input":137,"interpolation":"STEP","output":207},{"input":137,"interpolation":"STEP","output":208},{"input":147,"interpolation":"LINEAR","output":209},{"input":137,"interpolation":"STEP","output":210},{"input":137,"interpolation":"STEP","output":211},{"input":147,"interpolation":"LINEAR","output":212},{"input":137,"interpolation":"STEP","output":213},{"input":137,"interpolation":"STEP","output":214},{"input":137,"interpolation":"STEP","output":215},{"input":137,"interpolation":"STEP","output":216},{"input":137,"interpolation":"STEP","output":217},{"input":137,"interpolation":"STEP","output":218},{"input":137,"interpolation":"STEP","output":219},{"input":137,"interpolation":"STEP","output":220},{"input":147,"interpolation":"LINEAR","output":221},{"input":137,"interpolation":"STEP","output":222},{"input":137,"interpolation":"STEP","output":223},{"input":147,"interpolation":"LINEAR","output":224},{"input":137,"interpolation":"STEP","output":225},{"input":137,"interpolation":"STEP","output":226},{"input":137,"interpolation":"STEP","output":227},{"input":137,"interpolation":"STEP","output":228},{"input":137,"interpolation":"STEP","output":229},{"input":137,"interpolation":"STEP","output":230},{"input":137,"interpolation":"STEP","output":231},{"input":137,"interpolation":"STEP","output":232},{"input":137,"interpolation":"STEP","output":233},{"input":137,"interpolation":"STEP","output":234},{"input":137,"interpolation":"STEP","output":235},{"input":137,"interpolation":"STEP","output":236},{"input":137,"interpolation":"STEP","output":237},{"input":137,"interpolation":"STEP","output":238},{"input":137,"interpolation":"STEP","output":239},{"input":137,"interpolation":"STEP","output":240},{"input":137,"interpolation":"STEP","output":241},{"input":137,"interpolation":"STEP","output":242},{"input":137,"interpolation":"STEP","output":243},{"input":137,"interpolation":"STEP","output":244},{"input":137,"interpolation":"STEP","output":245},{"input":137,"interpolation":"STEP","output":246},{"input":137,"interpolation":"STEP","output":247},{"input":137,"interpolation":"STEP","output":248},{"input":137,"interpolation":"STEP","output":249},{"input":137,"interpolation":"STEP","output":250},{"input":137,"interpolation":"STEP","output":251},{"input":137,"interpolation":"STEP","output":252},{"input":137,"interpolation":"STEP","output":253},{"input":137,"interpolation":"STEP","output":254},{"input":137,"interpolation":"STEP","output":255},{"input":137,"interpolation":"STEP","output":256},{"input":137,"interpolation":"STEP","output":257},{"input":137,"interpolation":"STEP","output":258}]}],"materials":[{"alphaMode":"MASK","doubleSided":true,"name":"Material.003","pbrMetallicRoughness":{"baseColorFactor":[0.17464742064476013,0.07421357929706573,0.046665091067552567,0],"metallicFactor":0,"roughnessFactor":0.690034806728363}},{"alphaMode":"MASK","doubleSided":true,"name":"Material.006","pbrMetallicRoughness":{"baseColorFactor":[0.020378729328513145,0.020378729328513145,0.020378729328513145,0],"metallicFactor":0,"roughnessFactor":0.690034806728363}}],"meshes":[{"name":"Cylinder","primitives":[{"attributes":{"POSITION":0,"NORMAL":1,"COLOR_0":2,"COLOR_1":3,"JOINTS_0":4,"WEIGHTS_0":5},"indices":6,"material":0},{"attributes":{"POSITION":7,"NORMAL":8,"COLOR_0":9,"COLOR_1":10,"JOINTS_0":11,"WEIGHTS_0":12},"indices":13,"material":1}]}],"skins":[{"inverseBindMatrices":14,"joints":[38,1,0,31,5,4,3,2,9,8,7,6,13,12,11,10,17,16,15,14,23,22,21,20,19,18,27,26,25,24,30,29,28,33,32,35,34,37,36],"name":"Armature"}],"accessors":[{"bufferView":0,"componentType":5126,"count":1044,"max":[1.2848868370056152,6.923783779144287,5.050253391265869],"min":[-1.2848868370056152,0.2771146297454834,-3.089182138442993],"type":"VEC3"},{"bufferView":1,"componentType":5126,"count":1044,"type":"VEC3"},{"bufferView":2,"componentType":5121,"count":1044,"normalized":true,"type":"VEC4"},{"bufferView":3,"componentType":5126,"count":1044,"type":"VEC3"},{"bufferView":4,"componentType":5121,"count":1044,"type":"VEC4"},{"bufferView":5,"componentType":5126,"count":1044,"type":"VEC4"},{"bufferView":6,"componentType":5123,"count":1512,"type":"SCALAR"},{"bufferView":7,"componentType":5126,"count":354,"max":[1.1249477863311768,6.9150872230529785,5.116978645324707],"min":[-1.1249477863311768,0.01846027933061123,-4.11815881729126],"type":"VEC3"},{"bufferView":8,"componentType":5126,"count":354,"type":"VEC3"},{"bufferView":9,"componentType":5121,"count":354,"normalized":true,"type":"VEC4"},{"bufferView":10,"componentType":5126,"count":354,"type":"VEC3"},{"bufferView":11,"componentType":5121,"count":354,"type":"VEC4"},{"bufferView":12,"componentType":5126,"count":354,"type":"VEC4"},{"bufferView":13,"componentType":5123,"count":558,"type":"SCALAR"},{"bufferView":14,"componentType":5126,"count":39,"type":"MAT4"},{"bufferView":15,"componentType":5126,"count":2,"max":[1.125],"min":[0.041666666666666664],"type":"SCALAR"},{"bufferView":16,"componentType":5126,"count":2,"type":"VEC3"},{"bufferView":17,"componentType":5126,"count":2,"type":"VEC4"},{"bufferView":18,"componentType":5126,"count":2,"type":"VEC3"},{"bufferView":19,"componentType":5126,"count":27,"max":[1.125],"min":[0.041666666666666664],"type":"SCALAR"},{"bufferView":20,"componentType":5126,"count":27,"type":"VEC3"},{"bufferView":21,"componentType":5126,"count":27,"type":"VEC4"},{"bufferView":22,"componentType":5126,"count":2,"type":"VEC3"},{"bufferView":23,"componentType":5126,"count":2,"type":"VEC3"},{"bufferView":24,"componentType":5126,"count":2,"type":"VEC4"},{"bufferView":25,"componentType":5126,"count":2,"type":"VEC3"},{"bufferView":26,"componentType":5126,"count":27,"type":"VEC3"},{"bufferView":27,"componentType":5126,"count":27,"type":"VEC4"},{"bufferView":28,"componentType":5126,"count":2,"type":"VEC3"},{"bufferView":29,"componentType":5126,"count":2,"type":"VEC3"},{"bufferView":30,"componentType":5126,"count":27,"type":"VEC4"},{"bufferView":31,"componentType":5126,"count":2,"type":"VEC3"},{"bufferView":32,"componentType":5126,"count":2,"type":"VEC3"},{"bufferView":33,"componentType":5126,"count":27,"type":"VEC4"},{"bufferView":34,"componentType":5126,"count":2,"type":"VEC3"},{"bufferView":35,"componentType":5126,"count":2,"type":"VEC3"},{"bufferView":36,"componentType":5126,"count":27,"type":"VEC4"},{"bufferView":37,"componentType":5126,"count":2,"type":"VEC3"},{"bufferView":38,"componentType":5126,"count":2,"type":"VEC3"},{"bufferView":39,"componentType":5126,"count":2,"type":"VEC4"},{"bufferView":40,"componentType":5126,"count":2,"type":"VEC3"},{"bufferView":41,"componentType":5126,"count":2,"type":"VEC3"},{"bufferView":42,"componentType":5126,"count":27,"type":"VEC4"},{"bufferView":43,"componentType":5126,"count":2,"type":"VEC3"},{"bufferView":44,"componentType":5126,"count":2,"type":"VEC3"},{"bufferView":45,"componentType":5126,"count":27,"type":"VEC4"},{"bufferView":46,"componentType":5126,"count":2,"type":"VEC3"},{"bufferView":47,"componentType":5126,"count":2,"type":"VEC3"},{"bufferView":48,"componentType":5126,"count":27,"type":"VEC4"},{"bufferView":49,"componentType":5126,"count":2,"type":"VEC3"},{"bufferView":50,"componentType":5126,"count":2,"type":"VEC3"},{"bufferView":51,"componentType":5126,"count":2,"type":"VEC4"},{"bufferView":52,"componentType":5126,"count":2,"type":"VEC3"},{"bufferView":53,"componentType":5126,"count":2,"type":"VEC3"},{"bufferView":54,"componentType":5126,"count":27,"type":"VEC4"},{"bufferView":55,"componentType":5126,"count":2,"type":"VEC3"},{"bufferView":56,"componentType":5126,"count":2,"type":"VEC3"},{"bufferView":57,"componentType":5126,"count":27,"type":"VEC4"},{"bufferView":58,"componentType":5126,"count":2,"type":"VEC3"},{"bufferView":59,"componentType":5126,"count":2,"type":"VEC3"},{"bufferView":60,"componentType":5126,"count":27,"type":"VEC4"},{"bufferView":61,"componentType":5126,"count":2,"type":"VEC3"},{"bufferView":62,"componentType":5126,"count":2,"type":"VEC3"},{"bufferView":63,"componentType":5126,"count":2,"type":"VEC4"},{"bufferView":64,"componentType":5126,"count":2,"type":"VEC3"},{"bufferView":65,"componentType":5126,"count":2,"type":"VEC3"},{"bufferView":66,"componentType":5126,"count":27,"type":"VEC4"},{"bufferView":67,"componentType":5126,"count":2,"type":"VEC3"},{"bufferView":68,"componentType":5126,"count":2,"type":"VEC3"},{"bufferView":69,"componentType":5126,"count":27,"type":"VEC4"},{"bufferView":70,"componentType":5126,"count":2,"type":"VEC3"},{"bufferView":71,"componentType":5126,"count":2,"type":"VEC3"},{"bufferView":72,"componentType":5126,"count":27,"type":"VEC4"},{"bufferView":73,"componentType":5126,"count":2,"type":"VEC3"},{"bufferView":74,"componentType":5126,"count":2,"type":"VEC3"},{"bufferView":75,"componentType":5126,"count":2,"type":"VEC4"},{"bufferView":76,"componentType":5126,"count":2,"type":"VEC3"},{"bufferView":77,"componentType":5126,"count":27,"type":"VEC3"},{"bufferView":78,"componentType":5126,"count":2,"type":"VEC4"},{"bufferView":79,"componentType":5126,"count":2,"type":"VEC3"},{"bufferView":80,"componentType":5126,"count":2,"type":"VEC3"},{"bufferView":81,"componentType":5126,"count":2,"type":"VEC4"},{"bufferView":82,"componentType":5126,"count":2,"type":"VEC3"},{"bufferView":83,"componentType":5126,"count":2,"type":"VEC3"},{"bufferView":84,"componentType":5126,"count":27,"type":"VEC4"},{"bufferView":85,"componentType":5126,"count":2,"type":"VEC3"},{"bufferView":86,"componentType":5126,"count":2,"type":"VEC3"},{"bufferView":87,"componentType":5126,"count":27,"type":"VEC4"},{"bufferView":88,"componentType":5126,"count":2,"type":"VEC3"},{"bufferView":89,"componentType":5126,"count":2,"type":"VEC3"},{"bufferView":90,"componentType":5126,"count":27,"type":"VEC4"},{"bufferView":91,"componentType":5126,"count":2,"type":"VEC3"},{"bufferView":92,"componentType":5126,"count":2,"type":"VEC3"},{"bufferView":93,"componentType":5126,"count":2,"type":"VEC4"},{"bufferView":94,"componentType":5126,"count":2,"type":"VEC3"},{"bufferView":95,"componentType":5126,"count":27,"type":"VEC3"},{"bufferView":96,"componentType":5126,"count":27,"type":"VEC4"},{"bufferView":97,"componentType":5126,"count":2,"type":"VEC3"},{"bufferView":98,"componentType":5126,"count":2,"type":"VEC3"},{"bufferView":99,"componentType":5126,"count":27,"type":"VEC4"},{"bufferView":100,"componentType":5126,"count":2,"type":"VEC3"},{"bufferView":101,"componentType":5126,"count":2,"type":"VEC3"},{"bufferView":102,"componentType":5126,"count":27,"type":"VEC4"},{"bufferView":103,"componentType":5126,"count":2,"type":"VEC3"},{"bufferView":104,"componentType":5126,"count":2,"type":"VEC3"},{"bufferView":105,"componentType":5126,"count":2,"type":"VEC4"},{"bufferView":106,"componentType":5126,"count":2,"type":"VEC3"},{"bufferView":107,"componentType":5126,"count":27,"type":"VEC3"},{"bufferView":108,"componentType":5126,"count":2,"type":"VEC4"},{"bufferView":109,"componentType":5126,"count":2,"type":"VEC3"},{"bufferView":110,"componentType":5126,"count":2,"type":"VEC3"},{"bufferView":111,"componentType":5126,"count":2,"type":"VEC4"},{"bufferView":112,"componentType":5126,"count":2,"type":"VEC3"},{"bufferView":113,"componentType":5126,"count":2,"type":"VEC3"},{"bufferView":114,"componentType":5126,"count":2,"type":"VEC4"},{"bufferView":115,"componentType":5126,"count":2,"type":"VEC3"},{"bufferView":116,"componentType":5126,"count":27,"type":"VEC3"},{"bufferView":117,"componentType":5126,"count":27,"type":"VEC4"},{"bufferView":118,"componentType":5126,"count":2,"type":"VEC3"},{"bufferView":119,"componentType":5126,"count":2,"type":"VEC3"},{"bufferView":120,"componentType":5126,"count":2,"type":"VEC4"},{"bufferView":121,"componentType":5126,"count":2,"type":"VEC3"},{"bufferView":122,"componentType":5126,"count":27,"type":"VEC3"},{"bufferView":123,"componentType":5126,"count":27,"type":"VEC4"},{"bufferView":124,"componentType":5126,"count":2,"type":"VEC3"},{"bufferView":125,"componentType":5126,"count":2,"type":"VEC3"},{"bufferView":126,"componentType":5126,"count":2,"type":"VEC4"},{"bufferView":127,"componentType":5126,"count":2,"type":"VEC3"},{"bufferView":128,"componentType":5126,"count":27,"type":"VEC3"},{"bufferView":129,"componentType":5126,"count":27,"type":"VEC4"},{"bufferView":130,"componentType":5126,"count":2,"type":"VEC3"},{"bufferView":131,"componentType":5126,"count":2,"type":"VEC3"},{"bufferView":132,"componentType":5126,"count":2,"type":"VEC4"},{"bufferView":133,"componentType":5126,"count":2,"type":"VEC3"},{"bufferView":134,"componentType":5126,"count":2,"type":"VEC3"},{"bufferView":135,"componentType":5126,"count":2,"type":"VEC4"},{"bufferView":136,"componentType":5126,"count":2,"type":"VEC3"},{"bufferView":137,"componentType":5126,"count":2,"max":[6.291666666666667],"min":[0.041666666666666664],"type":"SCALAR"},{"bufferView":138,"componentType":5126,"count":2,"type":"VEC3"},{"bufferView":139,"componentType":5126,"count":2,"type":"VEC4"},{"bufferView":140,"componentType":5126,"count":2,"type":"VEC3"},{"bufferView":141,"componentType":5126,"count":2,"type":"VEC3"},{"bufferView":142,"componentType":5126,"count":2,"type":"VEC4"},{"bufferView":143,"componentType":5126,"count":2,"type":"VEC3"},{"bufferView":144,"componentType":5126,"count":2,"type":"VEC3"},{"bufferView":145,"componentType":5126,"count":2,"type":"VEC4"},{"bufferView":146,"componentType":5126,"count":2,"type":"VEC3"},{"bufferView":147,"componentType":5126,"count":151,"max":[6.291666666666667],"min":[0.041666666666666664],"type":"SCALAR"},{"bufferView":148,"componentType":5126,"count":151,"type":"VEC3"},{"bufferView":149,"componentType":5126,"count":2,"type":"VEC4"},{"bufferView":150,"componentType":5126,"count":2,"type":"VEC3"},{"bufferView":151,"componentType":5126,"count":2,"type":"VEC3"},{"bufferView":152,"componentType":5126,"count":151,"type":"VEC4"},{"bufferView":153,"componentType":5126,"count":2,"type":"VEC3"},{"bufferView":154,"componentType":5126,"count":2,"type":"VEC3"},{"bufferView":155,"componentType":5126,"count":2,"type":"VEC4"},{"bufferView":156,"componentType":5126,"count":2,"type":"VEC3"},{"bufferView":157,"componentType":5126,"count":2,"type":"VEC3"},{"bufferView":158,"componentType":5126,"count":151,"type":"VEC4"},{"bufferView":159,"componentType":5126,"count":2,"type":"VEC3"},{"bufferView":160,"componentType":5126,"count":2,"type":"VEC3"},{"bufferView":161,"componentType":5126,"count":2,"type":"VEC4"},{"bufferView":162,"componentType":5126,"count":2,"type":"VEC3"},{"bufferView":163,"componentType":5126,"count":2,"type":"VEC3"},{"bufferView":164,"componentType":5126,"count":151,"type":"VEC4"},{"bufferView":165,"componentType":5126,"count":2,"type":"VEC3"},{"bufferView":166,"componentType":5126,"count":2,"type":"VEC3"},{"bufferView":167,"componentType":5126,"count":2,"type":"VEC4"},{"bufferView":168,"componentType":5126,"count":2,"type":"VEC3"},{"bufferView":169,"componentType":5126,"count":2,"type":"VEC3"},{"bufferView":170,"componentType":5126,"count":151,"type":"VEC4"},{"bufferView":171,"componentType":5126,"count":2,"type":"VEC3"},{"bufferView":172,"componentType":5126,"count":2,"type":"VEC3"},{"bufferView":173,"componentType":5126,"count":2,"type":"VEC4"},{"bufferView":174,"componentType":5126,"count":2,"type":"VEC3"},{"bufferView":175,"componentType":5126,"count":2,"type":"VEC3"},{"bufferView":176,"componentType":5126,"count":151,"type":"VEC4"},{"bufferView":177,"componentType":5126,"count":2,"type":"VEC3"},{"bufferView":178,"componentType":5126,"count":2,"type":"VEC3"},{"bufferView":179,"componentType":5126,"count":2,"type":"VEC4"},{"bufferView":180,"componentType":5126,"count":2,"type":"VEC3"},{"bufferView":181,"componentType":5126,"count":2,"type":"VEC3"},{"bufferView":182,"componentType":5126,"count":151,"type":"VEC4"},{"bufferView":183,"componentType":5126,"count":2,"type":"VEC3"},{"bufferView":184,"componentType":5126,"count":2,"type":"VEC3"},{"bufferView":185,"componentType":5126,"count":2,"type":"VEC4"},{"bufferView":186,"componentType":5126,"count":2,"type":"VEC3"},{"bufferView":187,"componentType":5126,"count":2,"type":"VEC3"},{"bufferView":188,"componentType":5126,"count":151,"type":"VEC4"},{"bufferView":189,"componentType":5126,"count":2,"type":"VEC3"},{"bufferView":190,"componentType":5126,"count":2,"type":"VEC3"},{"bufferView":191,"componentType":5126,"count":2,"type":"VEC4"},{"bufferView":192,"componentType":5126,"count":2,"type":"VEC3"},{"bufferView":193,"componentType":5126,"count":2,"type":"VEC3"},{"bufferView":194,"componentType":5126,"count":151,"type":"VEC4"},{"bufferView":195,"componentType":5126,"count":2,"type":"VEC3"},{"bufferView":196,"componentType":5126,"count":2,"type":"VEC3"},{"bufferView":197,"componentType":5126,"count":2,"type":"VEC4"},{"bufferView":198,"componentType":5126,"count":2,"type":"VEC3"},{"bufferView":199,"componentType":5126,"count":2,"type":"VEC3"},{"bufferView":200,"componentType":5126,"count":2,"type":"VEC4"},{"bufferView":201,"componentType":5126,"count":2,"type":"VEC3"},{"bufferView":202,"componentType":5126,"count":2,"type":"VEC3"},{"bufferView":203,"componentType":5126,"count":2,"type":"VEC4"},{"bufferView":204,"componentType":5126,"count":2,"type":"VEC3"},{"bufferView":205,"componentType":5126,"count":2,"type":"VEC3"},{"bufferView":206,"componentType":5126,"count":2,"type":"VEC4"},{"bufferView":207,"componentType":5126,"count":2,"type":"VEC3"},{"bufferView":208,"componentType":5126,"count":2,"type":"VEC3"},{"bufferView":209,"componentType":5126,"count":151,"type":"VEC4"},{"bufferView":210,"componentType":5126,"count":2,"type":"VEC3"},{"bufferView":211,"componentType":5126,"count":2,"type":"VEC3"},{"bufferView":212,"componentType":5126,"count":151,"type":"VEC4"},{"bufferView":213,"componentType":5126,"count":2,"type":"VEC3"},{"bufferView":214,"componentType":5126,"count":2,"type":"VEC3"},{"bufferView":215,"componentType":5126,"count":2,"type":"VEC4"},{"bufferView":216,"componentType":5126,"count":2,"type":"VEC3"},{"bufferView":217,"componentType":5126,"count":2,"type":"VEC3"},{"bufferView":218,"componentType":5126,"count":2,"type":"VEC4"},{"bufferView":219,"componentType":5126,"count":2,"type":"VEC3"},{"bufferView":220,"componentType":5126,"count":2,"type":"VEC3"},{"bufferView":221,"componentType":5126,"count":151,"type":"VEC4"},{"bufferView":222,"componentType":5126,"count":2,"type":"VEC3"},{"bufferView":223,"componentType":5126,"count":2,"type":"VEC3"},{"bufferView":224,"componentType":5126,"count":151,"type":"VEC4"},{"bufferView":225,"componentType":5126,"count":2,"type":"VEC3"},{"bufferView":226,"componentType":5126,"count":2,"type":"VEC3"},{"bufferView":227,"componentType":5126,"count":2,"type":"VEC4"},{"bufferView":228,"componentType":5126,"count":2,"type":"VEC3"},{"bufferView":229,"componentType":5126,"count":2,"type":"VEC3"},{"bufferView":230,"componentType":5126,"count":2,"type":"VEC4"},{"bufferView":231,"componentType":5126,"count":2,"type":"VEC3"},{"bufferView":232,"componentType":5126,"count":2,"type":"VEC3"},{"bufferView":233,"componentType":5126,"count":2,"type":"VEC4"},{"bufferView":234,"componentType":5126,"count":2,"type":"VEC3"},{"bufferView":235,"componentType":5126,"count":2,"type":"VEC3"},{"bufferView":236,"componentType":5126,"count":2,"type":"VEC4"},{"bufferView":237,"componentType":5126,"count":2,"type":"VEC3"},{"bufferView":238,"componentType":5126,"count":2,"type":"VEC3"},{"bufferView":239,"componentType":5126,"count":2,"type":"VEC4"},{"bufferView":240,"componentType":5126,"count":2,"type":"VEC3"},{"bufferView":241,"componentType":5126,"count":2,"type":"VEC3"},{"bufferView":242,"componentType":5126,"count":2,"type":"VEC4"},{"bufferView":243,"componentType":5126,"count":2,"type":"VEC3"},{"bufferView":244,"componentType":5126,"count":2,"type":"VEC3"},{"bufferView":245,"componentType":5126,"count":2,"type":"VEC4"},{"bufferView":246,"componentType":5126,"count":2,"type":"VEC3"},{"bufferView":247,"componentType":5126,"count":2,"type":"VEC3"},{"bufferView":248,"componentType":5126,"count":2,"type":"VEC4"},{"bufferView":249,"componentType":5126,"count":2,"type":"VEC3"},{"bufferView":250,"componentType":5126,"count":2,"type":"VEC3"},{"bufferView":251,"componentType":5126,"count":2,"type":"VEC4"},{"bufferView":252,"componentType":5126,"count":2,"type":"VEC3"},{"bufferView":253,"componentType":5126,"count":2,"type":"VEC3"},{"bufferView":254,"componentType":5126,"count":2,"type":"VEC4"},{"bufferView":255,"componentType":5126,"count":2,"type":"VEC3"},{"bufferView":256,"componentType":5126,"count":2,"type":"VEC3"},{"bufferView":257,"componentType":5126,"count":2,"type":"VEC4"},{"bufferView":258,"componentType":5126,"count":2,"type":"VEC3"}],"bufferViews":[{"buffer":0,"byteLength":12528,"byteOffset":0,"target":34962},{"buffer":0,"byteLength":12528,"byteOffset":12528,"target":34962},{"buffer":0,"byteLength":4176,"byteOffset":25056,"target":34962},{"buffer":0,"byteLength":12528,"byteOffset":29232,"target":34962},{"buffer":0,"byteLength":4176,"byteOffset":41760,"target":34962},{"buffer":0,"byteLength":16704,"byteOffset":45936,"target":34962},{"buffer":0,"byteLength":3024,"byteOffset":62640,"target":34963},{"buffer":0,"byteLength":4248,"byteOffset":65664,"target":34962},{"buffer":0,"byteLength":4248,"byteOffset":69912,"target":34962},{"buffer":0,"byteLength":1416,"byteOffset":74160,"target":34962},{"buffer":0,"byteLength":4248,"byteOffset":75576,"target":34962},{"buffer":0,"byteLength":1416,"byteOffset":79824,"target":34962},{"buffer":0,"byteLength":5664,"byteOffset":81240,"target":34962},{"buffer":0,"byteLength":1116,"byteOffset":86904,"target":34963},{"buffer":0,"byteLength":2496,"byteOffset":88020},{"buffer":0,"byteLength":8,"byteOffset":90516},{"buffer":0,"byteLength":24,"byteOffset":90524},{"buffer":0,"byteLength":32,"byteOffset":90548},{"buffer":0,"byteLength":24,"byteOffset":90580},{"buffer":0,"byteLength":108,"byteOffset":90604},{"buffer":0,"byteLength":324,"byteOffset":90712},{"buffer":0,"byteLength":432,"byteOffset":91036},{"buffer":0,"byteLength":24,"byteOffset":91468},{"buffer":0,"byteLength":24,"byteOffset":91492},{"buffer":0,"byteLength":32,"byteOffset":91516},{"buffer":0,"byteLength":24,"byteOffset":91548},{"buffer":0,"byteLength":324,"byteOffset":91572},{"buffer":0,"byteLength":432,"byteOffset":91896},{"buffer":0,"byteLength":24,"byteOffset":92328},{"buffer":0,"byteLength":24,"byteOffset":92352},{"buffer":0,"byteLength":432,"byteOffset":92376},{"buffer":0,"byteLength":24,"byteOffset":92808},{"buffer":0,"byteLength":24,"byteOffset":92832},{"buffer":0,"byteLength":432,"byteOffset":92856},{"buffer":0,"byteLength":24,"byteOffset":93288},{"buffer":0,"byteLength":24,"byteOffset":93312},{"buffer":0,"byteLength":432,"byteOffset":93336},{"buffer":0,"byteLength":24,"byteOffset":93768},{"buffer":0,"byteLength":24,"byteOffset":93792},{"buffer":0,"byteLength":32,"byteOffset":93816},{"buffer":0,"byteLength":24,"byteOffset":93848},{"buffer":0,"byteLength":24,"byteOffset":93872},{"buffer":0,"byteLength":432,"byteOffset":93896},{"buffer":0,"byteLength":24,"byteOffset":94328},{"buffer":0,"byteLength":24,"byteOffset":94352},{"buffer":0,"byteLength":432,"byteOffset":94376},{"buffer":0,"byteLength":24,"byteOffset":94808},{"buffer":0,"byteLength":24,"byteOffset":94832},{"buffer":0,"byteLength":432,"byteOffset":94856},{"buffer":0,"byteLength":24,"byteOffset":95288},{"buffer":0,"byteLength":24,"byteOffset":95312},{"buffer":0,"byteLength":32,"byteOffset":95336},{"buffer":0,"byteLength":24,"byteOffset":95368},{"buffer":0,"byteLength":24,"byteOffset":95392},{"buffer":0,"byteLength":432,"byteOffset":95416},{"buffer":0,"byteLength":24,"byteOffset":95848},{"buffer":0,"byteLength":24,"byteOffset":95872},{"buffer":0,"byteLength":432,"byteOffset":95896},{"buffer":0,"byteLength":24,"byteOffset":96328},{"buffer":0,"byteLength":24,"byteOffset":96352},{"buffer":0,"byteLength":432,"byteOffset":96376},{"buffer":0,"byteLength":24,"byteOffset":96808},{"buffer":0,"byteLength":24,"byteOffset":96832},{"buffer":0,"byteLength":32,"byteOffset":96856},{"buffer":0,"byteLength":24,"byteOffset":96888},{"buffer":0,"byteLength":24,"byteOffset":96912},{"buffer":0,"byteLength":432,"byteOffset":96936},{"buffer":0,"byteLength":24,"byteOffset":97368},{"buffer":0,"byteLength":24,"byteOffset":97392},{"buffer":0,"byteLength":432,"byteOffset":97416},{"buffer":0,"byteLength":24,"byteOffset":97848},{"buffer":0,"byteLength":24,"byteOffset":97872},{"buffer":0,"byteLength":432,"byteOffset":97896},{"buffer":0,"byteLength":24,"byteOffset":98328},{"buffer":0,"byteLength":24,"byteOffset":98352},{"buffer":0,"byteLength":32,"byteOffset":98376},{"buffer":0,"byteLength":24,"byteOffset":98408},{"buffer":0,"byteLength":324,"byteOffset":98432},{"buffer":0,"byteLength":32,"byteOffset":98756},{"buffer":0,"byteLength":24,"byteOffset":98788},{"buffer":0,"byteLength":24,"byteOffset":98812},{"buffer":0,"byteLength":32,"byteOffset":98836},{"buffer":0,"byteLength":24,"byteOffset":98868},{"buffer":0,"byteLength":24,"byteOffset":98892},{"buffer":0,"byteLength":432,"byteOffset":98916},{"buffer":0,"byteLength":24,"byteOffset":99348},{"buffer":0,"byteLength":24,"byteOffset":99372},{"buffer":0,"byteLength":432,"byteOffset":99396},{"buffer":0,"byteLength":24,"byteOffset":99828},{"buffer":0,"byteLength":24,"byteOffset":99852},{"buffer":0,"byteLength":432,"byteOffset":99876},{"buffer":0,"byteLength":24,"byteOffset":100308},{"buffer":0,"byteLength":24,"byteOffset":100332},{"buffer":0,"byteLength":32,"byteOffset":100356},{"buffer":0,"byteLength":24,"byteOffset":100388},{"buffer":0,"byteLength":324,"byteOffset":100412},{"buffer":0,"byteLength":432,"byteOffset":100736},{"buffer":0,"byteLength":24,"byteOffset":101168},{"buffer":0,"byteLength":24,"byteOffset":101192},{"buffer":0,"byteLength":432,"byteOffset":101216},{"buffer":0,"byteLength":24,"byteOffset":101648},{"buffer":0,"byteLength":24,"byteOffset":101672},{"buffer":0,"byteLength":432,"byteOffset":101696},{"buffer":0,"byteLength":24,"byteOffset":102128},{"buffer":0,"byteLength":24,"byteOffset":102152},{"buffer":0,"byteLength":32,"byteOffset":102176},{"buffer":0,"byteLength":24,"byteOffset":102208},{"buffer":0,"byteLength":324,"byteOffset":102232},{"buffer":0,"byteLength":32,"byteOffset":102556},{"buffer":0,"byteLength":24,"byteOffset":102588},{"buffer":0,"byteLength":24,"byteOffset":102612},{"buffer":0,"byteLength":32,"byteOffset":102636},{"buffer":0,"byteLength":24,"byteOffset":102668},{"buffer":0,"byteLength":24,"byteOffset":102692},{"buffer":0,"byteLength":32,"byteOffset":102716},{"buffer":0,"byteLength":24,"byteOffset":102748},{"buffer":0,"byteLength":324,"byteOffset":102772},{"buffer":0,"byteLength":432,"byteOffset":103096},{"buffer":0,"byteLength":24,"byteOffset":103528},{"buffer":0,"byteLength":24,"byteOffset":103552},{"buffer":0,"byteLength":32,"byteOffset":103576},{"buffer":0,"byteLength":24,"byteOffset":103608},{"buffer":0,"byteLength":324,"byteOffset":103632},{"buffer":0,"byteLength":432,"byteOffset":103956},{"buffer":0,"byteLength":24,"byteOffset":104388},{"buffer":0,"byteLength":24,"byteOffset":104412},{"buffer":0,"byteLength":32,"byteOffset":104436},{"buffer":0,"byteLength":24,"byteOffset":104468},{"buffer":0,"byteLength":324,"byteOffset":104492},{"buffer":0,"byteLength":432,"byteOffset":104816},{"buffer":0,"byteLength":24,"byteOffset":105248},{"buffer":0,"byteLength":24,"byteOffset":105272},{"buffer":0,"byteLength":32,"byteOffset":105296},{"buffer":0,"byteLength":24,"byteOffset":105328},{"buffer":0,"byteLength":24,"byteOffset":105352},{"buffer":0,"byteLength":32,"byteOffset":105376},{"buffer":0,"byteLength":24,"byteOffset":105408},{"buffer":0,"byteLength":8,"byteOffset":105432},{"buffer":0,"byteLength":24,"byteOffset":105440},{"buffer":0,"byteLength":32,"byteOffset":105464},{"buffer":0,"byteLength":24,"byteOffset":105496},{"buffer":0,"byteLength":24,"byteOffset":105520},{"buffer":0,"byteLength":32,"byteOffset":105544},{"buffer":0,"byteLength":24,"byteOffset":105576},{"buffer":0,"byteLength":24,"byteOffset":105600},{"buffer":0,"byteLength":32,"byteOffset":105624},{"buffer":0,"byteLength":24,"byteOffset":105656},{"buffer":0,"byteLength":604,"byteOffset":105680},{"buffer":0,"byteLength":1812,"byteOffset":106284},{"buffer":0,"byteLength":32,"byteOffset":108096},{"buffer":0,"byteLength":24,"byteOffset":108128},{"buffer":0,"byteLength":24,"byteOffset":108152},{"buffer":0,"byteLength":2416,"byteOffset":108176},{"buffer":0,"byteLength":24,"byteOffset":110592},{"buffer":0,"byteLength":24,"byteOffset":110616},{"buffer":0,"byteLength":32,"byteOffset":110640},{"buffer":0,"byteLength":24,"byteOffset":110672},{"buffer":0,"byteLength":24,"byteOffset":110696},{"buffer":0,"byteLength":2416,"byteOffset":110720},{"buffer":0,"byteLength":24,"byteOffset":113136},{"buffer":0,"byteLength":24,"byteOffset":113160},{"buffer":0,"byteLength":32,"byteOffset":113184},{"buffer":0,"byteLength":24,"byteOffset":113216},{"buffer":0,"byteLength":24,"byteOffset":113240},{"buffer":0,"byteLength":2416,"byteOffset":113264},{"buffer":0,"byteLength":24,"byteOffset":115680},{"buffer":0,"byteLength":24,"byteOffset":115704},{"buffer":0,"byteLength":32,"byteOffset":115728},{"buffer":0,"byteLength":24,"byteOffset":115760},{"buffer":0,"byteLength":24,"byteOffset":115784},{"buffer":0,"byteLength":2416,"byteOffset":115808},{"buffer":0,"byteLength":24,"byteOffset":118224},{"buffer":0,"byteLength":24,"byteOffset":118248},{"buffer":0,"byteLength":32,"byteOffset":118272},{"buffer":0,"byteLength":24,"byteOffset":118304},{"buffer":0,"byteLength":24,"byteOffset":118328},{"buffer":0,"byteLength":2416,"byteOffset":118352},{"buffer":0,"byteLength":24,"byteOffset":120768},{"buffer":0,"byteLength":24,"byteOffset":120792},{"buffer":0,"byteLength":32,"byteOffset":120816},{"buffer":0,"byteLength":24,"byteOffset":120848},{"buffer":0,"byteLength":24,"byteOffset":120872},{"buffer":0,"byteLength":2416,"byteOffset":120896},{"buffer":0,"byteLength":24,"byteOffset":123312},{"buffer":0,"byteLength":24,"byteOffset":123336},{"buffer":0,"byteLength":32,"byteOffset":123360},{"buffer":0,"byteLength":24,"byteOffset":123392},{"buffer":0,"byteLength":24,"byteOffset":123416},{"buffer":0,"byteLength":2416,"byteOffset":123440},{"buffer":0,"byteLength":24,"byteOffset":125856},{"buffer":0,"byteLength":24,"byteOffset":125880},{"buffer":0,"byteLength":32,"byteOffset":125904},{"buffer":0,"byteLength":24,"byteOffset":125936},{"buffer":0,"byteLength":24,"byteOffset":125960},{"buffer":0,"byteLength":2416,"byteOffset":125984},{"buffer":0,"byteLength":24,"byteOffset":128400},{"buffer":0,"byteLength":24,"byteOffset":128424},{"buffer":0,"byteLength":32,"byteOffset":128448},{"buffer":0,"byteLength":24,"byteOffset":128480},{"buffer":0,"byteLength":24,"byteOffset":128504},{"buffer":0,"byteLength":32,"byteOffset":128528},{"buffer":0,"byteLength":24,"byteOffset":128560},{"buffer":0,"byteLength":24,"byteOffset":128584},{"buffer":0,"byteLength":32,"byteOffset":128608},{"buffer":0,"byteLength":24,"byteOffset":128640},{"buffer":0,"byteLength":24,"byteOffset":128664},{"buffer":0,"byteLength":32,"byteOffset":128688},{"buffer":0,"byteLength":24,"byteOffset":128720},{"buffer":0,"byteLength":24,"byteOffset":128744},{"buffer":0,"byteLength":2416,"byteOffset":128768},{"buffer":0,"byteLength":24,"byteOffset":131184},{"buffer":0,"byteLength":24,"byteOffset":131208},{"buffer":0,"byteLength":2416,"byteOffset":131232},{"buffer":0,"byteLength":24,"byteOffset":133648},{"buffer":0,"byteLength":24,"byteOffset":133672},{"buffer":0,"byteLength":32,"byteOffset":133696},{"buffer":0,"byteLength":24,"byteOffset":133728},{"buffer":0,"byteLength":24,"byteOffset":133752},{"buffer":0,"byteLength":32,"byteOffset":133776},{"buffer":0,"byteLength":24,"byteOffset":133808},{"buffer":0,"byteLength":24,"byteOffset":133832},{"buffer":0,"byteLength":2416,"byteOffset":133856},{"buffer":0,"byteLength":24,"byteOffset":136272},{"buffer":0,"byteLength":24,"byteOffset":136296},{"buffer":0,"byteLength":2416,"byteOffset":136320},{"buffer":0,"byteLength":24,"byteOffset":138736},{"buffer":0,"byteLength":24,"byteOffset":138760},{"buffer":0,"byteLength":32,"byteOffset":138784},{"buffer":0,"byteLength":24,"byteOffset":138816},{"buffer":0,"byteLength":24,"byteOffset":138840},{"buffer":0,"byteLength":32,"byteOffset":138864},{"buffer":0,"byteLength":24,"byteOffset":138896},{"buffer":0,"byteLength":24,"byteOffset":138920},{"buffer":0,"byteLength":32,"byteOffset":138944},{"buffer":0,"byteLength":24,"byteOffset":138976},{"buffer":0,"byteLength":24,"byteOffset":139000},{"buffer":0,"byteLength":32,"byteOffset":139024},{"buffer":0,"byteLength":24,"byteOffset":139056},{"buffer":0,"byteLength":24,"byteOffset":139080},{"buffer":0,"byteLength":32,"byteOffset":139104},{"buffer":0,"byteLength":24,"byteOffset":139136},{"buffer":0,"byteLength":24,"byteOffset":139160},{"buffer":0,"byteLength":32,"byteOffset":139184},{"buffer":0,"byteLength":24,"byteOffset":139216},{"buffer":0,"byteLength":24,"byteOffset":139240},{"buffer":0,"byteLength":32,"byteOffset":139264},{"buffer":0,"byteLength":24,"byteOffset":139296},{"buffer":0,"byteLength":24,"byteOffset":139320},{"buffer":0,"byteLength":32,"byteOffset":139344},{"buffer":0,"byteLength":24,"byteOffset":139376},{"buffer":0,"byteLength":24,"byteOffset":139400},{"buffer":0,"byteLength":32,"byteOffset":139424},{"buffer":0,"byteLength":24,"byteOffset":139456},{"buffer":0,"byteLength":24,"byteOffset":139480},{"buffer":0,"byteLength":32,"byteOffset":139504},{"buffer":0,"byteLength":24,"byteOffset":139536},{"buffer":0,"byteLength":24,"byteOffset":139560},{"buffer":0,"byteLength":32,"byteOffset":139584},{"buffer":0,"byteLength":24,"byteOffset":139616}],"buffers":[{"byteLength":139640,"uri":"data:application/octet-stream;base64,"}]}