{"asset":{"generator":"Khronos glTF Blender I/O v4.2.57","version":"2.0"},"scene":0,"scenes":[{"name":"Scene","nodes":[36]}],"nodes":[{"name":"FrontFoot.R_end","translation":[-2.2444998748483158e-08,0.7783251404762268,3.293138206572621e-09]},{"children":[0],"name":"FrontFoot.R","rotation":[0.7071067690849304,-6.434409556277387e-07,-6.434409556277387e-07,0.7071067690849304],"translation":[-0.6222583055496216,0.07783520221710205,0.9798282980918884]},{"name":"FrontLowLeg.R_end","rotation":[2.60770320892334e-08,2.3190271924988792e-09,8.366837292981578e-15,1],"translation":[-6.50008615821207e-08,1.2357996702194214,3.540120019351889e-08]},{"children":[2],"name":"FrontLowLeg.R","rotation":[0.13236448168754578,-0.018815569579601288,0.0025130894500762224,0.9910193085670471],"scale":[1,0.9999998807907104,0.9999999403953552],"translation":[-2.7008354663848877e-08,1.1522760391235352,1.0617077350616455e-07]},{"children":[3],"name":"FrontUpLeg.R","rotation":[0.7056753635406494,-0.7034597992897034,-0.04496980458498001,0.07172371447086334],"scale":[1,1,1.0000001192092896],"translation":[3.607433995966858e-08,0.40957149863243103,-2.2405615140996815e-08]},{"children":[4],"name":"FrontLeg.R","rotation":[-2.13890984923637e-07,8.081519453639885e-09,0.7071067690849304,0.7071067690849304],"translation":[-0.2237308770418167,0.6522346138954163,0.9378540515899658]},{"name":"BackLowLeg.R_end","rotation":[-8.568167686462402e-08,3.014181615412781e-08,-2.4214402927213996e-08,1],"translation":[-2.0371842879285396e-08,1.2990374565124512,3.115982138979234e-08]},{"children":[6],"name":"BackLowLeg.R","rotation":[-0.23119568824768066,0.018827173858880997,0.004474846180528402,0.9727148413658142],"scale":[0.9999999403953552,0.9999999403953552,0.9999999403953552],"translation":[-4.284083843231201e-08,1.1416393518447876,2.421438694000244e-08]},{"children":[7],"name":"BackUpLeg.R","rotation":[-0.6994131207466125,0.6948640942573547,-0.10402451455593109,0.1310117542743683],"scale":[1,1.0000003576278687,1],"translation":[8.297687514868812e-08,0.36548808217048645,-2.1943151295999996e-08]},{"children":[8],"name":"BackLeg.R","rotation":[-4.5693613515140896e-07,-2.34963565048929e-07,0.7071067690849304,0.7071067690849304],"translation":[-0.2527070939540863,0.6522344946861267,-1.160507321357727]},{"name":"FrontLowLeg.L_end","rotation":[-1.1175865566315224e-08,1.945398508951257e-08,-2.6077040971017595e-08,1],"translation":[3.17834114582638e-08,1.2357996702194214,-6.585922562862834e-08]},{"children":[10],"name":"FrontLowLeg.L","rotation":[0.1322072148323059,0.051827237010002136,-0.006922202184796333,0.9898420572280884],"scale":[0.9999998807907104,0.9999998807907104,0.9999998211860657],"translation":[2.7939677238464355e-08,1.1522761583328247,-1.30385160446167e-07]},{"children":[11],"name":"FrontUpLeg.L","rotation":[-0.02143094502389431,-0.09512403607368469,0.7067819833755493,0.7006792426109314],"scale":[1,1.0000001192092896,0.9999999403953552],"translation":[-4.1642916670525665e-08,0.4095717668533325,-1.8006346635957016e-08]},{"children":[12],"name":"FrontLeg.L","rotation":[-0.7071067690849304,-0.7071067690849304,1.5242426343320403e-07,5.338508302088485e-08],"translation":[0.17576079070568085,0.6522346138954163,0.9378540515899658]},{"name":"BackLowLeg.L_end","rotation":[-5.21540464148984e-08,8.030697529193276e-08,-6.752090087047691e-08,1],"scale":[1,1.0000001192092896,1.0000001192092896],"translation":[-4.946928200411094e-08,1.2990379333496094,-6.615834990952862e-08]},{"children":[14],"name":"BackLowLeg.L","rotation":[-0.23122848570346832,-0.009245186112821102,-0.0021973908878862858,0.9728530645370483],"scale":[0.9999998807907104,1,0.9999998807907104],"translation":[-3.259629011154175e-08,1.141640067100525,-2.421438694000244e-08]},{"children":[15],"name":"BackUpLeg.L","rotation":[0.11090831458568573,0.1241610199213028,0.6983546614646912,0.6961207985877991],"scale":[1.0000001192092896,1,1],"translation":[4.313807266953518e-08,0.36548829078674316,6.33962713436631e-08]},{"children":[16],"name":"BackLeg.L","rotation":[-0.7071067690849304,-0.7071067690849304,3.0133946893329266e-07,3.90559847573968e-07],"translation":[0.20473696291446686,0.6522344946861267,-1.160507321357727]},{"name":"Back_end","rotation":[2.9802322387695312e-08,-6.288303211476887e-13,5.068781020454473e-14,1],"scale":[1,0.9999998807907104,1],"translation":[-6.208011882335995e-10,0.8820924758911133,8.43374152736942e-08]},{"children":[18],"name":"Back","rotation":[0.6196354627609253,3.742634646641818e-07,2.95464360533515e-07,0.7848897576332092],"translation":[-0.025126436725258827,1.0954188108444214,-1.8697530031204224]},{"name":"Head_end","rotation":[-7.4069248512387276e-09,2.8312206268310547e-07,-8.847564458847046e-09,1],"translation":[-5.550682544708252e-07,1.1751561164855957,-6.835907697677612e-07]},{"children":[20],"name":"Head","rotation":[-0.7651086449623108,-0.15866664052009583,0.20435945689678192,0.5896362662315369],"scale":[0.9999999403953552,1,1],"translation":[-4.901585270999931e-08,1.2807111740112305,-1.630646977446304e-07]},{"children":[21],"name":"Neck","rotation":[0.009341664612293243,-0.02987664006650448,-0.01718812808394432,0.9993621706962585],"scale":[0.9999998807907104,0.9999998807907104,1],"translation":[3.3527612686157227e-08,0.9223301410675049,3.0978117138147354e-07]},{"children":[22],"name":"Shoulders","rotation":[-0.014027793891727924,-0.9931137561798096,-0.11196984350681305,0.03148203343153],"scale":[0.9999999403953552,0.9999997019767761,1],"translation":[-0.057327255606651306,1.4069905281066895,1.4414525032043457]},{"name":"Torso_end","rotation":[-4.470692260838405e-09,5.474521813653155e-08,-4.3037289287894964e-09,1],"scale":[1,1,0.9999999403953552],"translation":[9.313225746154785e-10,1.1885206699371338,-3.652498890005518e-07]},{"children":[24],"name":"Torso","rotation":[0.04866956174373627,0.0006791799096390605,-0.01353128906339407,0.998723030090332],"scale":[0.9999999403953552,0.9999999403953552,1],"translation":[1.0742751577197396e-08,1.005881905555725,1.1605864074226702e-06]},{"children":[25],"name":"Hips","rotation":[3.4683316698647104e-06,0.6980746984481812,0.7160249352455139,3.3813828395068413e-06],"translation":[-0.025126436725258827,1.3001559972763062,-1.011749267578125]},{"children":[5,9,13,17,19,23,26],"name":"Body","scale":[1,0.9999999403953552,1],"translation":[0.00418555922806263,1.791767954826355,-0.0135071761906147]},{"name":"BackFoot.R_end","translation":[-2.2445007630267355e-08,0.5250089168548584,5.233857791608898e-10]},{"children":[28],"name":"BackFoot.R","rotation":[0.7071067690849304,-6.434409556277387e-07,-6.434409556277387e-07,0.7071067690849304],"translation":[-0.650572657585144,0.07783520221710205,-1.3867123126983643]},{"name":"FrontFoot.L_end","translation":[2.2534846877420023e-08,0.7783251404762268,4.02891942030692e-09]},{"children":[30],"name":"FrontFoot.L","rotation":[0.7071067690849304,-9.806157095226808e-07,-9.806157095226808e-07,0.7071067690849304],"translation":[0.5826594829559326,0.07783520221710205,0.9798282980918884]},{"name":"BackFoot.L_end","translation":[2.2534843324706344e-08,0.5250089168548584,-2.1439348074636655e-09]},{"children":[32],"name":"BackFoot.L","rotation":[0.7071067690849304,-9.806157095226808e-07,-9.806157095226808e-07,0.7071067690849304],"translation":[0.6109739542007446,0.07783520221710205,-1.3867123126983643]},{"children":[1,27,29,31,33],"name":"root"},{"mesh":0,"name":"Llama","skin":0},{"children":[35,34],"name":"Armature"}],"animations":[{"channels":[{"sampler":0,"target":{"node":34,"path":"translation"}},{"sampler":1,"target":{"node":34,"path":"rotation"}},{"sampler":2,"target":{"node":34,"path":"scale"}},{"sampler":3,"target":{"node":1,"path":"translation"}},{"sampler":4,"target":{"node":1,"path":"rotation"}},{"sampler":5,"target":{"node":1,"path":"scale"}},{"sampler":6,"target":{"node":0,"path":"translation"}},{"sampler":7,"target":{"node":0,"path":"rotation"}},{"sampler":8,"target":{"node":0,"path":"scale"}},{"sampler":9,"target":{"node":27,"path":"translation"}},{"sampler":10,"target":{"node":27,"path":"rotation"}},{"sampler":11,"target":{"node":27,"path":"scale"}},{"sampler":12,"target":{"node":5,"path":"translation"}},{"sampler":13,"target":{"node":5,"path":"rotation"}},{"sampler":14,"target":{"node":5,"path":"scale"}},{"sampler":15,"target":{"node":4,"path":"translation"}},{"sampler":16,"target":{"node":4,"path":"rotation"}},{"sampler":17,"target":{"node":4,"path":"scale"}},{"sampler":18,"target":{"node":3,"path":"translation"}},{"sampler":19,"target":{"node":3,"path":"rotation"}},{"sampler":20,"target":{"node":3,"path":"scale"}},{"sampler":21,"target":{"node":2,"path":"translation"}},{"sampler":22,"target":{"node":2,"path":"rotation"}},{"sampler":23,"target":{"node":2,"path":"scale"}},{"sampler":24,"target":{"node":9,"path":"translation"}},{"sampler":25,"target":{"node":9,"path":"rotation"}},{"sampler":26,"target":{"node":9,"path":"scale"}},{"sampler":27,"target":{"node":8,"path":"translation"}},{"sampler":28,"target":{"node":8,"path":"rotation"}},{"sampler":29,"target":{"node":8,"path":"scale"}},{"sampler":30,"target":{"node":7,"path":"translation"}},{"sampler":31,"target":{"node":7,"path":"rotation"}},{"sampler":32,"target":{"node":7,"path":"scale"}},{"sampler":33,"target":{"node":6,"path":"translation"}},{"sampler":34,"target":{"node":6,"path":"rotation"}},{"sampler":35,"target":{"node":6,"path":"scale"}},{"sampler":36,"target":{"node":13,"path":"translation"}},{"sampler":37,"target":{"node":13,"path":"rotation"}},{"sampler":38,"target":{"node":13,"path":"scale"}},{"sampler":39,"target":{"node":12,"path":"translation"}},{"sampler":40,"target":{"node":12,"path":"rotation"}},{"sampler":41,"target":{"node":12,"path":"scale"}},{"sampler":42,"target":{"node":11,"path":"translation"}},{"sampler":43,"target":{"node":11,"path":"rotation"}},{"sampler":44,"target":{"node":11,"path":"scale"}},{"sampler":45,"target":{"node":10,"path":"translation"}},{"sampler":46,"target":{"node":10,"path":"rotation"}},{"sampler":47,"target":{"node":10,"path":"scale"}},{"sampler":48,"target":{"node":17,"path":"translation"}},{"sampler":49,"target":{"node":17,"path":"rotation"}},{"sampler":50,"target":{"node":17,"path":"scale"}},{"sampler":51,"target":{"node":16,"path":"translation"}},{"sampler":52,"target":{"node":16,"path":"rotation"}},{"sampler":53,"target":{"node":16,"path":"scale"}},{"sampler":54,"target":{"node":15,"path":"translation"}},{"sampler":55,"target":{"node":15,"path":"rotation"}},{"sampler":56,"target":{"node":15,"path":"scale"}},{"sampler":57,"target":{"node":14,"path":"translation"}},{"sampler":58,"target":{"node":14,"path":"rotation"}},{"sampler":59,"target":{"node":14,"path":"scale"}},{"sampler":60,"target":{"node":19,"path":"translation"}},{"sampler":61,"target":{"node":19,"path":"rotation"}},{"sampler":62,"target":{"node":19,"path":"scale"}},{"sampler":63,"target":{"node":18,"path":"translation"}},{"sampler":64,"target":{"node":18,"path":"rotation"}},{"sampler":65,"target":{"node":18,"path":"scale"}},{"sampler":66,"target":{"node":23,"path":"translation"}},{"sampler":67,"target":{"node":23,"path":"rotation"}},{"sampler":68,"target":{"node":23,"path":"scale"}},{"sampler":69,"target":{"node":22,"path":"translation"}},{"sampler":70,"target":{"node":22,"path":"rotation"}},{"sampler":71,"target":{"node":22,"path":"scale"}},{"sampler":72,"target":{"node":21,"path":"translation"}},{"sampler":73,"target":{"node":21,"path":"rotation"}},{"sampler":74,"target":{"node":21,"path":"scale"}},{"sampler":75,"target":{"node":20,"path":"translation"}},{"sampler":76,"target":{"node":20,"path":"rotation"}},{"sampler":77,"target":{"node":20,"path":"scale"}},{"sampler":78,"target":{"node":26,"path":"translation"}},{"sampler":79,"target":{"node":26,"path":"rotation"}},{"sampler":80,"target":{"node":26,"path":"scale"}},{"sampler":81,"target":{"node":25,"path":"translation"}},{"sampler":82,"target":{"node":25,"path":"rotation"}},{"sampler":83,"target":{"node":25,"path":"scale"}},{"sampler":84,"target":{"node":24,"path":"translation"}},{"sampler":85,"target":{"node":24,"path":"rotation"}},{"sampler":86,"target":{"node":24,"path":"scale"}},{"sampler":87,"target":{"node":29,"path":"translation"}},{"sampler":88,"target":{"node":29,"path":"rotation"}},{"sampler":89,"target":{"node":29,"path":"scale"}},{"sampler":90,"target":{"node":28,"path":"translation"}},{"sampler":91,"target":{"node":28,"path":"rotation"}},{"sampler":92,"target":{"node":28,"path":"scale"}},{"sampler":93,"target":{"node":31,"path":"translation"}},{"sampler":94,"target":{"node":31,"path":"rotation"}},{"sampler":95,"target":{"node":31,"path":"scale"}},{"sampler":96,"target":{"node":30,"path":"translation"}},{"sampler":97,"target":{"node":30,"path":"rotation"}},{"sampler":98,"target":{"node":30,"path":"scale"}},{"sampler":99,"target":{"node":33,"path":"translation"}},{"sampler":100,"target":{"node":33,"path":"rotation"}},{"sampler":101,"target":{"node":33,"path":"scale"}},{"sampler":102,"target":{"node":32,"path":"translation"}},{"sampler":103,"target":{"node":32,"path":"rotation"}},{"sampler":104,"target":{"node":32,"path":"scale"}},{"sampler":105,"target":{"node":36,"path":"translation"}},{"sampler":106,"target":{"node":36,"path":"rotation"}},{"sampler":107,"target":{"node":36,"path":"scale"}}],"name":"Idle","samplers":[{"input":22,"interpolation":"STEP","output":23},{"input":22,"interpolation":"STEP","output":24},{"input":22,"interpolation":"STEP","output":25},{"input":22,"interpolation":"STEP","output":26},{"input":22,"interpolation":"STEP","output":27},{"input":22,"interpolation":"STEP","output":28},{"input":22,"interpolation":"STEP","output":29},{"input":22,"interpolation":"STEP","output":30},{"input":22,"interpolation":"STEP","output":31},{"input":32,"interpolation":"LINEAR","output":33},{"input":22,"interpolation":"STEP","output":34},{"input":22,"interpolation":"STEP","output":35},{"input":22,"interpolation":"STEP","output":36},{"input":32,"interpolation":"LINEAR","output":37},{"input":22,"interpolation":"STEP","output":38},{"input":22,"interpolation":"STEP","output":39},{"input":22,"interpolation":"STEP","output":40},{"input":22,"interpolation":"STEP","output":41},{"input":22,"interpolation":"STEP","output":42},{"input":32,"interpolation":"LINEAR","output":43},{"input":22,"interpolation":"STEP","output":44},{"input":22,"interpolation":"STEP","output":45},{"input":22,"interpolation":"STEP","output":46},{"input":22,"interpolation":"STEP","output":47},{"input":22,"interpolation":"STEP","output":48},{"input":32,"interpolation":"LINEAR","output":49},{"input":22,"interpolation":"STEP","output":50},{"input":22,"interpolation":"STEP","output":51},{"input":22,"interpolation":"STEP","output":52},{"input":22,"interpolation":"STEP","output":53},{"input":22,"interpolation":"STEP","output":54},{"input":32,"interpolation":"LINEAR","output":55},{"input":22,"interpolation":"STEP","output":56},{"input":22,"interpolation":"STEP","output":57},{"input":22,"interpolation":"STEP","output":58},{"input":22,"interpolation":"STEP","output":59},{"input":22,"interpolation":"STEP","output":60},{"input":32,"interpolation":"LINEAR","output":61},{"input":22,"interpolation":"STEP","output":62},{"input":22,"interpolation":"STEP","output":63},{"input":22,"interpolation":"STEP","output":64},{"input":22,"interpolation":"STEP","output":65},{"input":22,"interpolation":"STEP","output":66},{"input":32,"interpolation":"LINEAR","output":67},{"input":22,"interpolation":"STEP","output":68},{"input":22,"interpolation":"STEP","output":69},{"input":22,"interpolation":"STEP","output":70},{"input":22,"interpolation":"STEP","output":71},{"input":22,"interpolation":"STEP","output":72},{"input":32,"interpolation":"LINEAR","output":73},{"input":22,"interpolation":"STEP","output":74},{"input":22,"interpolation":"STEP","output":75},{"input":22,"interpolation":"STEP","output":76},{"input":22,"interpolation":"STEP","output":77},{"input":22,"interpolation":"STEP","output":78},{"input":32,"interpolation":"LINEAR","output":79},{"input":22,"interpolation":"STEP","output":80},{"input":22,"interpolation":"STEP","output":81},{"input":22,"interpolation":"STEP","output":82},{"input":22,"interpolation":"STEP","output":83},{"input":22,"interpolation":"STEP","output":84},{"input":22,"interpolation":"STEP","output":85},{"input":22,"interpolation":"STEP","output":86},{"input":22,"interpolation":"STEP","output":87},{"input":22,"interpolation":"STEP","output":88},{"input":22,"interpolation":"STEP","output":89},{"input":22,"interpolation":"STEP","output":90},{"input":22,"interpolation":"STEP","output":91},{"input":22,"interpolation":"STEP","output":92},{"input":22,"interpolation":"STEP","output":93},{"input":32,"interpolation":"LINEAR","output":94},{"input":22,"interpolation":"STEP","output":95},{"input":22,"interpolation":"STEP","output":96},{"input":32,"interpolation":"LINEAR","output":97},{"input":22,"interpolation":"STEP","output":98},{"input":22,"interpolation":"STEP","output":99},{"input":22,"interpolation":"STEP","output":100},{"input":22,"interpolation":"STEP","output":101},{"input":22,"interpolation":"STEP","output":102},{"input":22,"interpolation":"STEP","output":103},{"input":22,"interpolation":"STEP","output":104},{"input":22,"interpolation":"STEP","output":105},{"input":22,"interpolation":"STEP","output":106},{"input":22,"interpolation":"STEP","output":107},{"input":22,"interpolation":"STEP","output":108},{"input":22,"interpolation":"STEP","output":109},{"input":22,"interpolation":"STEP","output":110},{"input":22,"interpolation":"STEP","output":111},{"input":22,"interpolation":"STEP","output":112},{"input":22,"interpolation":"STEP","output":113},{"input":22,"interpolation":"STEP","output":114},{"input":22,"interpolation":"STEP","output":115},{"input":22,"interpolation":"STEP","output":116},{"input":22,"interpolation":"STEP","output":117},{"input":22,"interpolation":"STEP","output":118},{"input":22,"interpolation":"STEP","output":119},{"input":22,"interpolation":"STEP","output":120},{"input":22,"interpolation":"STEP","output":121},{"input":22,"interpolation":"STEP","output":122},{"input":22,"interpolation":"STEP","output":123},{"input":22,"interpolation":"STEP","output":124},{"input":22,"interpolation":"STEP","output":125},{"input":22,"interpolation":"STEP","output":126},{"input":22,"interpolation":"STEP","output":127},{"input":22,"interpolation":"STEP","output":128},{"input":22,"interpolation":"STEP","output":129},{"input":22,"interpolation":"STEP","output":130},{"input":22,"interpolation":"STEP","output":131}]}],"materials":[{"alphaMode":"MASK","doubleSided":true,"name":"Brown","pbrMetallicRoughness":{"baseColorFactor":[0.19120171666145325,0.09530746936798096,0.05126946046948433,0],"metallicFactor":0,"roughnessFactor":0.690034806728363}},{"alphaMode":"MASK","doubleSided":true,"name":"White","pbrMetallicRoughness":{"baseColorFactor":[0.800000011920929,0.800000011920929,0.800000011920929,0],"metallicFactor":0,"roughnessFactor":0.690034806728363}},{"alphaMode":"MASK","doubleSided":true,"name":"Grey","pbrMetallicRoughness":{"baseColorFactor":[0.20189633965492249,0.20189633965492249,0.20189633965492249,0],"metallicFactor":0,"roughnessFactor":0.690034806728363}}],"meshes":[{"name":"Cylinder","primitives":[{"attributes":{"POSITION":0,"NORMAL":1,"COLOR_0":2,"COLOR_1":3,"JOINTS_0":4,"WEIGHTS_0":5},"indices":6,"material":0},{"attributes":{"POSITION":7,"NORMAL":8,"COLOR_0":9,"COLOR_1":10,"JOINTS_0":11,"WEIGHTS_0":12},"indices":13,"material":1},{"attributes":{"POSITION":14,"NORMAL":15,"COLOR_0":16,"COLOR_1":17,"JOINTS_0":18,"WEIGHTS_0":19},"indices":20,"material":2}]}],"skins":[{"inverseBindMatrices":21,"joints":[34,1,0,27,5,4,3,2,9,8,7,6,13,12,11,10,17,16,15,14,19,18,23,22,21,20,26,25,24,29,28,31,30,33,32],"name":"Armature"}],"accessors":[{"bufferView":0,"componentType":5126,"count":750,"max":[0.7880550026893616,5.745482444763184,2.3401970863342285],"min":[-0.7880550026893616,1.1393591165542603,-2.0258569717407227],"type":"VEC3"},{"bufferView":1,"componentType":5126,"count":750,"type":"VEC3"},{"bufferView":2,"componentType":5121,"count":750,"normalized":true,"type":"VEC4"},{"bufferView":3,"componentType":5126,"count":750,"type":"VEC3"},{"bufferView":4,"componentType":5121,"count":750,"type":"VEC4"},{"bufferView":5,"componentType":5126,"count":750,"type":"VEC4"},{"bufferView":6,"componentType":5123,"count":1098,"type":"SCALAR"},{"bufferView":7,"componentType":5126,"count":340,"max":[0.7134069800376892,5.603109359741211,2.8367295265197754],"min":[-0.7134069800376892,0.12890790402889252,-1.5829353332519531],"type":"VEC3"},{"bufferView":8,"componentType":5126,"count":340,"type":"VEC3"},{"bufferView":9,"componentType":5121,"count":340,"normalized":true,"type":"VEC4"},{"bufferView":10,"componentType":5126,"count":340,"type":"VEC3"},{"bufferView":11,"componentType":5121,"count":340,"type":"VEC4"},{"bufferView":12,"componentType":5126,"count":340,"type":"VEC4"},{"bufferView":13,"componentType":5123,"count":504,"type":"SCALAR"},{"bufferView":14,"componentType":5126,"count":252,"max":[0.7134601473808289,5.8400092124938965,2.886225938796997],"min":[-0.7134601473808289,-0.013018814846873283,-1.436293125152588],"type":"VEC3"},{"bufferView":15,"componentType":5126,"count":252,"type":"VEC3"},{"bufferView":16,"componentType":5121,"count":252,"normalized":true,"type":"VEC4"},{"bufferView":17,"componentType":5126,"count":252,"type":"VEC3"},{"bufferView":18,"componentType":5121,"count":252,"type":"VEC4"},{"bufferView":19,"componentType":5126,"count":252,"type":"VEC4"},{"bufferView":20,"componentType":5123,"count":384,"type":"SCALAR"},{"bufferView":21,"componentType":5126,"count":35,"type":"MAT4"},{"bufferView":22,"componentType":5126,"count":2,"max":[6.291666666666667],"min":[0.041666666666666664],"type":"SCALAR"},{"bufferView":23,"componentType":5126,"count":2,"type":"VEC3"},{"bufferView":24,"componentType":5126,"count":2,"type":"VEC4"},{"bufferView":25,"componentType":5126,"count":2,"type":"VEC3"},{"bufferView":26,"componentType":5126,"count":2,"type":"VEC3"},{"bufferView":27,"componentType":5126,"count":2,"type":"VEC4"},{"bufferView":28,"componentType":5126,"count":2,"type":"VEC3"},{"bufferView":29,"componentType":5126,"count":2,"type":"VEC3"},{"bufferView":30,"componentType":5126,"count":2,"type":"VEC4"},{"bufferView":31,"componentType":5126,"count":2,"type":"VEC3"},{"bufferView":32,"componentType":5126,"count":151,"max":[6.291666666666667],"min":[0.041666666666666664],"type":"SCALAR"},{"bufferView":33,"componentType":5126,"count":151,"type":"VEC3"},{"bufferView":34,"componentType":5126,"count":2,"type":"VEC4"},{"bufferView":35,"componentType":5126,"count":2,"type":"VEC3"},{"bufferView":36,"componentType":5126,"count":2,"type":"VEC3"},{"bufferView":37,"componentType":5126,"count":151,"type":"VEC4"},{"bufferView":38,"componentType":5126,"count":2,"type":"VEC3"},{"bufferView":39,"componentType":5126,"count":2,"type":"VEC3"},{"bufferView":40,"componentType":5126,"count":2,"type":"VEC4"},{"bufferView":41,"componentType":5126,"count":2,"type":"VEC3"},{"bufferView":42,"componentType":5126,"count":2,"type":"VEC3"},{"bufferView":43,"componentType":5126,"count":151,"type":"VEC4"},{"bufferView":44,"componentType":5126,"count":2,"type":"VEC3"},{"bufferView":45,"componentType":5126,"count":2,"type":"VEC3"},{"bufferView":46,"componentType":5126,"count":2,"type":"VEC4"},{"bufferView":47,"componentType":5126,"count":2,"type":"VEC3"},{"bufferView":48,"componentType":5126,"count":2,"type":"VEC3"},{"bufferView":49,"componentType":5126,"count":151,"type":"VEC4"},{"bufferView":50,"componentType":5126,"count":2,"type":"VEC3"},{"bufferView":51,"componentType":5126,"count":2,"type":"VEC3"},{"bufferView":52,"componentType":5126,"count":2,"type":"VEC4"},{"bufferView":53,"componentType":5126,"count":2,"type":"VEC3"},{"bufferView":54,"componentType":5126,"count":2,"type":"VEC3"},{"bufferView":55,"componentType":5126,"count":151,"type":"VEC4"},{"bufferView":56,"componentType":5126,"count":2,"type":"VEC3"},{"bufferView":57,"componentType":5126,"count":2,"type":"VEC3"},{"bufferView":58,"componentType":5126,"count":2,"type":"VEC4"},{"bufferView":59,"componentType":5126,"count":2,"type":"VEC3"},{"bufferView":60,"componentType":5126,"count":2,"type":"VEC3"},{"bufferView":61,"componentType":5126,"count":151,"type":"VEC4"},{"bufferView":62,"componentType":5126,"count":2,"type":"VEC3"},{"bufferView":63,"componentType":5126,"count":2,"type":"VEC3"},{"bufferView":64,"componentType":5126,"count":2,"type":"VEC4"},{"bufferView":65,"componentType":5126,"count":2,"type":"VEC3"},{"bufferView":66,"componentType":5126,"count":2,"type":"VEC3"},{"bufferView":67,"componentType":5126,"count":151,"type":"VEC4"},{"bufferView":68,"componentType":5126,"count":2,"type":"VEC3"},{"bufferView":69,"componentType":5126,"count":2,"type":"VEC3"},{"bufferView":70,"componentType":5126,"count":2,"type":"VEC4"},{"bufferView":71,"componentType":5126,"count":2,"type":"VEC3"},{"bufferView":72,"componentType":5126,"count":2,"type":"VEC3"},{"bufferView":73,"componentType":5126,"count":151,"type":"VEC4"},{"bufferView":74,"componentType":5126,"count":2,"type":"VEC3"},{"bufferView":75,"componentType":5126,"count":2,"type":"VEC3"},{"bufferView":76,"componentType":5126,"count":2,"type":"VEC4"},{"bufferView":77,"componentType":5126,"count":2,"type":"VEC3"},{"bufferView":78,"componentType":5126,"count":2,"type":"VEC3"},{"bufferView":79,"componentType":5126,"count":151,"type":"VEC4"},{"bufferView":80,"componentType":5126,"count":2,"type":"VEC3"},{"bufferView":81,"componentType":5126,"count":2,"type":"VEC3"},{"bufferView":82,"componentType":5126,"count":2,"type":"VEC4"},{"bufferView":83,"componentType":5126,"count":2,"type":"VEC3"},{"bufferView":84,"componentType":5126,"count":2,"type":"VEC3"},{"bufferView":85,"componentType":5126,"count":2,"type":"VEC4"},{"bufferView":86,"componentType":5126,"count":2,"type":"VEC3"},{"bufferView":87,"componentType":5126,"count":2,"type":"VEC3"},{"bufferView":88,"componentType":5126,"count":2,"type":"VEC4"},{"bufferView":89,"componentType":5126,"count":2,"type":"VEC3"},{"bufferView":90,"componentType":5126,"count":2,"type":"VEC3"},{"bufferView":91,"componentType":5126,"count":2,"type":"VEC4"},{"bufferView":92,"componentType":5126,"count":2,"type":"VEC3"},{"bufferView":93,"componentType":5126,"count":2,"type":"VEC3"},{"bufferView":94,"componentType":5126,"count":151,"type":"VEC4"},{"bufferView":95,"componentType":5126,"count":2,"type":"VEC3"},{"bufferView":96,"componentType":5126,"count":2,"type":"VEC3"},{"bufferView":97,"componentType":5126,"count":151,"type":"VEC4"},{"bufferView":98,"componentType":5126,"count":2,"type":"VEC3"},{"bufferView":99,"componentType":5126,"count":2,"type":"VEC3"},{"bufferView":100,"componentType":5126,"count":2,"type":"VEC4"},{"bufferView":101,"componentType":5126,"count":2,"type":"VEC3"},{"bufferView":102,"componentType":5126,"count":2,"type":"VEC3"},{"bufferView":103,"componentType":5126,"count":2,"type":"VEC4"},{"bufferView":104,"componentType":5126,"count":2,"type":"VEC3"},{"bufferView":105,"componentType":5126,"count":2,"type":"VEC3"},{"bufferView":106,"componentType":5126,"count":2,"type":"VEC4"},{"bufferView":107,"componentType":5126,"count":2,"type":"VEC3"},{"bufferView":108,"componentType":5126,"count":2,"type":"VEC3"},{"bufferView":109,"componentType":5126,"count":2,"type":"VEC4"},{"bufferView":110,"componentType":5126,"count":2,"type":"VEC3"},{"bufferView":111,"componentType":5126,"count":2,"type":"VEC3"},{"bufferView":112,"componentType":5126,"count":2,"type":"VEC4"},{"bufferView":113,"componentType":5126,"count":2,"type":"VEC3"},{"bufferView":114,"componentType":5126,"count":2,"type":"VEC3"},{"bufferView":115,"componentType":5126,"count":2,"type":"VEC4"},{"bufferView":116,"componentType":5126,"count":2,"type":"VEC3"},{"bufferView":117,"componentType":5126,"count":2,"type":"VEC3"},{"bufferView":118,"componentType":5126,"count":2,"type":"VEC4"},{"bufferView":119,"componentType":5126,"count":2,"type":"VEC3"},{"bufferView":120,"componentType":5126,"count":2,"type":"VEC3"},{"bufferView":121,"componentType":5126,"count":2,"type":"VEC4"},{"bufferView":122,"componentType":5126,"count":2,"type":"VEC3"},{"bufferView":123,"componentType":5126,"count":2,"type":"VEC3"},{"bufferView":124,"componentType":5126,"count":2,"type":"VEC4"},{"bufferView":125,"componentType":5126,"count":2,"type":"VEC3"},{"bufferView":126,"componentType":5126,"count":2,"type":"VEC3"},{"bufferView":127,"componentType":5126,"count":2,"type":"VEC4"},{"bufferView":128,"componentType":5126,"count":2,"type":"VEC3"},{"bufferView":129,"componentType":5126,"count":2,"type":"VEC3"},{"bufferView":130,"componentType":5126,"count":2,"type":"VEC4"},{"bufferView":131,"componentType":5126,"count":2,"type":"VEC3"}],"bufferViews":[{"buffer":0,"byteLength":9000,"byteOffset":0,"target":34962},{"buffer":0,"byteLength":9000,"byteOffset":9000,"target":34962},{"buffer":0,"byteLength":3000,"byteOffset":18000,"target":34962},{"buffer":0,"byteLength":9000,"byteOffset":21000,"target":34962},{"buffer":0,"byteLength":3000,"byteOffset":30000,"target":34962},{"buffer":0,"byteLength":12000,"byteOffset":33000,"target":34962},{"buffer":0,"byteLength":2196,"byteOffset":45000,"target":34963},{"buffer":0,"byteLength":4080,"byteOffset":47196,"target":34962},{"buffer":0,"byteLength":4080,"byteOffset":51276,"target":34962},{"buffer":0,"byteLength":1360,"byteOffset":55356,"target":34962},{"buffer":0,"byteLength":4080,"byteOffset":56716,"target":34962},{"buffer":0,"byteLength":1360,"byteOffset":60796,"target":34962},{"buffer":0,"byteLength":5440,"byteOffset":62156,"target":34962},{"buffer":0,"byteLength":1008,"byteOffset":67596,"target":34963},{"buffer":0,"byteLength":3024,"byteOffset":68604,"target":34962},{"buffer":0,"byteLength":3024,"byteOffset":71628,"target":34962},{"buffer":0,"byteLength":1008,"byteOffset":74652,"target":34962},{"buffer":0,"byteLength":3024,"byteOffset":75660,"target":34962},{"buffer":0,"byteLength":1008,"byteOffset":78684,"target":34962},{"buffer":0,"byteLength":4032,"byteOffset":79692,"target":34962},{"buffer":0,"byteLength":768,"byteOffset":83724,"target":34963},{"buffer":0,"byteLength":2240,"byteOffset":84492},{"buffer":0,"byteLength":8,"byteOffset":86732},{"buffer":0,"byteLength":24,"byteOffset":86740},{"buffer":0,"byteLength":32,"byteOffset":86764},{"buffer":0,"byteLength":24,"byteOffset":86796},{"buffer":0,"byteLength":24,"byteOffset":86820},{"buffer":0,"byteLength":32,"byteOffset":86844},{"buffer":0,"byteLength":24,"byteOffset":86876},{"buffer":0,"byteLength":24,"byteOffset":86900},{"buffer":0,"byteLength":32,"byteOffset":86924},{"buffer":0,"byteLength":24,"byteOffset":86956},{"buffer":0,"byteLength":604,"byteOffset":86980},{"buffer":0,"byteLength":1812,"byteOffset":87584},{"buffer":0,"byteLength":32,"byteOffset":89396},{"buffer":0,"byteLength":24,"byteOffset":89428},{"buffer":0,"byteLength":24,"byteOffset":89452},{"buffer":0,"byteLength":2416,"byteOffset":89476},{"buffer":0,"byteLength":24,"byteOffset":91892},{"buffer":0,"byteLength":24,"byteOffset":91916},{"buffer":0,"byteLength":32,"byteOffset":91940},{"buffer":0,"byteLength":24,"byteOffset":91972},{"buffer":0,"byteLength":24,"byteOffset":91996},{"buffer":0,"byteLength":2416,"byteOffset":92020},{"buffer":0,"byteLength":24,"byteOffset":94436},{"buffer":0,"byteLength":24,"byteOffset":94460},{"buffer":0,"byteLength":32,"byteOffset":94484},{"buffer":0,"byteLength":24,"byteOffset":94516},{"buffer":0,"byteLength":24,"byteOffset":94540},{"buffer":0,"byteLength":2416,"byteOffset":94564},{"buffer":0,"byteLength":24,"byteOffset":96980},{"buffer":0,"byteLength":24,"byteOffset":97004},{"buffer":0,"byteLength":32,"byteOffset":97028},{"buffer":0,"byteLength":24,"byteOffset":97060},{"buffer":0,"byteLength":24,"byteOffset":97084},{"buffer":0,"byteLength":2416,"byteOffset":97108},{"buffer":0,"byteLength":24,"byteOffset":99524},{"buffer":0,"byteLength":24,"byteOffset":99548},{"buffer":0,"byteLength":32,"byteOffset":99572},{"buffer":0,"byteLength":24,"byteOffset":99604},{"buffer":0,"byteLength":24,"byteOffset":99628},{"buffer":0,"byteLength":2416,"byteOffset":99652},{"buffer":0,"byteLength":24,"byteOffset":102068},{"buffer":0,"byteLength":24,"byteOffset":102092},{"buffer":0,"byteLength":32,"byteOffset":102116},{"buffer":0,"byteLength":24,"byteOffset":102148},{"buffer":0,"byteLength":24,"byteOffset":102172},{"buffer":0,"byteLength":2416,"byteOffset":102196},{"buffer":0,"byteLength":24,"byteOffset":104612},{"buffer":0,"byteLength":24,"byteOffset":104636},{"buffer":0,"byteLength":32,"byteOffset":104660},{"buffer":0,"byteLength":24,"byteOffset":104692},{"buffer":0,"byteLength":24,"byteOffset":104716},{"buffer":0,"byteLength":2416,"byteOffset":104740},{"buffer":0,"byteLength":24,"byteOffset":107156},{"buffer":0,"byteLength":24,"byteOffset":107180},{"buffer":0,"byteLength":32,"byteOffset":107204},{"buffer":0,"byteLength":24,"byteOffset":107236},{"buffer":0,"byteLength":24,"byteOffset":107260},{"buffer":0,"byteLength":2416,"byteOffset":107284},{"buffer":0,"byteLength":24,"byteOffset":109700},{"buffer":0,"byteLength":24,"byteOffset":109724},{"buffer":0,"byteLength":32,"byteOffset":109748},{"buffer":0,"byteLength":24,"byteOffset":109780},{"buffer":0,"byteLength":24,"byteOffset":109804},{"buffer":0,"byteLength":32,"byteOffset":109828},{"buffer":0,"byteLength":24,"byteOffset":109860},{"buffer":0,"byteLength":24,"byteOffset":109884},{"buffer":0,"byteLength":32,"byteOffset":109908},{"buffer":0,"byteLength":24,"byteOffset":109940},{"buffer":0,"byteLength":24,"byteOffset":109964},{"buffer":0,"byteLength":32,"byteOffset":109988},{"buffer":0,"byteLength":24,"byteOffset":110020},{"buffer":0,"byteLength":24,"byteOffset":110044},{"buffer":0,"byteLength":2416,"byteOffset":110068},{"buffer":0,"byteLength":24,"byteOffset":112484},{"buffer":0,"byteLength":24,"byteOffset":112508},{"buffer":0,"byteLength":2416,"byteOffset":112532},{"buffer":0,"byteLength":24,"byteOffset":114948},{"buffer":0,"byteLength":24,"byteOffset":114972},{"buffer":0,"byteLength":32,"byteOffset":114996},{"buffer":0,"byteLength":24,"byteOffset":115028},{"buffer":0,"byteLength":24,"byteOffset":115052},{"buffer":0,"byteLength":32,"byteOffset":115076},{"buffer":0,"byteLength":24,"byteOffset":115108},{"buffer":0,"byteLength":24,"byteOffset":115132},{"buffer":0,"byteLength":32,"byteOffset":115156},{"buffer":0,"byteLength":24,"byteOffset":115188},{"buffer":0,"byteLength":24,"byteOffset":115212},{"buffer":0,"byteLength":32,"byteOffset":115236},{"buffer":0,"byteLength":24,"byteOffset":115268},{"buffer":0,"byteLength":24,"byteOffset":115292},{"buffer":0,"byteLength":32,"byteOffset":115316},{"buffer":0,"byteLength":24,"byteOffset":115348},{"buffer":0,"byteLength":24,"byteOffset":115372},{"buffer":0,"byteLength":32,"byteOffset":115396},{"buffer":0,"byteLength":24,"byteOffset":115428},{"buffer":0,"byteLength":24,"byteOffset":115452},{"buffer":0,"byteLength":32,"byteOffset":115476},{"buffer":0,"byteLength":24,"byteOffset":115508},{"buffer":0,"byteLength":24,"byteOffset":115532},{"buffer":0,"byteLength":32,"byteOffset":115556},{"buffer":0,"byteLength":24,"byteOffset":115588},{"buffer":0,"byteLength":24,"byteOffset":115612},{"buffer":0,"byteLength":32,"byteOffset":115636},{"buffer":0,"byteLength":24,"byteOffset":115668},{"buffer":0,"byteLength":24,"byteOffset":115692},{"buffer":0,"byteLength":32,"byteOffset":115716},{"buffer":0,"byteLength":24,"byteOffset":115748},{"buffer":0,"byteLength":24,"byteOffset":115772},{"buffer":0,"byteLength":32,"byteOffset":115796},{"buffer":0,"byteLength":24,"byteOffset":115828}],"buffers":[{"byteLength":115852,"uri":"data:application/octet-stream;base64,"}]}