{"asset":{"generator":"Khronos glTF Blender I/O v4.2.57","version":"2.0"},"scene":0,"scenes":[{"name":"Scene","nodes":[36]}],"nodes":[{"name":"FrontFoot.R_end","translation":[3.2576963349129073e-08,1,8.864162737154402e-10]},{"children":[0],"name":"FrontFoot.R","rotation":[0.7071067690849304,-7.277346867340384e-07,-7.277346867340384e-07,0.7071067690849304],"translation":[-1.2202508449554443,0.10000348091125488,1.927022933959961]},{"name":"FrontLowLeg.R_end","rotation":[2.6077040971017595e-08,3.980894280886105e-09,3.803127111194973e-15,1],"scale":[1,0.9999999403953552,0.9999999403953552],"translation":[4.127628017158713e-08,0.7758750915527344,-2.0681932255683932e-07]},{"children":[2],"name":"FrontLowLeg.R","rotation":[0.19038623571395874,-0.018635381013154984,0.0036147385835647583,0.981525719165802],"scale":[0.9999999403953552,1.0000001192092896,1],"translation":[3.771856427192688e-08,1.3847211599349976,3.5762786865234375e-07]},{"children":[3],"name":"FrontUpLeg.R","rotation":[0.7054041028022766,-0.7030342221260071,-0.049041081219911575,0.07578203827142715],"scale":[1,1.000000238418579,0.9999999403953552],"translation":[6.878883596073138e-08,0.8122732639312744,-1.3088651940051932e-08]},{"children":[4],"name":"FrontLeg.R","rotation":[0.4999999403953552,-0.4999999403953552,0.5000001192092896,0.5000000596046448],"translation":[-0.42695745825767517,-1.873093843460083,-0.07953149825334549]},{"name":"BackLowLeg.R_end","rotation":[-7.450569938782792e-09,8.240898807798658e-08,-6.33299421792799e-08,1],"translation":[2.6017445975412556e-08,0.9370133280754089,1.0033075170667871e-07]},{"children":[6],"name":"BackLowLeg.R","rotation":[-0.34302541613578796,0.018177097663283348,0.006639382801949978,0.9391267895698547],"scale":[1,1.0000001192092896,1],"translation":[5.21540641784668e-08,1.48894202709198,1.0058283805847168e-07]},{"children":[7],"name":"BackUpLeg.R","rotation":[-0.6928375959396362,0.6868495941162109,-0.14133639633655548,0.16804111003875732],"translation":[6.087302750756862e-08,0.6330168843269348,8.615927526989253e-09]},{"children":[8],"name":"BackLeg.R","rotation":[0.4999997615814209,-0.5000001192092896,0.4999999403953552,0.5000002384185791],"translation":[-0.42695745825767517,2.6103055477142334,0.050002049654722214]},{"name":"FrontLowLeg.L_end","rotation":[-1.4528632164001465e-07,4.979347156819358e-09,1.8626200581906005e-09,1],"translation":[8.130631279357203e-09,0.7758753299713135,-1.9714163101980375e-07]},{"children":[10],"name":"FrontLowLeg.L","rotation":[0.1901601105928421,0.051330748945474625,-0.009956574998795986,0.9803597331047058],"scale":[0.9999999403953552,1,0.9999999403953552],"translation":[-1.30385160446167e-08,1.384720802307129,-8.195638656616211e-08]},{"children":[11],"name":"FrontUpLeg.L","rotation":[-0.025509122759103775,-0.09916593879461288,0.7066465616226196,0.7001186609268188],"translation":[9.338191375718452e-08,0.8122735619544983,1.7586870626473683e-08]},{"children":[12],"name":"FrontLeg.L","rotation":[-0.5,-0.5,-0.5,0.5],"scale":[1,0.9999999403953552,1],"translation":[0.36532488465309143,-1.873093843460083,-0.07953149825334549]},{"name":"BackLowLeg.L_end","rotation":[-3.5762786865234375e-07,-1.2545333660796132e-09,4.6556913879669537e-10,1],"translation":[-1.988505360372983e-08,0.9370129704475403,-1.539902996228193e-07]},{"children":[14],"name":"BackLowLeg.L","rotation":[-0.3430738151073456,-0.00892589706927538,-0.0032603731378912926,0.9392603635787964],"scale":[0.9999998807907104,0.9999998211860657,0.9999998807907104],"translation":[0,1.4889416694641113,1.7881393432617188e-07]},{"children":[15],"name":"BackUpLeg.L","rotation":[0.1481536626815796,0.16126760840415955,0.6914119124412537,0.6884713768959045],"scale":[1.0000001192092896,1,1],"translation":[6.612170722064548e-08,0.6330171227455139,-5.0001858653558884e-08]},{"children":[16],"name":"BackLeg.L","rotation":[-0.4999998211860657,-0.5000001788139343,-0.4999998211860657,0.5000001788139343],"scale":[1,0.9999999403953552,1],"translation":[0.36532488465309143,2.6103055477142334,0.050002049654722214]},{"name":"Back_end","rotation":[0,4.440892098500626e-14,-3.5527141023169746e-15,1],"translation":[2.071942617476452e-11,0.970095694065094,1.0637996439299968e-07]},{"children":[18],"name":"Back","rotation":[0.989112377166748,3.508620949332908e-08,2.358227391141554e-07,0.14716224372386932],"scale":[1,1,0.9999999403953552],"translation":[-0.03228270262479782,3.0823285579681396,0.5438487529754639]},{"name":"Head_end","rotation":[-1.2780947145074606e-07,1.9744038581848145e-07,8.771894499659538e-08,1],"translation":[-8.568167686462402e-08,1.6001498699188232,-1.2665987014770508e-07]},{"children":[20],"name":"Head","rotation":[-0.3872162997722626,-0.23731231689453125,0.10287658125162125,0.8849648833274841],"scale":[1,1.0000001192092896,1],"translation":[1.850821718107909e-10,1.5467441082000732,9.309461290740728e-08]},{"children":[21],"name":"Neck","rotation":[0.06569012254476547,-0.010676553472876549,-0.019551699981093407,0.9975913763046265],"scale":[1,1,0.9999998807907104],"translation":[-1.1175870895385742e-08,1.0237740278244019,-8.987262845039368e-08]},{"children":[22],"name":"Shoulders","rotation":[0.007924916222691536,-0.07017770409584045,-0.997285783290863,0.02081834152340889],"scale":[0.9999997615814209,0.9999998211860657,0.999996542930603],"translation":[-0.07365463674068451,-0.7024261951446533,0.21116246283054352]},{"name":"Torso_end","rotation":[-1.4383292068487208e-07,1.4018878573551774e-06,-4.325556801632047e-09,1],"translation":[-4.190951585769653e-09,1.5270237922668457,1.3729436432186048e-07]},{"children":[24],"name":"Torso","rotation":[0.10717292129993439,0.0014821623917669058,-0.013467596843838692,0.9941480755805969],"scale":[0.9999999403953552,1.0000001192092896,1],"translation":[-1.8239916244056076e-09,1.7321428060531616,-7.438464422193647e-08]},{"children":[25],"name":"Hips","rotation":[-4.831531441595871e-06,0.07132792472839355,-0.997452974319458,3.455031674093334e-07],"scale":[1,1,0.9999998807907104],"translation":[-0.03228270262479782,2.1542510986328125,0.8262628316879272]},{"children":[5,9,13,17,19,23,26],"name":"Body","rotation":[-0.7071067690849304,0,0,0.7071067690849304],"translation":[0.005377650260925293,2.3020823001861572,-0.01735416054725647]},{"name":"BackFoot.R_end","translation":[8.734272860522196e-09,0.674536943435669,-2.2816948330728337e-10]},{"children":[28],"name":"BackFoot.R","rotation":[0.7071067690849304,-8.120283609969192e-07,-8.120283609969192e-07,0.7071067690849304],"translation":[-1.1179230213165283,0.10000348091125488,-3.0364983081817627]},{"name":"FrontFoot.L_end","translation":[5.641548739276914e-08,1,1.9841763787553646e-09]},{"children":[30],"name":"FrontFoot.L","rotation":[0.7071067690849304,-1.0649094974723994e-06,-1.0649094974723994e-06,0.7071067690849304],"translation":[1.1693737506866455,0.10000348091125488,1.927022933959961]},{"name":"BackFoot.L_end","translation":[3.2572813779552234e-08,0.674536943435669,6.221284820639994e-09]},{"children":[32],"name":"BackFoot.L","rotation":[0.7071067690849304,-1.1492031717352802e-06,-1.1492031717352802e-06,0.7071067690849304],"translation":[1.0670462846755981,0.10000348091125488,-3.0364983081817627]},{"children":[1,27,29,31,33],"name":"root"},{"mesh":0,"name":"Pig","skin":0},{"children":[35,34],"name":"Armature"}],"animations":[{"channels":[{"sampler":0,"target":{"node":34,"path":"translation"}},{"sampler":1,"target":{"node":34,"path":"rotation"}},{"sampler":2,"target":{"node":34,"path":"scale"}},{"sampler":3,"target":{"node":1,"path":"translation"}},{"sampler":4,"target":{"node":1,"path":"rotation"}},{"sampler":5,"target":{"node":1,"path":"scale"}},{"sampler":6,"target":{"node":0,"path":"translation"}},{"sampler":7,"target":{"node":0,"path":"rotation"}},{"sampler":8,"target":{"node":0,"path":"scale"}},{"sampler":9,"target":{"node":27,"path":"translation"}},{"sampler":10,"target":{"node":27,"path":"rotation"}},{"sampler":11,"target":{"node":27,"path":"scale"}},{"sampler":12,"target":{"node":5,"path":"translation"}},{"sampler":13,"target":{"node":5,"path":"rotation"}},{"sampler":14,"target":{"node":5,"path":"scale"}},{"sampler":15,"target":{"node":4,"path":"translation"}},{"sampler":16,"target":{"node":4,"path":"rotation"}},{"sampler":17,"target":{"node":4,"path":"scale"}},{"sampler":18,"target":{"node":3,"path":"translation"}},{"sampler":19,"target":{"node":3,"path":"rotation"}},{"sampler":20,"target":{"node":3,"path":"scale"}},{"sampler":21,"target":{"node":2,"path":"translation"}},{"sampler":22,"target":{"node":2,"path":"rotation"}},{"sampler":23,"target":{"node":2,"path":"scale"}},{"sampler":24,"target":{"node":9,"path":"translation"}},{"sampler":25,"target":{"node":9,"path":"rotation"}},{"sampler":26,"target":{"node":9,"path":"scale"}},{"sampler":27,"target":{"node":8,"path":"translation"}},{"sampler":28,"target":{"node":8,"path":"rotation"}},{"sampler":29,"target":{"node":8,"path":"scale"}},{"sampler":30,"target":{"node":7,"path":"translation"}},{"sampler":31,"target":{"node":7,"path":"rotation"}},{"sampler":32,"target":{"node":7,"path":"scale"}},{"sampler":33,"target":{"node":6,"path":"translation"}},{"sampler":34,"target":{"node":6,"path":"rotation"}},{"sampler":35,"target":{"node":6,"path":"scale"}},{"sampler":36,"target":{"node":13,"path":"translation"}},{"sampler":37,"target":{"node":13,"path":"rotation"}},{"sampler":38,"target":{"node":13,"path":"scale"}},{"sampler":39,"target":{"node":12,"path":"translation"}},{"sampler":40,"target":{"node":12,"path":"rotation"}},{"sampler":41,"target":{"node":12,"path":"scale"}},{"sampler":42,"target":{"node":11,"path":"translation"}},{"sampler":43,"target":{"node":11,"path":"rotation"}},{"sampler":44,"target":{"node":11,"path":"scale"}},{"sampler":45,"target":{"node":10,"path":"translation"}},{"sampler":46,"target":{"node":10,"path":"rotation"}},{"sampler":47,"target":{"node":10,"path":"scale"}},{"sampler":48,"target":{"node":17,"path":"translation"}},{"sampler":49,"target":{"node":17,"path":"rotation"}},{"sampler":50,"target":{"node":17,"path":"scale"}},{"sampler":51,"target":{"node":16,"path":"translation"}},{"sampler":52,"target":{"node":16,"path":"rotation"}},{"sampler":53,"target":{"node":16,"path":"scale"}},{"sampler":54,"target":{"node":15,"path":"translation"}},{"sampler":55,"target":{"node":15,"path":"rotation"}},{"sampler":56,"target":{"node":15,"path":"scale"}},{"sampler":57,"target":{"node":14,"path":"translation"}},{"sampler":58,"target":{"node":14,"path":"rotation"}},{"sampler":59,"target":{"node":14,"path":"scale"}},{"sampler":60,"target":{"node":19,"path":"translation"}},{"sampler":61,"target":{"node":19,"path":"rotation"}},{"sampler":62,"target":{"node":19,"path":"scale"}},{"sampler":63,"target":{"node":18,"path":"translation"}},{"sampler":64,"target":{"node":18,"path":"rotation"}},{"sampler":65,"target":{"node":18,"path":"scale"}},{"sampler":66,"target":{"node":23,"path":"translation"}},{"sampler":67,"target":{"node":23,"path":"rotation"}},{"sampler":68,"target":{"node":23,"path":"scale"}},{"sampler":69,"target":{"node":22,"path":"translation"}},{"sampler":70,"target":{"node":22,"path":"rotation"}},{"sampler":71,"target":{"node":22,"path":"scale"}},{"sampler":72,"target":{"node":21,"path":"translation"}},{"sampler":73,"target":{"node":21,"path":"rotation"}},{"sampler":74,"target":{"node":21,"path":"scale"}},{"sampler":75,"target":{"node":20,"path":"translation"}},{"sampler":76,"target":{"node":20,"path":"rotation"}},{"sampler":77,"target":{"node":20,"path":"scale"}},{"sampler":78,"target":{"node":26,"path":"translation"}},{"sampler":79,"target":{"node":26,"path":"rotation"}},{"sampler":80,"target":{"node":26,"path":"scale"}},{"sampler":81,"target":{"node":25,"path":"translation"}},{"sampler":82,"target":{"node":25,"path":"rotation"}},{"sampler":83,"target":{"node":25,"path":"scale"}},{"sampler":84,"target":{"node":24,"path":"translation"}},{"sampler":85,"target":{"node":24,"path":"rotation"}},{"sampler":86,"target":{"node":24,"path":"scale"}},{"sampler":87,"target":{"node":29,"path":"translation"}},{"sampler":88,"target":{"node":29,"path":"rotation"}},{"sampler":89,"target":{"node":29,"path":"scale"}},{"sampler":90,"target":{"node":28,"path":"translation"}},{"sampler":91,"target":{"node":28,"path":"rotation"}},{"sampler":92,"target":{"node":28,"path":"scale"}},{"sampler":93,"target":{"node":31,"path":"translation"}},{"sampler":94,"target":{"node":31,"path":"rotation"}},{"sampler":95,"target":{"node":31,"path":"scale"}},{"sampler":96,"target":{"node":30,"path":"translation"}},{"sampler":97,"target":{"node":30,"path":"rotation"}},{"sampler":98,"target":{"node":30,"path":"scale"}},{"sampler":99,"target":{"node":33,"path":"translation"}},{"sampler":100,"target":{"node":33,"path":"rotation"}},{"sampler":101,"target":{"node":33,"path":"scale"}},{"sampler":102,"target":{"node":32,"path":"translation"}},{"sampler":103,"target":{"node":32,"path":"rotation"}},{"sampler":104,"target":{"node":32,"path":"scale"}},{"sampler":105,"target":{"node":36,"path":"translation"}},{"sampler":106,"target":{"node":36,"path":"rotation"}},{"sampler":107,"target":{"node":36,"path":"scale"}}],"name":"Idle","samplers":[{"input":15,"interpolation":"STEP","output":16},{"input":15,"interpolation":"STEP","output":17},{"input":15,"interpolation":"STEP","output":18},{"input":15,"interpolation":"STEP","output":19},{"input":15,"interpolation":"STEP","output":20},{"input":15,"interpolation":"STEP","output":21},{"input":15,"interpolation":"STEP","output":22},{"input":15,"interpolation":"STEP","output":23},{"input":15,"interpolation":"STEP","output":24},{"input":25,"interpolation":"LINEAR","output":26},{"input":15,"interpolation":"STEP","output":27},{"input":15,"interpolation":"STEP","output":28},{"input":15,"interpolation":"STEP","output":29},{"input":25,"interpolation":"LINEAR","output":30},{"input":15,"interpolation":"STEP","output":31},{"input":15,"interpolation":"STEP","output":32},{"input":15,"interpolation":"STEP","output":33},{"input":15,"interpolation":"STEP","output":34},{"input":15,"interpolation":"STEP","output":35},{"input":25,"interpolation":"LINEAR","output":36},{"input":15,"interpolation":"STEP","output":37},{"input":15,"interpolation":"STEP","output":38},{"input":15,"interpolation":"STEP","output":39},{"input":15,"interpolation":"STEP","output":40},{"input":15,"interpolation":"STEP","output":41},{"input":25,"interpolation":"LINEAR","output":42},{"input":15,"interpolation":"STEP","output":43},{"input":15,"interpolation":"STEP","output":44},{"input":15,"interpolation":"STEP","output":45},{"input":15,"interpolation":"STEP","output":46},{"input":15,"interpolation":"STEP","output":47},{"input":25,"interpolation":"LINEAR","output":48},{"input":15,"interpolation":"STEP","output":49},{"input":15,"interpolation":"STEP","output":50},{"input":15,"interpolation":"STEP","output":51},{"input":15,"interpolation":"STEP","output":52},{"input":15,"interpolation":"STEP","output":53},{"input":25,"interpolation":"LINEAR","output":54},{"input":15,"interpolation":"STEP","output":55},{"input":15,"interpolation":"STEP","output":56},{"input":15,"interpolation":"STEP","output":57},{"input":15,"interpolation":"STEP","output":58},{"input":15,"interpolation":"STEP","output":59},{"input":25,"interpolation":"LINEAR","output":60},{"input":15,"interpolation":"STEP","output":61},{"input":15,"interpolation":"STEP","output":62},{"input":15,"interpolation":"STEP","output":63},{"input":15,"interpolation":"STEP","output":64},{"input":15,"interpolation":"STEP","output":65},{"input":25,"interpolation":"LINEAR","output":66},{"input":15,"interpolation":"STEP","output":67},{"input":15,"interpolation":"STEP","output":68},{"input":15,"interpolation":"STEP","output":69},{"input":15,"interpolation":"STEP","output":70},{"input":15,"interpolation":"STEP","output":71},{"input":25,"interpolation":"LINEAR","output":72},{"input":15,"interpolation":"STEP","output":73},{"input":15,"interpolation":"STEP","output":74},{"input":15,"interpolation":"STEP","output":75},{"input":15,"interpolation":"STEP","output":76},{"input":15,"interpolation":"STEP","output":77},{"input":15,"interpolation":"STEP","output":78},{"input":15,"interpolation":"STEP","output":79},{"input":15,"interpolation":"STEP","output":80},{"input":15,"interpolation":"STEP","output":81},{"input":15,"interpolation":"STEP","output":82},{"input":15,"interpolation":"STEP","output":83},{"input":15,"interpolation":"STEP","output":84},{"input":15,"interpolation":"STEP","output":85},{"input":15,"interpolation":"STEP","output":86},{"input":25,"interpolation":"LINEAR","output":87},{"input":15,"interpolation":"STEP","output":88},{"input":15,"interpolation":"STEP","output":89},{"input":25,"interpolation":"LINEAR","output":90},{"input":15,"interpolation":"STEP","output":91},{"input":15,"interpolation":"STEP","output":92},{"input":15,"interpolation":"STEP","output":93},{"input":15,"interpolation":"STEP","output":94},{"input":15,"interpolation":"STEP","output":95},{"input":15,"interpolation":"STEP","output":96},{"input":15,"interpolation":"STEP","output":97},{"input":15,"interpolation":"STEP","output":98},{"input":15,"interpolation":"STEP","output":99},{"input":15,"interpolation":"STEP","output":100},{"input":15,"interpolation":"STEP","output":101},{"input":15,"interpolation":"STEP","output":102},{"input":15,"interpolation":"STEP","output":103},{"input":15,"interpolation":"STEP","output":104},{"input":15,"interpolation":"STEP","output":105},{"input":15,"interpolation":"STEP","output":106},{"input":15,"interpolation":"STEP","output":107},{"input":15,"interpolation":"STEP","output":108},{"input":15,"interpolation":"STEP","output":109},{"input":15,"interpolation":"STEP","output":110},{"input":15,"interpolation":"STEP","output":111},{"input":15,"interpolation":"STEP","output":112},{"input":15,"interpolation":"STEP","output":113},{"input":15,"interpolation":"STEP","output":114},{"input":15,"interpolation":"STEP","output":115},{"input":15,"interpolation":"STEP","output":116},{"input":15,"interpolation":"STEP","output":117},{"input":15,"interpolation":"STEP","output":118},{"input":15,"interpolation":"STEP","output":119},{"input":15,"interpolation":"STEP","output":120},{"input":15,"interpolation":"STEP","output":121},{"input":15,"interpolation":"STEP","output":122},{"input":15,"interpolation":"STEP","output":123},{"input":15,"interpolation":"STEP","output":124}]}],"materials":[{"alphaMode":"MASK","doubleSided":true,"name":"Material.003","pbrMetallicRoughness":{"baseColorFactor":[0.6866853833198547,0.3564002215862274,0.37123775482177734,0],"metallicFactor":0,"roughnessFactor":0.690034806728363}},{"alphaMode":"MASK","doubleSided":true,"name":"Material","pbrMetallicRoughness":{"baseColorFactor":[0.20189817249774933,0.08714307844638824,0.04865839704871178,0],"metallicFactor":0,"roughnessFactor":0.690034806728363}}],"meshes":[{"name":"Cylinder","primitives":[{"attributes":{"POSITION":0,"NORMAL":1,"COLOR_0":2,"COLOR_1":3,"JOINTS_0":4,"WEIGHTS_0":5},"indices":6,"material":0},{"attributes":{"POSITION":7,"NORMAL":8,"COLOR_0":9,"COLOR_1":10,"JOINTS_0":11,"WEIGHTS_0":12},"indices":13,"material":1}]}],"skins":[{"inverseBindMatrices":14,"joints":[34,1,0,27,5,4,3,2,9,8,7,6,13,12,11,10,17,16,15,14,19,18,23,22,21,20,26,25,24,29,28,31,30,33,32],"name":"Armature"}],"accessors":[{"bufferView":0,"componentType":5126,"count":1078,"max":[1.6555819511413574,4.588065147399902,5.1975998878479],"min":[-1.6555821895599365,0.16860681772232056,-4.586246013641357],"type":"VEC3"},{"bufferView":1,"componentType":5126,"count":1078,"type":"VEC3"},{"bufferView":2,"componentType":5121,"count":1078,"normalized":true,"type":"VEC4"},{"bufferView":3,"componentType":5126,"count":1078,"type":"VEC3"},{"bufferView":4,"componentType":5121,"count":1078,"type":"VEC4"},{"bufferView":5,"componentType":5126,"count":1078,"type":"VEC4"},{"bufferView":6,"componentType":5123,"count":1566,"type":"SCALAR"},{"bufferView":7,"componentType":5126,"count":80,"max":[1.4017152786254883,0.18472549319267273,2.2106175422668457],"min":[-1.4017155170440674,-0.0015858258120715618,-3.199542999267578],"type":"VEC3"},{"bufferView":8,"componentType":5126,"count":80,"type":"VEC3"},{"bufferView":9,"componentType":5121,"count":80,"normalized":true,"type":"VEC4"},{"bufferView":10,"componentType":5126,"count":80,"type":"VEC3"},{"bufferView":11,"componentType":5121,"count":80,"type":"VEC4"},{"bufferView":12,"componentType":5126,"count":80,"type":"VEC4"},{"bufferView":13,"componentType":5123,"count":120,"type":"SCALAR"},{"bufferView":14,"componentType":5126,"count":35,"type":"MAT4"},{"bufferView":15,"componentType":5126,"count":2,"max":[6.291666666666667],"min":[0.041666666666666664],"type":"SCALAR"},{"bufferView":16,"componentType":5126,"count":2,"type":"VEC3"},{"bufferView":17,"componentType":5126,"count":2,"type":"VEC4"},{"bufferView":18,"componentType":5126,"count":2,"type":"VEC3"},{"bufferView":19,"componentType":5126,"count":2,"type":"VEC3"},{"bufferView":20,"componentType":5126,"count":2,"type":"VEC4"},{"bufferView":21,"componentType":5126,"count":2,"type":"VEC3"},{"bufferView":22,"componentType":5126,"count":2,"type":"VEC3"},{"bufferView":23,"componentType":5126,"count":2,"type":"VEC4"},{"bufferView":24,"componentType":5126,"count":2,"type":"VEC3"},{"bufferView":25,"componentType":5126,"count":151,"max":[6.291666666666667],"min":[0.041666666666666664],"type":"SCALAR"},{"bufferView":26,"componentType":5126,"count":151,"type":"VEC3"},{"bufferView":27,"componentType":5126,"count":2,"type":"VEC4"},{"bufferView":28,"componentType":5126,"count":2,"type":"VEC3"},{"bufferView":29,"componentType":5126,"count":2,"type":"VEC3"},{"bufferView":30,"componentType":5126,"count":151,"type":"VEC4"},{"bufferView":31,"componentType":5126,"count":2,"type":"VEC3"},{"bufferView":32,"componentType":5126,"count":2,"type":"VEC3"},{"bufferView":33,"componentType":5126,"count":2,"type":"VEC4"},{"bufferView":34,"componentType":5126,"count":2,"type":"VEC3"},{"bufferView":35,"componentType":5126,"count":2,"type":"VEC3"},{"bufferView":36,"componentType":5126,"count":151,"type":"VEC4"},{"bufferView":37,"componentType":5126,"count":2,"type":"VEC3"},{"bufferView":38,"componentType":5126,"count":2,"type":"VEC3"},{"bufferView":39,"componentType":5126,"count":2,"type":"VEC4"},{"bufferView":40,"componentType":5126,"count":2,"type":"VEC3"},{"bufferView":41,"componentType":5126,"count":2,"type":"VEC3"},{"bufferView":42,"componentType":5126,"count":151,"type":"VEC4"},{"bufferView":43,"componentType":5126,"count":2,"type":"VEC3"},{"bufferView":44,"componentType":5126,"count":2,"type":"VEC3"},{"bufferView":45,"componentType":5126,"count":2,"type":"VEC4"},{"bufferView":46,"componentType":5126,"count":2,"type":"VEC3"},{"bufferView":47,"componentType":5126,"count":2,"type":"VEC3"},{"bufferView":48,"componentType":5126,"count":151,"type":"VEC4"},{"bufferView":49,"componentType":5126,"count":2,"type":"VEC3"},{"bufferView":50,"componentType":5126,"count":2,"type":"VEC3"},{"bufferView":51,"componentType":5126,"count":2,"type":"VEC4"},{"bufferView":52,"componentType":5126,"count":2,"type":"VEC3"},{"bufferView":53,"componentType":5126,"count":2,"type":"VEC3"},{"bufferView":54,"componentType":5126,"count":151,"type":"VEC4"},{"bufferView":55,"componentType":5126,"count":2,"type":"VEC3"},{"bufferView":56,"componentType":5126,"count":2,"type":"VEC3"},{"bufferView":57,"componentType":5126,"count":2,"type":"VEC4"},{"bufferView":58,"componentType":5126,"count":2,"type":"VEC3"},{"bufferView":59,"componentType":5126,"count":2,"type":"VEC3"},{"bufferView":60,"componentType":5126,"count":151,"type":"VEC4"},{"bufferView":61,"componentType":5126,"count":2,"type":"VEC3"},{"bufferView":62,"componentType":5126,"count":2,"type":"VEC3"},{"bufferView":63,"componentType":5126,"count":2,"type":"VEC4"},{"bufferView":64,"componentType":5126,"count":2,"type":"VEC3"},{"bufferView":65,"componentType":5126,"count":2,"type":"VEC3"},{"bufferView":66,"componentType":5126,"count":151,"type":"VEC4"},{"bufferView":67,"componentType":5126,"count":2,"type":"VEC3"},{"bufferView":68,"componentType":5126,"count":2,"type":"VEC3"},{"bufferView":69,"componentType":5126,"count":2,"type":"VEC4"},{"bufferView":70,"componentType":5126,"count":2,"type":"VEC3"},{"bufferView":71,"componentType":5126,"count":2,"type":"VEC3"},{"bufferView":72,"componentType":5126,"count":151,"type":"VEC4"},{"bufferView":73,"componentType":5126,"count":2,"type":"VEC3"},{"bufferView":74,"componentType":5126,"count":2,"type":"VEC3"},{"bufferView":75,"componentType":5126,"count":2,"type":"VEC4"},{"bufferView":76,"componentType":5126,"count":2,"type":"VEC3"},{"bufferView":77,"componentType":5126,"count":2,"type":"VEC3"},{"bufferView":78,"componentType":5126,"count":2,"type":"VEC4"},{"bufferView":79,"componentType":5126,"count":2,"type":"VEC3"},{"bufferView":80,"componentType":5126,"count":2,"type":"VEC3"},{"bufferView":81,"componentType":5126,"count":2,"type":"VEC4"},{"bufferView":82,"componentType":5126,"count":2,"type":"VEC3"},{"bufferView":83,"componentType":5126,"count":2,"type":"VEC3"},{"bufferView":84,"componentType":5126,"count":2,"type":"VEC4"},{"bufferView":85,"componentType":5126,"count":2,"type":"VEC3"},{"bufferView":86,"componentType":5126,"count":2,"type":"VEC3"},{"bufferView":87,"componentType":5126,"count":151,"type":"VEC4"},{"bufferView":88,"componentType":5126,"count":2,"type":"VEC3"},{"bufferView":89,"componentType":5126,"count":2,"type":"VEC3"},{"bufferView":90,"componentType":5126,"count":151,"type":"VEC4"},{"bufferView":91,"componentType":5126,"count":2,"type":"VEC3"},{"bufferView":92,"componentType":5126,"count":2,"type":"VEC3"},{"bufferView":93,"componentType":5126,"count":2,"type":"VEC4"},{"bufferView":94,"componentType":5126,"count":2,"type":"VEC3"},{"bufferView":95,"componentType":5126,"count":2,"type":"VEC3"},{"bufferView":96,"componentType":5126,"count":2,"type":"VEC4"},{"bufferView":97,"componentType":5126,"count":2,"type":"VEC3"},{"bufferView":98,"componentType":5126,"count":2,"type":"VEC3"},{"bufferView":99,"componentType":5126,"count":2,"type":"VEC4"},{"bufferView":100,"componentType":5126,"count":2,"type":"VEC3"},{"bufferView":101,"componentType":5126,"count":2,"type":"VEC3"},{"bufferView":102,"componentType":5126,"count":2,"type":"VEC4"},{"bufferView":103,"componentType":5126,"count":2,"type":"VEC3"},{"bufferView":104,"componentType":5126,"count":2,"type":"VEC3"},{"bufferView":105,"componentType":5126,"count":2,"type":"VEC4"},{"bufferView":106,"componentType":5126,"count":2,"type":"VEC3"},{"bufferView":107,"componentType":5126,"count":2,"type":"VEC3"},{"bufferView":108,"componentType":5126,"count":2,"type":"VEC4"},{"bufferView":109,"componentType":5126,"count":2,"type":"VEC3"},{"bufferView":110,"componentType":5126,"count":2,"type":"VEC3"},{"bufferView":111,"componentType":5126,"count":2,"type":"VEC4"},{"bufferView":112,"componentType":5126,"count":2,"type":"VEC3"},{"bufferView":113,"componentType":5126,"count":2,"type":"VEC3"},{"bufferView":114,"componentType":5126,"count":2,"type":"VEC4"},{"bufferView":115,"componentType":5126,"count":2,"type":"VEC3"},{"bufferView":116,"componentType":5126,"count":2,"type":"VEC3"},{"bufferView":117,"componentType":5126,"count":2,"type":"VEC4"},{"bufferView":118,"componentType":5126,"count":2,"type":"VEC3"},{"bufferView":119,"componentType":5126,"count":2,"type":"VEC3"},{"bufferView":120,"componentType":5126,"count":2,"type":"VEC4"},{"bufferView":121,"componentType":5126,"count":2,"type":"VEC3"},{"bufferView":122,"componentType":5126,"count":2,"type":"VEC3"},{"bufferView":123,"componentType":5126,"count":2,"type":"VEC4"},{"bufferView":124,"componentType":5126,"count":2,"type":"VEC3"}],"bufferViews":[{"buffer":0,"byteLength":12936,"byteOffset":0,"target":34962},{"buffer":0,"byteLength":12936,"byteOffset":12936,"target":34962},{"buffer":0,"byteLength":4312,"byteOffset":25872,"target":34962},{"buffer":0,"byteLength":12936,"byteOffset":30184,"target":34962},{"buffer":0,"byteLength":4312,"byteOffset":43120,"target":34962},{"buffer":0,"byteLength":17248,"byteOffset":47432,"target":34962},{"buffer":0,"byteLength":3132,"byteOffset":64680,"target":34963},{"buffer":0,"byteLength":960,"byteOffset":67812,"target":34962},{"buffer":0,"byteLength":960,"byteOffset":68772,"target":34962},{"buffer":0,"byteLength":320,"byteOffset":69732,"target":34962},{"buffer":0,"byteLength":960,"byteOffset":70052,"target":34962},{"buffer":0,"byteLength":320,"byteOffset":71012,"target":34962},{"buffer":0,"byteLength":1280,"byteOffset":71332,"target":34962},{"buffer":0,"byteLength":240,"byteOffset":72612,"target":34963},{"buffer":0,"byteLength":2240,"byteOffset":72852},{"buffer":0,"byteLength":8,"byteOffset":75092},{"buffer":0,"byteLength":24,"byteOffset":75100},{"buffer":0,"byteLength":32,"byteOffset":75124},{"buffer":0,"byteLength":24,"byteOffset":75156},{"buffer":0,"byteLength":24,"byteOffset":75180},{"buffer":0,"byteLength":32,"byteOffset":75204},{"buffer":0,"byteLength":24,"byteOffset":75236},{"buffer":0,"byteLength":24,"byteOffset":75260},{"buffer":0,"byteLength":32,"byteOffset":75284},{"buffer":0,"byteLength":24,"byteOffset":75316},{"buffer":0,"byteLength":604,"byteOffset":75340},{"buffer":0,"byteLength":1812,"byteOffset":75944},{"buffer":0,"byteLength":32,"byteOffset":77756},{"buffer":0,"byteLength":24,"byteOffset":77788},{"buffer":0,"byteLength":24,"byteOffset":77812},{"buffer":0,"byteLength":2416,"byteOffset":77836},{"buffer":0,"byteLength":24,"byteOffset":80252},{"buffer":0,"byteLength":24,"byteOffset":80276},{"buffer":0,"byteLength":32,"byteOffset":80300},{"buffer":0,"byteLength":24,"byteOffset":80332},{"buffer":0,"byteLength":24,"byteOffset":80356},{"buffer":0,"byteLength":2416,"byteOffset":80380},{"buffer":0,"byteLength":24,"byteOffset":82796},{"buffer":0,"byteLength":24,"byteOffset":82820},{"buffer":0,"byteLength":32,"byteOffset":82844},{"buffer":0,"byteLength":24,"byteOffset":82876},{"buffer":0,"byteLength":24,"byteOffset":82900},{"buffer":0,"byteLength":2416,"byteOffset":82924},{"buffer":0,"byteLength":24,"byteOffset":85340},{"buffer":0,"byteLength":24,"byteOffset":85364},{"buffer":0,"byteLength":32,"byteOffset":85388},{"buffer":0,"byteLength":24,"byteOffset":85420},{"buffer":0,"byteLength":24,"byteOffset":85444},{"buffer":0,"byteLength":2416,"byteOffset":85468},{"buffer":0,"byteLength":24,"byteOffset":87884},{"buffer":0,"byteLength":24,"byteOffset":87908},{"buffer":0,"byteLength":32,"byteOffset":87932},{"buffer":0,"byteLength":24,"byteOffset":87964},{"buffer":0,"byteLength":24,"byteOffset":87988},{"buffer":0,"byteLength":2416,"byteOffset":88012},{"buffer":0,"byteLength":24,"byteOffset":90428},{"buffer":0,"byteLength":24,"byteOffset":90452},{"buffer":0,"byteLength":32,"byteOffset":90476},{"buffer":0,"byteLength":24,"byteOffset":90508},{"buffer":0,"byteLength":24,"byteOffset":90532},{"buffer":0,"byteLength":2416,"byteOffset":90556},{"buffer":0,"byteLength":24,"byteOffset":92972},{"buffer":0,"byteLength":24,"byteOffset":92996},{"buffer":0,"byteLength":32,"byteOffset":93020},{"buffer":0,"byteLength":24,"byteOffset":93052},{"buffer":0,"byteLength":24,"byteOffset":93076},{"buffer":0,"byteLength":2416,"byteOffset":93100},{"buffer":0,"byteLength":24,"byteOffset":95516},{"buffer":0,"byteLength":24,"byteOffset":95540},{"buffer":0,"byteLength":32,"byteOffset":95564},{"buffer":0,"byteLength":24,"byteOffset":95596},{"buffer":0,"byteLength":24,"byteOffset":95620},{"buffer":0,"byteLength":2416,"byteOffset":95644},{"buffer":0,"byteLength":24,"byteOffset":98060},{"buffer":0,"byteLength":24,"byteOffset":98084},{"buffer":0,"byteLength":32,"byteOffset":98108},{"buffer":0,"byteLength":24,"byteOffset":98140},{"buffer":0,"byteLength":24,"byteOffset":98164},{"buffer":0,"byteLength":32,"byteOffset":98188},{"buffer":0,"byteLength":24,"byteOffset":98220},{"buffer":0,"byteLength":24,"byteOffset":98244},{"buffer":0,"byteLength":32,"byteOffset":98268},{"buffer":0,"byteLength":24,"byteOffset":98300},{"buffer":0,"byteLength":24,"byteOffset":98324},{"buffer":0,"byteLength":32,"byteOffset":98348},{"buffer":0,"byteLength":24,"byteOffset":98380},{"buffer":0,"byteLength":24,"byteOffset":98404},{"buffer":0,"byteLength":2416,"byteOffset":98428},{"buffer":0,"byteLength":24,"byteOffset":100844},{"buffer":0,"byteLength":24,"byteOffset":100868},{"buffer":0,"byteLength":2416,"byteOffset":100892},{"buffer":0,"byteLength":24,"byteOffset":103308},{"buffer":0,"byteLength":24,"byteOffset":103332},{"buffer":0,"byteLength":32,"byteOffset":103356},{"buffer":0,"byteLength":24,"byteOffset":103388},{"buffer":0,"byteLength":24,"byteOffset":103412},{"buffer":0,"byteLength":32,"byteOffset":103436},{"buffer":0,"byteLength":24,"byteOffset":103468},{"buffer":0,"byteLength":24,"byteOffset":103492},{"buffer":0,"byteLength":32,"byteOffset":103516},{"buffer":0,"byteLength":24,"byteOffset":103548},{"buffer":0,"byteLength":24,"byteOffset":103572},{"buffer":0,"byteLength":32,"byteOffset":103596},{"buffer":0,"byteLength":24,"byteOffset":103628},{"buffer":0,"byteLength":24,"byteOffset":103652},{"buffer":0,"byteLength":32,"byteOffset":103676},{"buffer":0,"byteLength":24,"byteOffset":103708},{"buffer":0,"byteLength":24,"byteOffset":103732},{"buffer":0,"byteLength":32,"byteOffset":103756},{"buffer":0,"byteLength":24,"byteOffset":103788},{"buffer":0,"byteLength":24,"byteOffset":103812},{"buffer":0,"byteLength":32,"byteOffset":103836},{"buffer":0,"byteLength":24,"byteOffset":103868},{"buffer":0,"byteLength":24,"byteOffset":103892},{"buffer":0,"byteLength":32,"byteOffset":103916},{"buffer":0,"byteLength":24,"byteOffset":103948},{"buffer":0,"byteLength":24,"byteOffset":103972},{"buffer":0,"byteLength":32,"byteOffset":103996},{"buffer":0,"byteLength":24,"byteOffset":104028},{"buffer":0,"byteLength":24,"byteOffset":104052},{"buffer":0,"byteLength":32,"byteOffset":104076},{"buffer":0,"byteLength":24,"byteOffset":104108},{"buffer":0,"byteLength":24,"byteOffset":104132},{"buffer":0,"byteLength":32,"byteOffset":104156},{"buffer":0,"byteLength":24,"byteOffset":104188}],"buffers":[{"byteLength":104212,"uri":"data:application/octet-stream;base64,"}]}