{"asset":{"generator":"Khronos glTF Blender I/O v4.2.57","version":"2.0"},"scene":0,"scenes":[{"name":"Scene","nodes":[36]}],"nodes":[{"name":"FrontFoot.R_end","rotation":[0,0,6.77626438582797e-21,1],"scale":[0.9999999403953552,0.9999999403953552,0.9999999403953552],"translation":[-1.3431764500637655e-07,1,4.8363517635152675e-09]},{"children":[0],"name":"FrontFoot.R","rotation":[0.7071067690849304,-8.963220921032189e-07,-8.963220921032189e-07,0.7071067690849304],"scale":[0.9999999403953552,0.9999999403953552,0.9999999403953552],"translation":[-1.1065094470977783,0.10000347346067429,2.0247292518615723]},{"name":"FrontLowLeg.R_end","rotation":[5.02914261346632e-08,3.231778578083322e-08,-3.632156264643527e-08,1],"scale":[1,0.9999999403953552,1],"translation":[-1.4561109651367588e-07,1.5877676010131836,-2.8273689167690463e-07]},{"children":[2],"name":"FrontLowLeg.R","rotation":[0.13236433267593384,-0.018815644085407257,0.0025131485890597105,0.9910193085670471],"scale":[1.0000001192092896,1,1.0000001192092896],"translation":[1.7601996660232544e-07,1.4804565906524658,-3.5390257835388184e-07]},{"children":[3],"name":"FrontUpLeg.R","rotation":[0.7056753635406494,-0.7034597992897034,-0.044969793409109116,0.07172372192144394],"scale":[0.9999999403953552,1,0.9999999403953552],"translation":[2.219883299403591e-08,0.7349477410316467,7.211383490357548e-08]},{"children":[4],"name":"FrontLeg.R","rotation":[-2.256796705069064e-07,-3.7072167557994362e-09,0.7071067690849304,0.7071067690849304],"scale":[0.9999999403953552,0.9999999403953552,0.9999999403953552],"translation":[-0.38924640417099,0.8379976153373718,1.9708003997802734]},{"name":"BackLowLeg.R_end","rotation":[-7.636845111846924e-08,3.3943869937047566e-08,-2.980233659855003e-08,1],"scale":[1,1,0.9999999403953552],"translation":[-8.478350110863175e-08,2.1711878776550293,-9.312849869047568e-08]},{"children":[6],"name":"BackLowLeg.R","rotation":[-0.3593639135360718,0.01805856265127659,0.006955529563128948,0.9329968094825745],"scale":[0.9999999403953552,0.9999999403953552,0.9999998807907104],"translation":[2.60770320892334e-08,1.0874388217926025,2.2351741790771484e-08]},{"children":[7],"name":"BackUpLeg.R","rotation":[-0.6769956946372986,0.668589174747467,-0.2041482776403427,0.23019294440746307],"scale":[1,1.0000001192092896,0.9999999403953552],"translation":[1.868749421873872e-07,0.821382462978363,-9.686988278190256e-08]},{"children":[8],"name":"BackLeg.R","rotation":[-3.1623457630303164e-07,-9.426211988738942e-08,0.7071067690849304,0.7071067690849304],"scale":[0.9999999403953552,0.9999999403953552,0.9999999403953552],"translation":[-0.544836699962616,0.8379977345466614,-1.874550461769104]},{"name":"FrontLowLeg.L_end","rotation":[8.568166265376931e-08,-3.6406284209533624e-08,3.818425042823037e-08,1],"scale":[1,1,1.0000001192092896],"translation":[5.8531067992362296e-08,1.5877679586410522,-4.456597366697679e-07]},{"children":[10],"name":"FrontLowLeg.L","rotation":[0.13220712542533875,0.05182735249400139,-0.0069222599267959595,0.9898420572280884],"scale":[0.9999999403953552,1,0.9999998211860657],"translation":[8.381903171539307e-08,1.4804563522338867,-1.1175870895385742e-07]},{"children":[11],"name":"FrontUpLeg.L","rotation":[-0.021431097760796547,-0.09512419998645782,0.7067819833755493,0.7006792426109314],"scale":[0.9999999403953552,1,1],"translation":[3.606097465080893e-08,0.7349482178688049,-2.4436900503133074e-08]},{"children":[12],"name":"FrontLeg.L","rotation":[-0.7071067690849304,-0.7071067690849304,7.41426298134229e-09,2.2197245641564223e-07],"scale":[0.9999999403953552,0.9999999403953552,0.9999999403953552],"translation":[0.3276137709617615,0.8379976153373718,1.9708003997802734]},{"name":"BackLowLeg.L_end","rotation":[-1.0058283805847168e-07,5.868565722266794e-08,-5.494806032402266e-08,1],"translation":[-4.7725986718205604e-08,2.1711883544921875,2.337911269023607e-07]},{"children":[14],"name":"BackLowLeg.L","rotation":[-0.3594149351119995,-0.008867672644555569,-0.003415595507249236,0.9331294298171997],"scale":[1,1.0000001192092896,1.0000001192092896],"translation":[-1.0058283805847168e-07,1.087438941001892,-2.5704503059387207e-07]},{"children":[15],"name":"BackUpLeg.L","rotation":[0.21080635488033295,0.2235960215330124,0.6749522089958191,0.6708241701126099],"scale":[0.9999999403953552,0.9999998211860657,0.9999998211860657],"translation":[2.4450903879369434e-07,0.8213828802108765,-1.723972786749073e-08]},{"children":[16],"name":"BackLeg.L","rotation":[-0.7071067690849304,-0.7071067690849304,1.0423025287309429e-07,3.0626614488937776e-07],"scale":[0.9999999403953552,0.9999999403953552,0.9999999403953552],"translation":[0.4832038879394531,0.8379977345466614,-1.874550461769104]},{"name":"Back_end","rotation":[4.470348358154297e-08,-1.687538997430238e-13,2.3441934970860195e-14,1],"scale":[0.9999999403953552,1,1],"translation":[-2.728796744122519e-09,0.9700949192047119,3.746008303551207e-07]},{"children":[18],"name":"Back","rotation":[0.5953486561775208,1.9156188102442684e-07,1.419423938386899e-07,0.8034675121307373],"scale":[0.9999999403953552,0.9999998807907104,0.9999998807907104],"translation":[-0.03228270635008812,1.4074057340621948,-2.532553195953369]},{"name":"Head_end","rotation":[1.1270459054912862e-07,-1.7229469051471824e-07,-5.186302587389946e-08,1],"scale":[1,1,0.9999999403953552],"translation":[-3.2782554626464844e-07,1.497573971748352,-5.252659320831299e-07]},{"children":[20],"name":"Head","rotation":[-0.4434310793876648,-0.2303972691297531,0.11800065636634827,0.8581153154373169],"scale":[1,1.0000001192092896,1.0000001192092896],"translation":[-4.801222530659288e-09,1.0503184795379639,-3.765655947063351e-07]},{"children":[21],"name":"Neck","rotation":[-0.08963675051927567,-0.01969723589718342,-0.01825219765305519,0.9956124424934387],"scale":[1,1,1.0000001192092896],"translation":[-3.166496753692627e-08,1.2608036994934082,-5.657784640789032e-08]},{"children":[22],"name":"Shoulders","rotation":[-0.007670386228710413,-0.9327370524406433,-0.3595561385154724,0.02573317475616932],"scale":[1,0.9999998211860657,0.9999998211860657],"translation":[-0.0736546441912651,1.8077160120010376,1.8519929647445679]},{"name":"Torso_end","rotation":[1.05988542387081e-08,-9.463838779311118e-08,-7.785274647176266e-10,1],"scale":[1,1,0.9999998807907104],"translation":[6.51925802230835e-09,1.5270239114761353,-4.1752423385332804e-07]},{"children":[24],"name":"Torso","rotation":[0.052304621785879135,0.0007429239340126514,-0.0135282501578331,0.9985392689704895],"scale":[1,1.0000001192092896,0.9999998807907104],"translation":[1.452716169580981e-09,1.5973738431930542,7.287709991032898e-08]},{"children":[25],"name":"Hips","rotation":[5.193800006964011e-06,0.6954637765884399,0.7185611724853516,5.026850885769818e-06],"scale":[0.9999999403953552,0.9999997615814209,0.9999998807907104],"translation":[-0.03228270635008812,1.6898193359375,-1.604475975036621]},{"children":[5,9,13,17,19,23,26],"name":"Body","scale":[0.9999999403953552,0.9999999403953552,0.9999999403953552],"translation":[0.005377649329602718,2.302082061767578,-0.01735416054725647]},{"name":"BackFoot.R_end","rotation":[0,0,1.355252877165594e-20,1],"scale":[0.9999999403953552,0.9999999403953552,0.9999999403953552],"translation":[-3.89510965703721e-08,0.6745370626449585,-1.769791424521827e-08]},{"children":[28],"name":"BackFoot.R","rotation":[0.7071067690849304,-9.806157095226808e-07,-9.806157095226808e-07,0.7071067690849304],"scale":[0.9999999403953552,0.9999999403953552,0.9999999403953552],"translation":[-1.4430116415023804,0.10000347346067429,-2.300743579864502]},{"name":"FrontFoot.L_end","scale":[0.9999999403953552,0.9999999403953552,0.9999999403953552],"translation":[8.730168588044762e-09,1,6.14079453953309e-09]},{"children":[30],"name":"FrontFoot.L","rotation":[0.7071067690849304,-1.2334969596849987e-06,-1.2334969596849987e-06,0.7071067690849304],"scale":[0.9999999403953552,0.9999999403953552,0.9999999403953552],"translation":[1.0556323528289795,0.10000347346067429,2.0247292518615723]},{"name":"BackFoot.L_end","rotation":[0,0,2.7218737524194667e-21,1],"scale":[0.9999999403953552,0.9999999403953552,0.9999999403953552],"translation":[-1.5112526341454213e-08,0.6745370626449585,-1.488803036409081e-08]},{"children":[32],"name":"BackFoot.L","rotation":[0.7071067690849304,-1.3177906339478795e-06,-1.3177906339478795e-06,0.7071067690849304],"scale":[0.9999999403953552,0.9999999403953552,0.9999999403953552],"translation":[1.3921349048614502,0.10000347346067429,-2.300743579864502]},{"children":[1,27,29,31,33],"name":"root","scale":[0.9999999403953552,0.9999999403953552,0.9999999403953552]},{"mesh":0,"name":"Pug","skin":0},{"children":[35,34],"name":"Armature","scale":[0.3954920768737793,0.3954920768737793,0.3954920768737793]}],"animations":[{"channels":[{"sampler":0,"target":{"node":34,"path":"translation"}},{"sampler":1,"target":{"node":34,"path":"rotation"}},{"sampler":2,"target":{"node":34,"path":"scale"}},{"sampler":3,"target":{"node":1,"path":"translation"}},{"sampler":4,"target":{"node":1,"path":"rotation"}},{"sampler":5,"target":{"node":1,"path":"scale"}},{"sampler":6,"target":{"node":0,"path":"translation"}},{"sampler":7,"target":{"node":0,"path":"rotation"}},{"sampler":8,"target":{"node":0,"path":"scale"}},{"sampler":9,"target":{"node":27,"path":"translation"}},{"sampler":10,"target":{"node":27,"path":"rotation"}},{"sampler":11,"target":{"node":27,"path":"scale"}},{"sampler":12,"target":{"node":5,"path":"translation"}},{"sampler":13,"target":{"node":5,"path":"rotation"}},{"sampler":14,"target":{"node":5,"path":"scale"}},{"sampler":15,"target":{"node":4,"path":"translation"}},{"sampler":16,"target":{"node":4,"path":"rotation"}},{"sampler":17,"target":{"node":4,"path":"scale"}},{"sampler":18,"target":{"node":3,"path":"translation"}},{"sampler":19,"target":{"node":3,"path":"rotation"}},{"sampler":20,"target":{"node":3,"path":"scale"}},{"sampler":21,"target":{"node":2,"path":"translation"}},{"sampler":22,"target":{"node":2,"path":"rotation"}},{"sampler":23,"target":{"node":2,"path":"scale"}},{"sampler":24,"target":{"node":9,"path":"translation"}},{"sampler":25,"target":{"node":9,"path":"rotation"}},{"sampler":26,"target":{"node":9,"path":"scale"}},{"sampler":27,"target":{"node":8,"path":"translation"}},{"sampler":28,"target":{"node":8,"path":"rotation"}},{"sampler":29,"target":{"node":8,"path":"scale"}},{"sampler":30,"target":{"node":7,"path":"translation"}},{"sampler":31,"target":{"node":7,"path":"rotation"}},{"sampler":32,"target":{"node":7,"path":"scale"}},{"sampler":33,"target":{"node":6,"path":"translation"}},{"sampler":34,"target":{"node":6,"path":"rotation"}},{"sampler":35,"target":{"node":6,"path":"scale"}},{"sampler":36,"target":{"node":13,"path":"translation"}},{"sampler":37,"target":{"node":13,"path":"rotation"}},{"sampler":38,"target":{"node":13,"path":"scale"}},{"sampler":39,"target":{"node":12,"path":"translation"}},{"sampler":40,"target":{"node":12,"path":"rotation"}},{"sampler":41,"target":{"node":12,"path":"scale"}},{"sampler":42,"target":{"node":11,"path":"translation"}},{"sampler":43,"target":{"node":11,"path":"rotation"}},{"sampler":44,"target":{"node":11,"path":"scale"}},{"sampler":45,"target":{"node":10,"path":"translation"}},{"sampler":46,"target":{"node":10,"path":"rotation"}},{"sampler":47,"target":{"node":10,"path":"scale"}},{"sampler":48,"target":{"node":17,"path":"translation"}},{"sampler":49,"target":{"node":17,"path":"rotation"}},{"sampler":50,"target":{"node":17,"path":"scale"}},{"sampler":51,"target":{"node":16,"path":"translation"}},{"sampler":52,"target":{"node":16,"path":"rotation"}},{"sampler":53,"target":{"node":16,"path":"scale"}},{"sampler":54,"target":{"node":15,"path":"translation"}},{"sampler":55,"target":{"node":15,"path":"rotation"}},{"sampler":56,"target":{"node":15,"path":"scale"}},{"sampler":57,"target":{"node":14,"path":"translation"}},{"sampler":58,"target":{"node":14,"path":"rotation"}},{"sampler":59,"target":{"node":14,"path":"scale"}},{"sampler":60,"target":{"node":19,"path":"translation"}},{"sampler":61,"target":{"node":19,"path":"rotation"}},{"sampler":62,"target":{"node":19,"path":"scale"}},{"sampler":63,"target":{"node":18,"path":"translation"}},{"sampler":64,"target":{"node":18,"path":"rotation"}},{"sampler":65,"target":{"node":18,"path":"scale"}},{"sampler":66,"target":{"node":23,"path":"translation"}},{"sampler":67,"target":{"node":23,"path":"rotation"}},{"sampler":68,"target":{"node":23,"path":"scale"}},{"sampler":69,"target":{"node":22,"path":"translation"}},{"sampler":70,"target":{"node":22,"path":"rotation"}},{"sampler":71,"target":{"node":22,"path":"scale"}},{"sampler":72,"target":{"node":21,"path":"translation"}},{"sampler":73,"target":{"node":21,"path":"rotation"}},{"sampler":74,"target":{"node":21,"path":"scale"}},{"sampler":75,"target":{"node":20,"path":"translation"}},{"sampler":76,"target":{"node":20,"path":"rotation"}},{"sampler":77,"target":{"node":20,"path":"scale"}},{"sampler":78,"target":{"node":26,"path":"translation"}},{"sampler":79,"target":{"node":26,"path":"rotation"}},{"sampler":80,"target":{"node":26,"path":"scale"}},{"sampler":81,"target":{"node":25,"path":"translation"}},{"sampler":82,"target":{"node":25,"path":"rotation"}},{"sampler":83,"target":{"node":25,"path":"scale"}},{"sampler":84,"target":{"node":24,"path":"translation"}},{"sampler":85,"target":{"node":24,"path":"rotation"}},{"sampler":86,"target":{"node":24,"path":"scale"}},{"sampler":87,"target":{"node":29,"path":"translation"}},{"sampler":88,"target":{"node":29,"path":"rotation"}},{"sampler":89,"target":{"node":29,"path":"scale"}},{"sampler":90,"target":{"node":28,"path":"translation"}},{"sampler":91,"target":{"node":28,"path":"rotation"}},{"sampler":92,"target":{"node":28,"path":"scale"}},{"sampler":93,"target":{"node":31,"path":"translation"}},{"sampler":94,"target":{"node":31,"path":"rotation"}},{"sampler":95,"target":{"node":31,"path":"scale"}},{"sampler":96,"target":{"node":30,"path":"translation"}},{"sampler":97,"target":{"node":30,"path":"rotation"}},{"sampler":98,"target":{"node":30,"path":"scale"}},{"sampler":99,"target":{"node":33,"path":"translation"}},{"sampler":100,"target":{"node":33,"path":"rotation"}},{"sampler":101,"target":{"node":33,"path":"scale"}},{"sampler":102,"target":{"node":32,"path":"translation"}},{"sampler":103,"target":{"node":32,"path":"rotation"}},{"sampler":104,"target":{"node":32,"path":"scale"}},{"sampler":105,"target":{"node":36,"path":"translation"}},{"sampler":106,"target":{"node":36,"path":"rotation"}},{"sampler":107,"target":{"node":36,"path":"scale"}}],"name":"Idle","samplers":[{"input":11,"interpolation":"STEP","output":12},{"input":11,"interpolation":"STEP","output":13},{"input":11,"interpolation":"STEP","output":14},{"input":11,"interpolation":"STEP","output":15},{"input":11,"interpolation":"STEP","output":16},{"input":11,"interpolation":"STEP","output":17},{"input":11,"interpolation":"STEP","output":18},{"input":11,"interpolation":"STEP","output":19},{"input":11,"interpolation":"STEP","output":20},{"input":21,"interpolation":"LINEAR","output":22},{"input":11,"interpolation":"STEP","output":23},{"input":11,"interpolation":"STEP","output":24},{"input":11,"interpolation":"STEP","output":25},{"input":21,"interpolation":"LINEAR","output":26},{"input":11,"interpolation":"STEP","output":27},{"input":11,"interpolation":"STEP","output":28},{"input":11,"interpolation":"STEP","output":29},{"input":11,"interpolation":"STEP","output":30},{"input":11,"interpolation":"STEP","output":31},{"input":21,"interpolation":"LINEAR","output":32},{"input":11,"interpolation":"STEP","output":33},{"input":11,"interpolation":"STEP","output":34},{"input":11,"interpolation":"STEP","output":35},{"input":11,"interpolation":"STEP","output":36},{"input":11,"interpolation":"STEP","output":37},{"input":21,"interpolation":"LINEAR","output":38},{"input":11,"interpolation":"STEP","output":39},{"input":11,"interpolation":"STEP","output":40},{"input":21,"interpolation":"LINEAR","output":41},{"input":11,"interpolation":"STEP","output":42},{"input":11,"interpolation":"STEP","output":43},{"input":21,"interpolation":"LINEAR","output":44},{"input":11,"interpolation":"STEP","output":45},{"input":11,"interpolation":"STEP","output":46},{"input":11,"interpolation":"STEP","output":47},{"input":11,"interpolation":"STEP","output":48},{"input":11,"interpolation":"STEP","output":49},{"input":21,"interpolation":"LINEAR","output":50},{"input":11,"interpolation":"STEP","output":51},{"input":11,"interpolation":"STEP","output":52},{"input":11,"interpolation":"STEP","output":53},{"input":11,"interpolation":"STEP","output":54},{"input":11,"interpolation":"STEP","output":55},{"input":21,"interpolation":"LINEAR","output":56},{"input":11,"interpolation":"STEP","output":57},{"input":11,"interpolation":"STEP","output":58},{"input":11,"interpolation":"STEP","output":59},{"input":11,"interpolation":"STEP","output":60},{"input":11,"interpolation":"STEP","output":61},{"input":21,"interpolation":"LINEAR","output":62},{"input":11,"interpolation":"STEP","output":63},{"input":11,"interpolation":"STEP","output":64},{"input":21,"interpolation":"LINEAR","output":65},{"input":11,"interpolation":"STEP","output":66},{"input":11,"interpolation":"STEP","output":67},{"input":21,"interpolation":"LINEAR","output":68},{"input":11,"interpolation":"STEP","output":69},{"input":11,"interpolation":"STEP","output":70},{"input":11,"interpolation":"STEP","output":71},{"input":11,"interpolation":"STEP","output":72},{"input":11,"interpolation":"STEP","output":73},{"input":11,"interpolation":"STEP","output":74},{"input":11,"interpolation":"STEP","output":75},{"input":11,"interpolation":"STEP","output":76},{"input":11,"interpolation":"STEP","output":77},{"input":11,"interpolation":"STEP","output":78},{"input":11,"interpolation":"STEP","output":79},{"input":11,"interpolation":"STEP","output":80},{"input":11,"interpolation":"STEP","output":81},{"input":11,"interpolation":"STEP","output":82},{"input":21,"interpolation":"LINEAR","output":83},{"input":11,"interpolation":"STEP","output":84},{"input":11,"interpolation":"STEP","output":85},{"input":21,"interpolation":"LINEAR","output":86},{"input":11,"interpolation":"STEP","output":87},{"input":11,"interpolation":"STEP","output":88},{"input":11,"interpolation":"STEP","output":89},{"input":11,"interpolation":"STEP","output":90},{"input":11,"interpolation":"STEP","output":91},{"input":11,"interpolation":"STEP","output":92},{"input":11,"interpolation":"STEP","output":93},{"input":11,"interpolation":"STEP","output":94},{"input":11,"interpolation":"STEP","output":95},{"input":11,"interpolation":"STEP","output":96},{"input":11,"interpolation":"STEP","output":97},{"input":11,"interpolation":"STEP","output":98},{"input":11,"interpolation":"STEP","output":99},{"input":11,"interpolation":"STEP","output":100},{"input":11,"interpolation":"STEP","output":101},{"input":11,"interpolation":"STEP","output":102},{"input":11,"interpolation":"STEP","output":103},{"input":11,"interpolation":"STEP","output":104},{"input":11,"interpolation":"STEP","output":105},{"input":11,"interpolation":"STEP","output":106},{"input":11,"interpolation":"STEP","output":107},{"input":11,"interpolation":"STEP","output":108},{"input":11,"interpolation":"STEP","output":109},{"input":11,"interpolation":"STEP","output":110},{"input":11,"interpolation":"STEP","output":111},{"input":11,"interpolation":"STEP","output":112},{"input":11,"interpolation":"STEP","output":113},{"input":11,"interpolation":"STEP","output":114},{"input":11,"interpolation":"STEP","output":115},{"input":11,"interpolation":"STEP","output":116},{"input":11,"interpolation":"STEP","output":117},{"input":11,"interpolation":"STEP","output":118},{"input":11,"interpolation":"STEP","output":119},{"input":11,"interpolation":"STEP","output":120}]}],"materials":[{"alphaMode":"MASK","doubleSided":true,"name":"Beige","pbrMetallicRoughness":{"baseColorFactor":[0.799102783203125,0.6038274168968201,0.33716365694999695,0],"metallicFactor":0,"roughnessFactor":0.690034806728363}},{"alphaMode":"MASK","doubleSided":true,"name":"Brown","pbrMetallicRoughness":{"baseColorFactor":[0.0396796315908432,0.01371098030358553,0.009019570425152779,0],"metallicFactor":0,"roughnessFactor":0.690034806728363}}],"meshes":[{"name":"Cylinder","primitives":[{"attributes":{"POSITION":0,"NORMAL":1,"JOINTS_0":2,"WEIGHTS_0":3},"indices":4,"material":0},{"attributes":{"POSITION":5,"NORMAL":6,"JOINTS_0":7,"WEIGHTS_0":8},"indices":9,"material":1}]}],"skins":[{"inverseBindMatrices":10,"joints":[34,1,0,27,5,4,3,2,9,8,7,6,13,12,11,10,17,16,15,14,19,18,23,22,21,20,26,25,24,29,28,31,30,33,32],"name":"Armature"}],"accessors":[{"bufferView":0,"componentType":5126,"count":884,"max":[0.7271539568901062,2.641889810562134,1.804360032081604],"min":[-0.727154016494751,0.04700664430856705,-1.4725255966186523],"type":"VEC3"},{"bufferView":1,"componentType":5126,"count":884,"type":"VEC3"},{"bufferView":2,"componentType":5121,"count":884,"type":"VEC4"},{"bufferView":3,"componentType":5126,"count":884,"type":"VEC4"},{"bufferView":4,"componentType":5123,"count":1344,"type":"SCALAR"},{"bufferView":5,"componentType":5126,"count":388,"max":[0.699802577495575,2.574003219604492,2.036550998687744],"min":[-0.6998026371002197,-0.017124837264418602,-0.920183002948761],"type":"VEC3"},{"bufferView":6,"componentType":5126,"count":388,"type":"VEC3"},{"bufferView":7,"componentType":5121,"count":388,"type":"VEC4"},{"bufferView":8,"componentType":5126,"count":388,"type":"VEC4"},{"bufferView":9,"componentType":5123,"count":588,"type":"SCALAR"},{"bufferView":10,"componentType":5126,"count":35,"type":"MAT4"},{"bufferView":11,"componentType":5126,"count":2,"max":[6.291666666666667],"min":[0.041666666666666664],"type":"SCALAR"},{"bufferView":12,"componentType":5126,"count":2,"type":"VEC3"},{"bufferView":13,"componentType":5126,"count":2,"type":"VEC4"},{"bufferView":14,"componentType":5126,"count":2,"type":"VEC3"},{"bufferView":15,"componentType":5126,"count":2,"type":"VEC3"},{"bufferView":16,"componentType":5126,"count":2,"type":"VEC4"},{"bufferView":17,"componentType":5126,"count":2,"type":"VEC3"},{"bufferView":18,"componentType":5126,"count":2,"type":"VEC3"},{"bufferView":19,"componentType":5126,"count":2,"type":"VEC4"},{"bufferView":20,"componentType":5126,"count":2,"type":"VEC3"},{"bufferView":21,"componentType":5126,"count":151,"max":[6.291666666666667],"min":[0.041666666666666664],"type":"SCALAR"},{"bufferView":22,"componentType":5126,"count":151,"type":"VEC3"},{"bufferView":23,"componentType":5126,"count":2,"type":"VEC4"},{"bufferView":24,"componentType":5126,"count":2,"type":"VEC3"},{"bufferView":25,"componentType":5126,"count":2,"type":"VEC3"},{"bufferView":26,"componentType":5126,"count":151,"type":"VEC4"},{"bufferView":27,"componentType":5126,"count":2,"type":"VEC3"},{"bufferView":28,"componentType":5126,"count":2,"type":"VEC3"},{"bufferView":29,"componentType":5126,"count":2,"type":"VEC4"},{"bufferView":30,"componentType":5126,"count":2,"type":"VEC3"},{"bufferView":31,"componentType":5126,"count":2,"type":"VEC3"},{"bufferView":32,"componentType":5126,"count":151,"type":"VEC4"},{"bufferView":33,"componentType":5126,"count":2,"type":"VEC3"},{"bufferView":34,"componentType":5126,"count":2,"type":"VEC3"},{"bufferView":35,"componentType":5126,"count":2,"type":"VEC4"},{"bufferView":36,"componentType":5126,"count":2,"type":"VEC3"},{"bufferView":37,"componentType":5126,"count":2,"type":"VEC3"},{"bufferView":38,"componentType":5126,"count":151,"type":"VEC4"},{"bufferView":39,"componentType":5126,"count":2,"type":"VEC3"},{"bufferView":40,"componentType":5126,"count":2,"type":"VEC3"},{"bufferView":41,"componentType":5126,"count":151,"type":"VEC4"},{"bufferView":42,"componentType":5126,"count":2,"type":"VEC3"},{"bufferView":43,"componentType":5126,"count":2,"type":"VEC3"},{"bufferView":44,"componentType":5126,"count":151,"type":"VEC4"},{"bufferView":45,"componentType":5126,"count":2,"type":"VEC3"},{"bufferView":46,"componentType":5126,"count":2,"type":"VEC3"},{"bufferView":47,"componentType":5126,"count":2,"type":"VEC4"},{"bufferView":48,"componentType":5126,"count":2,"type":"VEC3"},{"bufferView":49,"componentType":5126,"count":2,"type":"VEC3"},{"bufferView":50,"componentType":5126,"count":151,"type":"VEC4"},{"bufferView":51,"componentType":5126,"count":2,"type":"VEC3"},{"bufferView":52,"componentType":5126,"count":2,"type":"VEC3"},{"bufferView":53,"componentType":5126,"count":2,"type":"VEC4"},{"bufferView":54,"componentType":5126,"count":2,"type":"VEC3"},{"bufferView":55,"componentType":5126,"count":2,"type":"VEC3"},{"bufferView":56,"componentType":5126,"count":151,"type":"VEC4"},{"bufferView":57,"componentType":5126,"count":2,"type":"VEC3"},{"bufferView":58,"componentType":5126,"count":2,"type":"VEC3"},{"bufferView":59,"componentType":5126,"count":2,"type":"VEC4"},{"bufferView":60,"componentType":5126,"count":2,"type":"VEC3"},{"bufferView":61,"componentType":5126,"count":2,"type":"VEC3"},{"bufferView":62,"componentType":5126,"count":151,"type":"VEC4"},{"bufferView":63,"componentType":5126,"count":2,"type":"VEC3"},{"bufferView":64,"componentType":5126,"count":2,"type":"VEC3"},{"bufferView":65,"componentType":5126,"count":151,"type":"VEC4"},{"bufferView":66,"componentType":5126,"count":2,"type":"VEC3"},{"bufferView":67,"componentType":5126,"count":2,"type":"VEC3"},{"bufferView":68,"componentType":5126,"count":151,"type":"VEC4"},{"bufferView":69,"componentType":5126,"count":2,"type":"VEC3"},{"bufferView":70,"componentType":5126,"count":2,"type":"VEC3"},{"bufferView":71,"componentType":5126,"count":2,"type":"VEC4"},{"bufferView":72,"componentType":5126,"count":2,"type":"VEC3"},{"bufferView":73,"componentType":5126,"count":2,"type":"VEC3"},{"bufferView":74,"componentType":5126,"count":2,"type":"VEC4"},{"bufferView":75,"componentType":5126,"count":2,"type":"VEC3"},{"bufferView":76,"componentType":5126,"count":2,"type":"VEC3"},{"bufferView":77,"componentType":5126,"count":2,"type":"VEC4"},{"bufferView":78,"componentType":5126,"count":2,"type":"VEC3"},{"bufferView":79,"componentType":5126,"count":2,"type":"VEC3"},{"bufferView":80,"componentType":5126,"count":2,"type":"VEC4"},{"bufferView":81,"componentType":5126,"count":2,"type":"VEC3"},{"bufferView":82,"componentType":5126,"count":2,"type":"VEC3"},{"bufferView":83,"componentType":5126,"count":151,"type":"VEC4"},{"bufferView":84,"componentType":5126,"count":2,"type":"VEC3"},{"bufferView":85,"componentType":5126,"count":2,"type":"VEC3"},{"bufferView":86,"componentType":5126,"count":151,"type":"VEC4"},{"bufferView":87,"componentType":5126,"count":2,"type":"VEC3"},{"bufferView":88,"componentType":5126,"count":2,"type":"VEC3"},{"bufferView":89,"componentType":5126,"count":2,"type":"VEC4"},{"bufferView":90,"componentType":5126,"count":2,"type":"VEC3"},{"bufferView":91,"componentType":5126,"count":2,"type":"VEC3"},{"bufferView":92,"componentType":5126,"count":2,"type":"VEC4"},{"bufferView":93,"componentType":5126,"count":2,"type":"VEC3"},{"bufferView":94,"componentType":5126,"count":2,"type":"VEC3"},{"bufferView":95,"componentType":5126,"count":2,"type":"VEC4"},{"bufferView":96,"componentType":5126,"count":2,"type":"VEC3"},{"bufferView":97,"componentType":5126,"count":2,"type":"VEC3"},{"bufferView":98,"componentType":5126,"count":2,"type":"VEC4"},{"bufferView":99,"componentType":5126,"count":2,"type":"VEC3"},{"bufferView":100,"componentType":5126,"count":2,"type":"VEC3"},{"bufferView":101,"componentType":5126,"count":2,"type":"VEC4"},{"bufferView":102,"componentType":5126,"count":2,"type":"VEC3"},{"bufferView":103,"componentType":5126,"count":2,"type":"VEC3"},{"bufferView":104,"componentType":5126,"count":2,"type":"VEC4"},{"bufferView":105,"componentType":5126,"count":2,"type":"VEC3"},{"bufferView":106,"componentType":5126,"count":2,"type":"VEC3"},{"bufferView":107,"componentType":5126,"count":2,"type":"VEC4"},{"bufferView":108,"componentType":5126,"count":2,"type":"VEC3"},{"bufferView":109,"componentType":5126,"count":2,"type":"VEC3"},{"bufferView":110,"componentType":5126,"count":2,"type":"VEC4"},{"bufferView":111,"componentType":5126,"count":2,"type":"VEC3"},{"bufferView":112,"componentType":5126,"count":2,"type":"VEC3"},{"bufferView":113,"componentType":5126,"count":2,"type":"VEC4"},{"bufferView":114,"componentType":5126,"count":2,"type":"VEC3"},{"bufferView":115,"componentType":5126,"count":2,"type":"VEC3"},{"bufferView":116,"componentType":5126,"count":2,"type":"VEC4"},{"bufferView":117,"componentType":5126,"count":2,"type":"VEC3"},{"bufferView":118,"componentType":5126,"count":2,"type":"VEC3"},{"bufferView":119,"componentType":5126,"count":2,"type":"VEC4"},{"bufferView":120,"componentType":5126,"count":2,"type":"VEC3"}],"bufferViews":[{"buffer":0,"byteLength":10608,"byteOffset":0,"target":34962},{"buffer":0,"byteLength":10608,"byteOffset":10608,"target":34962},{"buffer":0,"byteLength":3536,"byteOffset":21216,"target":34962},{"buffer":0,"byteLength":14144,"byteOffset":24752,"target":34962},{"buffer":0,"byteLength":2688,"byteOffset":38896,"target":34963},{"buffer":0,"byteLength":4656,"byteOffset":41584,"target":34962},{"buffer":0,"byteLength":4656,"byteOffset":46240,"target":34962},{"buffer":0,"byteLength":1552,"byteOffset":50896,"target":34962},{"buffer":0,"byteLength":6208,"byteOffset":52448,"target":34962},{"buffer":0,"byteLength":1176,"byteOffset":58656,"target":34963},{"buffer":0,"byteLength":2240,"byteOffset":59832},{"buffer":0,"byteLength":8,"byteOffset":62072},{"buffer":0,"byteLength":24,"byteOffset":62080},{"buffer":0,"byteLength":32,"byteOffset":62104},{"buffer":0,"byteLength":24,"byteOffset":62136},{"buffer":0,"byteLength":24,"byteOffset":62160},{"buffer":0,"byteLength":32,"byteOffset":62184},{"buffer":0,"byteLength":24,"byteOffset":62216},{"buffer":0,"byteLength":24,"byteOffset":62240},{"buffer":0,"byteLength":32,"byteOffset":62264},{"buffer":0,"byteLength":24,"byteOffset":62296},{"buffer":0,"byteLength":604,"byteOffset":62320},{"buffer":0,"byteLength":1812,"byteOffset":62924},{"buffer":0,"byteLength":32,"byteOffset":64736},{"buffer":0,"byteLength":24,"byteOffset":64768},{"buffer":0,"byteLength":24,"byteOffset":64792},{"buffer":0,"byteLength":2416,"byteOffset":64816},{"buffer":0,"byteLength":24,"byteOffset":67232},{"buffer":0,"byteLength":24,"byteOffset":67256},{"buffer":0,"byteLength":32,"byteOffset":67280},{"buffer":0,"byteLength":24,"byteOffset":67312},{"buffer":0,"byteLength":24,"byteOffset":67336},{"buffer":0,"byteLength":2416,"byteOffset":67360},{"buffer":0,"byteLength":24,"byteOffset":69776},{"buffer":0,"byteLength":24,"byteOffset":69800},{"buffer":0,"byteLength":32,"byteOffset":69824},{"buffer":0,"byteLength":24,"byteOffset":69856},{"buffer":0,"byteLength":24,"byteOffset":69880},{"buffer":0,"byteLength":2416,"byteOffset":69904},{"buffer":0,"byteLength":24,"byteOffset":72320},{"buffer":0,"byteLength":24,"byteOffset":72344},{"buffer":0,"byteLength":2416,"byteOffset":72368},{"buffer":0,"byteLength":24,"byteOffset":74784},{"buffer":0,"byteLength":24,"byteOffset":74808},{"buffer":0,"byteLength":2416,"byteOffset":74832},{"buffer":0,"byteLength":24,"byteOffset":77248},{"buffer":0,"byteLength":24,"byteOffset":77272},{"buffer":0,"byteLength":32,"byteOffset":77296},{"buffer":0,"byteLength":24,"byteOffset":77328},{"buffer":0,"byteLength":24,"byteOffset":77352},{"buffer":0,"byteLength":2416,"byteOffset":77376},{"buffer":0,"byteLength":24,"byteOffset":79792},{"buffer":0,"byteLength":24,"byteOffset":79816},{"buffer":0,"byteLength":32,"byteOffset":79840},{"buffer":0,"byteLength":24,"byteOffset":79872},{"buffer":0,"byteLength":24,"byteOffset":79896},{"buffer":0,"byteLength":2416,"byteOffset":79920},{"buffer":0,"byteLength":24,"byteOffset":82336},{"buffer":0,"byteLength":24,"byteOffset":82360},{"buffer":0,"byteLength":32,"byteOffset":82384},{"buffer":0,"byteLength":24,"byteOffset":82416},{"buffer":0,"byteLength":24,"byteOffset":82440},{"buffer":0,"byteLength":2416,"byteOffset":82464},{"buffer":0,"byteLength":24,"byteOffset":84880},{"buffer":0,"byteLength":24,"byteOffset":84904},{"buffer":0,"byteLength":2416,"byteOffset":84928},{"buffer":0,"byteLength":24,"byteOffset":87344},{"buffer":0,"byteLength":24,"byteOffset":87368},{"buffer":0,"byteLength":2416,"byteOffset":87392},{"buffer":0,"byteLength":24,"byteOffset":89808},{"buffer":0,"byteLength":24,"byteOffset":89832},{"buffer":0,"byteLength":32,"byteOffset":89856},{"buffer":0,"byteLength":24,"byteOffset":89888},{"buffer":0,"byteLength":24,"byteOffset":89912},{"buffer":0,"byteLength":32,"byteOffset":89936},{"buffer":0,"byteLength":24,"byteOffset":89968},{"buffer":0,"byteLength":24,"byteOffset":89992},{"buffer":0,"byteLength":32,"byteOffset":90016},{"buffer":0,"byteLength":24,"byteOffset":90048},{"buffer":0,"byteLength":24,"byteOffset":90072},{"buffer":0,"byteLength":32,"byteOffset":90096},{"buffer":0,"byteLength":24,"byteOffset":90128},{"buffer":0,"byteLength":24,"byteOffset":90152},{"buffer":0,"byteLength":2416,"byteOffset":90176},{"buffer":0,"byteLength":24,"byteOffset":92592},{"buffer":0,"byteLength":24,"byteOffset":92616},{"buffer":0,"byteLength":2416,"byteOffset":92640},{"buffer":0,"byteLength":24,"byteOffset":95056},{"buffer":0,"byteLength":24,"byteOffset":95080},{"buffer":0,"byteLength":32,"byteOffset":95104},{"buffer":0,"byteLength":24,"byteOffset":95136},{"buffer":0,"byteLength":24,"byteOffset":95160},{"buffer":0,"byteLength":32,"byteOffset":95184},{"buffer":0,"byteLength":24,"byteOffset":95216},{"buffer":0,"byteLength":24,"byteOffset":95240},{"buffer":0,"byteLength":32,"byteOffset":95264},{"buffer":0,"byteLength":24,"byteOffset":95296},{"buffer":0,"byteLength":24,"byteOffset":95320},{"buffer":0,"byteLength":32,"byteOffset":95344},{"buffer":0,"byteLength":24,"byteOffset":95376},{"buffer":0,"byteLength":24,"byteOffset":95400},{"buffer":0,"byteLength":32,"byteOffset":95424},{"buffer":0,"byteLength":24,"byteOffset":95456},{"buffer":0,"byteLength":24,"byteOffset":95480},{"buffer":0,"byteLength":32,"byteOffset":95504},{"buffer":0,"byteLength":24,"byteOffset":95536},{"buffer":0,"byteLength":24,"byteOffset":95560},{"buffer":0,"byteLength":32,"byteOffset":95584},{"buffer":0,"byteLength":24,"byteOffset":95616},{"buffer":0,"byteLength":24,"byteOffset":95640},{"buffer":0,"byteLength":32,"byteOffset":95664},{"buffer":0,"byteLength":24,"byteOffset":95696},{"buffer":0,"byteLength":24,"byteOffset":95720},{"buffer":0,"byteLength":32,"byteOffset":95744},{"buffer":0,"byteLength":24,"byteOffset":95776},{"buffer":0,"byteLength":24,"byteOffset":95800},{"buffer":0,"byteLength":32,"byteOffset":95824},{"buffer":0,"byteLength":24,"byteOffset":95856},{"buffer":0,"byteLength":24,"byteOffset":95880},{"buffer":0,"byteLength":32,"byteOffset":95904},{"buffer":0,"byteLength":24,"byteOffset":95936}],"buffers":[{"byteLength":95960,"uri":"data:application/octet-stream;base64,"}]}