{"asset":{"generator":"Khronos glTF Blender I/O v4.2.57","version":"2.0"},"scene":0,"scenes":[{"name":"Scene","nodes":[36]}],"nodes":[{"name":"FrontFoot.R_end","translation":[-2.7027681426261552e-08,1,1.3380656582739903e-09]},{"children":[0],"name":"FrontFoot.R","rotation":[0.7071067690849304,-7.277346867340384e-07,-7.277346867340384e-07,0.7071067690849304],"translation":[-0.9117709994316101,0.10000348091125488,1.1625418663024902]},{"name":"FrontLowLeg.R_end","rotation":[-5.9604641222676946e-08,-1.2689851391911589e-09,-7.800817769521018e-10,1],"translation":[-5.513878242879855e-09,1.0788065195083618,-1.1647145470305986e-07]},{"children":[2],"name":"FrontLowLeg.R","rotation":[0.17248359322547913,-0.018698053434491158,0.0032748582307249308,0.9848294258117676],"scale":[1,0.9999998807907104,1],"translation":[-1.6763806343078613e-08,1.232860803604126,1.4528632164001465e-07]},{"children":[3],"name":"FrontUpLeg.R","rotation":[0.7048205137252808,-0.7021560072898865,-0.05681566148996353,0.08352852612733841],"translation":[-4.351539928393322e-08,0.6025583148002625,-5.218754495217581e-08]},{"children":[4],"name":"FrontLeg.R","rotation":[0.49999988079071045,-0.5000000596046448,0.5000000596046448,0.5000001192092896],"translation":[-0.3246806859970093,-1.1086128950119019,0.07351642847061157]},{"name":"BackLowLeg.R_end","rotation":[7.078052277620372e-08,1.3450427438499446e-09,9.313303461766509e-10,1],"scale":[1,0.9999999403953552,0.9999999403953552],"translation":[-5.3179629588839816e-08,1.413931131362915,-8.840545717703208e-08]},{"children":[6],"name":"BackLowLeg.R","rotation":[-0.3871189057826996,0.01784214936196804,0.007492729928344488,0.9218267202377319],"scale":[1,1.000000238418579,1.0000001192092896],"translation":[8.195638656616211e-08,1.0874382257461548,-1.1734664440155029e-07]},{"children":[7],"name":"BackUpLeg.R","rotation":[-0.6769956946372986,0.6685891151428223,-0.20414835214614868,0.23019298911094666],"scale":[1,0.9999998807907104,1.0000001192092896],"translation":[1.0790629545454067e-07,0.469583123922348,-9.271161616197787e-08]},{"children":[8],"name":"BackLeg.R","rotation":[0.49999964237213135,-0.5000001788139343,0.4999998211860657,0.5000003576278687],"translation":[-0.3246806859970093,1.2089414596557617,0.07351633161306381]},{"name":"FrontLowLeg.L_end","rotation":[1.0430814256778831e-07,-4.934451425242514e-08,5.215410681103094e-08,1],"scale":[1,0.9999999403953552,0.9999999403953552],"translation":[3.890200162004476e-08,1.0788066387176514,-1.3436786616694008e-07]},{"children":[10],"name":"FrontLowLeg.L","rotation":[0.1722785085439682,0.05150364339351654,-0.009020354598760605,0.983659565448761],"scale":[0.9999999403953552,1,1],"translation":[9.313225746154785e-09,1.2328612804412842,1.043081283569336e-07]},{"children":[11],"name":"FrontUpLeg.L","rotation":[-0.033298853784799576,-0.10687897354364395,0.7063223719596863,0.6989827156066895],"scale":[1,0.9999999403953552,0.9999999403953552],"translation":[-7.364307208490573e-08,0.6025584936141968,1.4076988463784801e-08]},{"children":[12],"name":"FrontLeg.L","rotation":[-0.49999988079071045,-0.5000000596046448,-0.5000000596046448,0.5000001192092896],"translation":[0.2630481719970703,-1.1086128950119019,0.07351642847061157]},{"name":"BackLowLeg.L_end","rotation":[-1.303851746570217e-07,-1.7978218913583532e-09,-1.2291190287783138e-10,1],"translation":[3.891498678854077e-08,1.4139307737350464,1.357146572900092e-08]},{"children":[14],"name":"BackLowLeg.L","rotation":[-0.38717368245124817,-0.00876154750585556,-0.0036795232445001602,0.9219578504562378],"scale":[1,1,1.0000001192092896],"translation":[3.725290298461914e-08,1.0874383449554443,-5.960464477539063e-08]},{"children":[15],"name":"BackUpLeg.L","rotation":[0.2108064442873001,0.22359643876552582,0.6749520301818848,0.6708241105079651],"scale":[1.0000001192092896,1,1],"translation":[1.4973547735053216e-08,0.46958306431770325,-4.819162313651759e-08]},{"children":[16],"name":"BackLeg.L","rotation":[-0.4999997615814209,-0.5000002980232239,-0.4999997317790985,0.5000002384185791],"scale":[1,0.9999999403953552,1],"translation":[0.2630481719970703,1.2089414596557617,0.07351633161306381]},{"name":"Back_end","rotation":[-2.9802322387695312e-08,2.220446049250313e-14,-1.4210851327070215e-14,1],"translation":[6.964171461731894e-10,0.9700956344604492,2.2558923262749886e-07]},{"children":[18],"name":"Back","rotation":[0.989112377166748,3.508622725689747e-08,2.3582289543355728e-07,0.14716224372386932],"scale":[1,1,0.9999999403953552],"translation":[-0.03228271007537842,2.0330896377563477,0.5012155771255493]},{"name":"Head_end","rotation":[2.4010661903162145e-08,-2.9802322387695312e-08,-2.089655204429164e-08,1],"scale":[1,0.9999999403953552,1],"translation":[2.2165477275848389e-07,1.304664969444275,-7.990747690200806e-07]},{"children":[20],"name":"Head","rotation":[-0.6495658159255981,-0.19198346138000488,0.17329831421375275,0.7149645090103149],"scale":[0.9999999403953552,0.9999998211860657,0.9999997615814209],"translation":[7.421476766467094e-10,0.9685486555099487,-1.0169057418352168e-07]},{"children":[21],"name":"Neck","rotation":[0.07927516102790833,-0.021147340536117554,-0.014362231828272343,0.9965249300003052],"translation":[2.0489096641540527e-08,0.9995870590209961,-1.6042031347751617e-07]},{"children":[22],"name":"Shoulders","rotation":[0.012807255610823631,-0.3614599108695984,-0.9320372343063354,0.022121116518974304],"scale":[0.9999999403953552,0.9999997019767761,0.9999994039535522],"translation":[-0.06895045191049576,-1.032051920890808,0.3097134232521057]},{"name":"Torso_end","rotation":[-2.1168491404210954e-09,1.3707905921478414e-08,4.9840318538940664e-09,1],"scale":[0.9999999403953552,0.9999998807907104,0.9999999403953552],"translation":[6.51925802230835e-09,1.159273386001587,5.6035787565633655e-08]},{"children":[24],"name":"Torso","rotation":[0.0651833564043045,0.000833739759400487,-0.01783096231520176,0.9977136254310608],"scale":[1,1,0.9999998807907104],"translation":[2.3538717641713447e-09,1.467173457145691,2.154166622858611e-08]},{"children":[25],"name":"Hips","rotation":[-4.843103397433879e-06,0.01778215356171131,-0.9998419284820557,8.613441337956829e-08],"scale":[1,1,1.0000004768371582],"translation":[-0.03228271007537842,1.1050121784210205,0.7836293578147888]},{"children":[5,9,13,17,19,23,26],"name":"Body","rotation":[-0.7071067690849304,0,0,0.7071067690849304],"translation":[0.005377650260925293,2.3020823001861572,-0.01735416054725647]},{"name":"BackFoot.R_end","translation":[-2.702769030804575e-08,0.674536943435669,-6.301377197814872e-10]},{"children":[28],"name":"BackFoot.R","rotation":[0.7071067690849304,-7.277346867340384e-07,-7.277346867340384e-07,0.7071067690849304],"translation":[-0.8358624577522278,0.10000348091125488,-1.635134220123291]},{"name":"FrontFoot.L_end","translation":[-3.189133623848761e-09,1,1.918778025356005e-09]},{"children":[30],"name":"FrontFoot.L","rotation":[0.7071067690849304,-1.0649094974723994e-06,-1.0649094974723994e-06,0.7071067690849304],"translation":[0.860893964767456,0.10000348091125488,1.1625418663024902]},{"name":"BackFoot.L_end","translation":[-3.1891598251121422e-09,0.674536943435669,-2.596465265014558e-09]},{"children":[32],"name":"BackFoot.L","rotation":[0.7071067690849304,-1.0649094974723994e-06,-1.0649094974723994e-06,0.7071067690849304],"translation":[0.7849856615066528,0.10000348091125488,-1.635134220123291]},{"children":[1,27,29,31,33],"name":"root"},{"mesh":0,"name":"Sheep","skin":0},{"children":[35,34],"name":"Armature"}],"animations":[{"channels":[{"sampler":0,"target":{"node":34,"path":"translation"}},{"sampler":1,"target":{"node":34,"path":"rotation"}},{"sampler":2,"target":{"node":34,"path":"scale"}},{"sampler":3,"target":{"node":1,"path":"translation"}},{"sampler":4,"target":{"node":1,"path":"rotation"}},{"sampler":5,"target":{"node":1,"path":"scale"}},{"sampler":6,"target":{"node":0,"path":"translation"}},{"sampler":7,"target":{"node":0,"path":"rotation"}},{"sampler":8,"target":{"node":0,"path":"scale"}},{"sampler":9,"target":{"node":27,"path":"translation"}},{"sampler":10,"target":{"node":27,"path":"rotation"}},{"sampler":11,"target":{"node":27,"path":"scale"}},{"sampler":12,"target":{"node":5,"path":"translation"}},{"sampler":13,"target":{"node":5,"path":"rotation"}},{"sampler":14,"target":{"node":5,"path":"scale"}},{"sampler":15,"target":{"node":4,"path":"translation"}},{"sampler":16,"target":{"node":4,"path":"rotation"}},{"sampler":17,"target":{"node":4,"path":"scale"}},{"sampler":18,"target":{"node":3,"path":"translation"}},{"sampler":19,"target":{"node":3,"path":"rotation"}},{"sampler":20,"target":{"node":3,"path":"scale"}},{"sampler":21,"target":{"node":2,"path":"translation"}},{"sampler":22,"target":{"node":2,"path":"rotation"}},{"sampler":23,"target":{"node":2,"path":"scale"}},{"sampler":24,"target":{"node":9,"path":"translation"}},{"sampler":25,"target":{"node":9,"path":"rotation"}},{"sampler":26,"target":{"node":9,"path":"scale"}},{"sampler":27,"target":{"node":8,"path":"translation"}},{"sampler":28,"target":{"node":8,"path":"rotation"}},{"sampler":29,"target":{"node":8,"path":"scale"}},{"sampler":30,"target":{"node":7,"path":"translation"}},{"sampler":31,"target":{"node":7,"path":"rotation"}},{"sampler":32,"target":{"node":7,"path":"scale"}},{"sampler":33,"target":{"node":6,"path":"translation"}},{"sampler":34,"target":{"node":6,"path":"rotation"}},{"sampler":35,"target":{"node":6,"path":"scale"}},{"sampler":36,"target":{"node":13,"path":"translation"}},{"sampler":37,"target":{"node":13,"path":"rotation"}},{"sampler":38,"target":{"node":13,"path":"scale"}},{"sampler":39,"target":{"node":12,"path":"translation"}},{"sampler":40,"target":{"node":12,"path":"rotation"}},{"sampler":41,"target":{"node":12,"path":"scale"}},{"sampler":42,"target":{"node":11,"path":"translation"}},{"sampler":43,"target":{"node":11,"path":"rotation"}},{"sampler":44,"target":{"node":11,"path":"scale"}},{"sampler":45,"target":{"node":10,"path":"translation"}},{"sampler":46,"target":{"node":10,"path":"rotation"}},{"sampler":47,"target":{"node":10,"path":"scale"}},{"sampler":48,"target":{"node":17,"path":"translation"}},{"sampler":49,"target":{"node":17,"path":"rotation"}},{"sampler":50,"target":{"node":17,"path":"scale"}},{"sampler":51,"target":{"node":16,"path":"translation"}},{"sampler":52,"target":{"node":16,"path":"rotation"}},{"sampler":53,"target":{"node":16,"path":"scale"}},{"sampler":54,"target":{"node":15,"path":"translation"}},{"sampler":55,"target":{"node":15,"path":"rotation"}},{"sampler":56,"target":{"node":15,"path":"scale"}},{"sampler":57,"target":{"node":14,"path":"translation"}},{"sampler":58,"target":{"node":14,"path":"rotation"}},{"sampler":59,"target":{"node":14,"path":"scale"}},{"sampler":60,"target":{"node":19,"path":"translation"}},{"sampler":61,"target":{"node":19,"path":"rotation"}},{"sampler":62,"target":{"node":19,"path":"scale"}},{"sampler":63,"target":{"node":18,"path":"translation"}},{"sampler":64,"target":{"node":18,"path":"rotation"}},{"sampler":65,"target":{"node":18,"path":"scale"}},{"sampler":66,"target":{"node":23,"path":"translation"}},{"sampler":67,"target":{"node":23,"path":"rotation"}},{"sampler":68,"target":{"node":23,"path":"scale"}},{"sampler":69,"target":{"node":22,"path":"translation"}},{"sampler":70,"target":{"node":22,"path":"rotation"}},{"sampler":71,"target":{"node":22,"path":"scale"}},{"sampler":72,"target":{"node":21,"path":"translation"}},{"sampler":73,"target":{"node":21,"path":"rotation"}},{"sampler":74,"target":{"node":21,"path":"scale"}},{"sampler":75,"target":{"node":20,"path":"translation"}},{"sampler":76,"target":{"node":20,"path":"rotation"}},{"sampler":77,"target":{"node":20,"path":"scale"}},{"sampler":78,"target":{"node":26,"path":"translation"}},{"sampler":79,"target":{"node":26,"path":"rotation"}},{"sampler":80,"target":{"node":26,"path":"scale"}},{"sampler":81,"target":{"node":25,"path":"translation"}},{"sampler":82,"target":{"node":25,"path":"rotation"}},{"sampler":83,"target":{"node":25,"path":"scale"}},{"sampler":84,"target":{"node":24,"path":"translation"}},{"sampler":85,"target":{"node":24,"path":"rotation"}},{"sampler":86,"target":{"node":24,"path":"scale"}},{"sampler":87,"target":{"node":29,"path":"translation"}},{"sampler":88,"target":{"node":29,"path":"rotation"}},{"sampler":89,"target":{"node":29,"path":"scale"}},{"sampler":90,"target":{"node":28,"path":"translation"}},{"sampler":91,"target":{"node":28,"path":"rotation"}},{"sampler":92,"target":{"node":28,"path":"scale"}},{"sampler":93,"target":{"node":31,"path":"translation"}},{"sampler":94,"target":{"node":31,"path":"rotation"}},{"sampler":95,"target":{"node":31,"path":"scale"}},{"sampler":96,"target":{"node":30,"path":"translation"}},{"sampler":97,"target":{"node":30,"path":"rotation"}},{"sampler":98,"target":{"node":30,"path":"scale"}},{"sampler":99,"target":{"node":33,"path":"translation"}},{"sampler":100,"target":{"node":33,"path":"rotation"}},{"sampler":101,"target":{"node":33,"path":"scale"}},{"sampler":102,"target":{"node":32,"path":"translation"}},{"sampler":103,"target":{"node":32,"path":"rotation"}},{"sampler":104,"target":{"node":32,"path":"scale"}},{"sampler":105,"target":{"node":36,"path":"translation"}},{"sampler":106,"target":{"node":36,"path":"rotation"}},{"sampler":107,"target":{"node":36,"path":"scale"}}],"name":"Idle","samplers":[{"input":15,"interpolation":"STEP","output":16},{"input":15,"interpolation":"STEP","output":17},{"input":15,"interpolation":"STEP","output":18},{"input":15,"interpolation":"STEP","output":19},{"input":15,"interpolation":"STEP","output":20},{"input":15,"interpolation":"STEP","output":21},{"input":15,"interpolation":"STEP","output":22},{"input":15,"interpolation":"STEP","output":23},{"input":15,"interpolation":"STEP","output":24},{"input":25,"interpolation":"LINEAR","output":26},{"input":15,"interpolation":"STEP","output":27},{"input":15,"interpolation":"STEP","output":28},{"input":15,"interpolation":"STEP","output":29},{"input":25,"interpolation":"LINEAR","output":30},{"input":15,"interpolation":"STEP","output":31},{"input":15,"interpolation":"STEP","output":32},{"input":15,"interpolation":"STEP","output":33},{"input":15,"interpolation":"STEP","output":34},{"input":15,"interpolation":"STEP","output":35},{"input":25,"interpolation":"LINEAR","output":36},{"input":15,"interpolation":"STEP","output":37},{"input":15,"interpolation":"STEP","output":38},{"input":15,"interpolation":"STEP","output":39},{"input":15,"interpolation":"STEP","output":40},{"input":15,"interpolation":"STEP","output":41},{"input":25,"interpolation":"LINEAR","output":42},{"input":15,"interpolation":"STEP","output":43},{"input":15,"interpolation":"STEP","output":44},{"input":15,"interpolation":"STEP","output":45},{"input":15,"interpolation":"STEP","output":46},{"input":15,"interpolation":"STEP","output":47},{"input":25,"interpolation":"LINEAR","output":48},{"input":15,"interpolation":"STEP","output":49},{"input":15,"interpolation":"STEP","output":50},{"input":15,"interpolation":"STEP","output":51},{"input":15,"interpolation":"STEP","output":52},{"input":15,"interpolation":"STEP","output":53},{"input":25,"interpolation":"LINEAR","output":54},{"input":15,"interpolation":"STEP","output":55},{"input":15,"interpolation":"STEP","output":56},{"input":15,"interpolation":"STEP","output":57},{"input":15,"interpolation":"STEP","output":58},{"input":15,"interpolation":"STEP","output":59},{"input":25,"interpolation":"LINEAR","output":60},{"input":15,"interpolation":"STEP","output":61},{"input":15,"interpolation":"STEP","output":62},{"input":15,"interpolation":"STEP","output":63},{"input":15,"interpolation":"STEP","output":64},{"input":15,"interpolation":"STEP","output":65},{"input":25,"interpolation":"LINEAR","output":66},{"input":15,"interpolation":"STEP","output":67},{"input":15,"interpolation":"STEP","output":68},{"input":15,"interpolation":"STEP","output":69},{"input":15,"interpolation":"STEP","output":70},{"input":15,"interpolation":"STEP","output":71},{"input":25,"interpolation":"LINEAR","output":72},{"input":15,"interpolation":"STEP","output":73},{"input":15,"interpolation":"STEP","output":74},{"input":15,"interpolation":"STEP","output":75},{"input":15,"interpolation":"STEP","output":76},{"input":15,"interpolation":"STEP","output":77},{"input":15,"interpolation":"STEP","output":78},{"input":15,"interpolation":"STEP","output":79},{"input":15,"interpolation":"STEP","output":80},{"input":15,"interpolation":"STEP","output":81},{"input":15,"interpolation":"STEP","output":82},{"input":15,"interpolation":"STEP","output":83},{"input":15,"interpolation":"STEP","output":84},{"input":15,"interpolation":"STEP","output":85},{"input":15,"interpolation":"STEP","output":86},{"input":25,"interpolation":"LINEAR","output":87},{"input":15,"interpolation":"STEP","output":88},{"input":15,"interpolation":"STEP","output":89},{"input":25,"interpolation":"LINEAR","output":90},{"input":15,"interpolation":"STEP","output":91},{"input":15,"interpolation":"STEP","output":92},{"input":15,"interpolation":"STEP","output":93},{"input":15,"interpolation":"STEP","output":94},{"input":15,"interpolation":"STEP","output":95},{"input":15,"interpolation":"STEP","output":96},{"input":15,"interpolation":"STEP","output":97},{"input":15,"interpolation":"STEP","output":98},{"input":15,"interpolation":"STEP","output":99},{"input":15,"interpolation":"STEP","output":100},{"input":15,"interpolation":"STEP","output":101},{"input":15,"interpolation":"STEP","output":102},{"input":15,"interpolation":"STEP","output":103},{"input":15,"interpolation":"STEP","output":104},{"input":15,"interpolation":"STEP","output":105},{"input":15,"interpolation":"STEP","output":106},{"input":15,"interpolation":"STEP","output":107},{"input":15,"interpolation":"STEP","output":108},{"input":15,"interpolation":"STEP","output":109},{"input":15,"interpolation":"STEP","output":110},{"input":15,"interpolation":"STEP","output":111},{"input":15,"interpolation":"STEP","output":112},{"input":15,"interpolation":"STEP","output":113},{"input":15,"interpolation":"STEP","output":114},{"input":15,"interpolation":"STEP","output":115},{"input":15,"interpolation":"STEP","output":116},{"input":15,"interpolation":"STEP","output":117},{"input":15,"interpolation":"STEP","output":118},{"input":15,"interpolation":"STEP","output":119},{"input":15,"interpolation":"STEP","output":120},{"input":15,"interpolation":"STEP","output":121},{"input":15,"interpolation":"STEP","output":122},{"input":15,"interpolation":"STEP","output":123},{"input":15,"interpolation":"STEP","output":124}]}],"materials":[{"alphaMode":"MASK","doubleSided":true,"name":"White","pbrMetallicRoughness":{"baseColorFactor":[0.800000011920929,0.800000011920929,0.800000011920929,0],"metallicFactor":0,"roughnessFactor":0.690034806728363}},{"alphaMode":"MASK","doubleSided":true,"name":"Black","pbrMetallicRoughness":{"baseColorFactor":[0.037408020347356796,0.037408020347356796,0.037408020347356796,0],"metallicFactor":0,"roughnessFactor":0.690034806728363}}],"meshes":[{"name":"Cylinder","primitives":[{"attributes":{"POSITION":0,"NORMAL":1,"COLOR_0":2,"COLOR_1":3,"JOINTS_0":4,"WEIGHTS_0":5},"indices":6,"material":0},{"attributes":{"POSITION":7,"NORMAL":8,"COLOR_0":9,"COLOR_1":10,"JOINTS_0":11,"WEIGHTS_0":12},"indices":13,"material":1}]}],"skins":[{"inverseBindMatrices":14,"joints":[34,1,0,27,5,4,3,2,9,8,7,6,13,12,11,10,17,16,15,14,19,18,23,22,21,20,26,25,24,29,28,31,30,33,32],"name":"Armature"}],"accessors":[{"bufferView":0,"componentType":5126,"count":634,"max":[1.1107261180877686,4.328681945800781,2.537618398666382],"min":[-1.1107261180877686,0.9875127673149109,-2.4085774421691895],"type":"VEC3"},{"bufferView":1,"componentType":5126,"count":634,"type":"VEC3"},{"bufferView":2,"componentType":5121,"count":634,"normalized":true,"type":"VEC4"},{"bufferView":3,"componentType":5126,"count":634,"type":"VEC3"},{"bufferView":4,"componentType":5121,"count":634,"type":"VEC4"},{"bufferView":5,"componentType":5126,"count":634,"type":"VEC4"},{"bufferView":6,"componentType":5123,"count":930,"type":"SCALAR"},{"bufferView":7,"componentType":5126,"count":602,"max":[1.0025297403335571,4.349553108215332,3.510660171508789],"min":[-1.0025297403335571,-0.010182058438658714,-1.881980299949646],"type":"VEC3"},{"bufferView":8,"componentType":5126,"count":602,"type":"VEC3"},{"bufferView":9,"componentType":5121,"count":602,"normalized":true,"type":"VEC4"},{"bufferView":10,"componentType":5126,"count":602,"type":"VEC3"},{"bufferView":11,"componentType":5121,"count":602,"type":"VEC4"},{"bufferView":12,"componentType":5126,"count":602,"type":"VEC4"},{"bufferView":13,"componentType":5123,"count":906,"type":"SCALAR"},{"bufferView":14,"componentType":5126,"count":35,"type":"MAT4"},{"bufferView":15,"componentType":5126,"count":2,"max":[6.291666666666667],"min":[0.041666666666666664],"type":"SCALAR"},{"bufferView":16,"componentType":5126,"count":2,"type":"VEC3"},{"bufferView":17,"componentType":5126,"count":2,"type":"VEC4"},{"bufferView":18,"componentType":5126,"count":2,"type":"VEC3"},{"bufferView":19,"componentType":5126,"count":2,"type":"VEC3"},{"bufferView":20,"componentType":5126,"count":2,"type":"VEC4"},{"bufferView":21,"componentType":5126,"count":2,"type":"VEC3"},{"bufferView":22,"componentType":5126,"count":2,"type":"VEC3"},{"bufferView":23,"componentType":5126,"count":2,"type":"VEC4"},{"bufferView":24,"componentType":5126,"count":2,"type":"VEC3"},{"bufferView":25,"componentType":5126,"count":151,"max":[6.291666666666667],"min":[0.041666666666666664],"type":"SCALAR"},{"bufferView":26,"componentType":5126,"count":151,"type":"VEC3"},{"bufferView":27,"componentType":5126,"count":2,"type":"VEC4"},{"bufferView":28,"componentType":5126,"count":2,"type":"VEC3"},{"bufferView":29,"componentType":5126,"count":2,"type":"VEC3"},{"bufferView":30,"componentType":5126,"count":151,"type":"VEC4"},{"bufferView":31,"componentType":5126,"count":2,"type":"VEC3"},{"bufferView":32,"componentType":5126,"count":2,"type":"VEC3"},{"bufferView":33,"componentType":5126,"count":2,"type":"VEC4"},{"bufferView":34,"componentType":5126,"count":2,"type":"VEC3"},{"bufferView":35,"componentType":5126,"count":2,"type":"VEC3"},{"bufferView":36,"componentType":5126,"count":151,"type":"VEC4"},{"bufferView":37,"componentType":5126,"count":2,"type":"VEC3"},{"bufferView":38,"componentType":5126,"count":2,"type":"VEC3"},{"bufferView":39,"componentType":5126,"count":2,"type":"VEC4"},{"bufferView":40,"componentType":5126,"count":2,"type":"VEC3"},{"bufferView":41,"componentType":5126,"count":2,"type":"VEC3"},{"bufferView":42,"componentType":5126,"count":151,"type":"VEC4"},{"bufferView":43,"componentType":5126,"count":2,"type":"VEC3"},{"bufferView":44,"componentType":5126,"count":2,"type":"VEC3"},{"bufferView":45,"componentType":5126,"count":2,"type":"VEC4"},{"bufferView":46,"componentType":5126,"count":2,"type":"VEC3"},{"bufferView":47,"componentType":5126,"count":2,"type":"VEC3"},{"bufferView":48,"componentType":5126,"count":151,"type":"VEC4"},{"bufferView":49,"componentType":5126,"count":2,"type":"VEC3"},{"bufferView":50,"componentType":5126,"count":2,"type":"VEC3"},{"bufferView":51,"componentType":5126,"count":2,"type":"VEC4"},{"bufferView":52,"componentType":5126,"count":2,"type":"VEC3"},{"bufferView":53,"componentType":5126,"count":2,"type":"VEC3"},{"bufferView":54,"componentType":5126,"count":151,"type":"VEC4"},{"bufferView":55,"componentType":5126,"count":2,"type":"VEC3"},{"bufferView":56,"componentType":5126,"count":2,"type":"VEC3"},{"bufferView":57,"componentType":5126,"count":2,"type":"VEC4"},{"bufferView":58,"componentType":5126,"count":2,"type":"VEC3"},{"bufferView":59,"componentType":5126,"count":2,"type":"VEC3"},{"bufferView":60,"componentType":5126,"count":151,"type":"VEC4"},{"bufferView":61,"componentType":5126,"count":2,"type":"VEC3"},{"bufferView":62,"componentType":5126,"count":2,"type":"VEC3"},{"bufferView":63,"componentType":5126,"count":2,"type":"VEC4"},{"bufferView":64,"componentType":5126,"count":2,"type":"VEC3"},{"bufferView":65,"componentType":5126,"count":2,"type":"VEC3"},{"bufferView":66,"componentType":5126,"count":151,"type":"VEC4"},{"bufferView":67,"componentType":5126,"count":2,"type":"VEC3"},{"bufferView":68,"componentType":5126,"count":2,"type":"VEC3"},{"bufferView":69,"componentType":5126,"count":2,"type":"VEC4"},{"bufferView":70,"componentType":5126,"count":2,"type":"VEC3"},{"bufferView":71,"componentType":5126,"count":2,"type":"VEC3"},{"bufferView":72,"componentType":5126,"count":151,"type":"VEC4"},{"bufferView":73,"componentType":5126,"count":2,"type":"VEC3"},{"bufferView":74,"componentType":5126,"count":2,"type":"VEC3"},{"bufferView":75,"componentType":5126,"count":2,"type":"VEC4"},{"bufferView":76,"componentType":5126,"count":2,"type":"VEC3"},{"bufferView":77,"componentType":5126,"count":2,"type":"VEC3"},{"bufferView":78,"componentType":5126,"count":2,"type":"VEC4"},{"bufferView":79,"componentType":5126,"count":2,"type":"VEC3"},{"bufferView":80,"componentType":5126,"count":2,"type":"VEC3"},{"bufferView":81,"componentType":5126,"count":2,"type":"VEC4"},{"bufferView":82,"componentType":5126,"count":2,"type":"VEC3"},{"bufferView":83,"componentType":5126,"count":2,"type":"VEC3"},{"bufferView":84,"componentType":5126,"count":2,"type":"VEC4"},{"bufferView":85,"componentType":5126,"count":2,"type":"VEC3"},{"bufferView":86,"componentType":5126,"count":2,"type":"VEC3"},{"bufferView":87,"componentType":5126,"count":151,"type":"VEC4"},{"bufferView":88,"componentType":5126,"count":2,"type":"VEC3"},{"bufferView":89,"componentType":5126,"count":2,"type":"VEC3"},{"bufferView":90,"componentType":5126,"count":151,"type":"VEC4"},{"bufferView":91,"componentType":5126,"count":2,"type":"VEC3"},{"bufferView":92,"componentType":5126,"count":2,"type":"VEC3"},{"bufferView":93,"componentType":5126,"count":2,"type":"VEC4"},{"bufferView":94,"componentType":5126,"count":2,"type":"VEC3"},{"bufferView":95,"componentType":5126,"count":2,"type":"VEC3"},{"bufferView":96,"componentType":5126,"count":2,"type":"VEC4"},{"bufferView":97,"componentType":5126,"count":2,"type":"VEC3"},{"bufferView":98,"componentType":5126,"count":2,"type":"VEC3"},{"bufferView":99,"componentType":5126,"count":2,"type":"VEC4"},{"bufferView":100,"componentType":5126,"count":2,"type":"VEC3"},{"bufferView":101,"componentType":5126,"count":2,"type":"VEC3"},{"bufferView":102,"componentType":5126,"count":2,"type":"VEC4"},{"bufferView":103,"componentType":5126,"count":2,"type":"VEC3"},{"bufferView":104,"componentType":5126,"count":2,"type":"VEC3"},{"bufferView":105,"componentType":5126,"count":2,"type":"VEC4"},{"bufferView":106,"componentType":5126,"count":2,"type":"VEC3"},{"bufferView":107,"componentType":5126,"count":2,"type":"VEC3"},{"bufferView":108,"componentType":5126,"count":2,"type":"VEC4"},{"bufferView":109,"componentType":5126,"count":2,"type":"VEC3"},{"bufferView":110,"componentType":5126,"count":2,"type":"VEC3"},{"bufferView":111,"componentType":5126,"count":2,"type":"VEC4"},{"bufferView":112,"componentType":5126,"count":2,"type":"VEC3"},{"bufferView":113,"componentType":5126,"count":2,"type":"VEC3"},{"bufferView":114,"componentType":5126,"count":2,"type":"VEC4"},{"bufferView":115,"componentType":5126,"count":2,"type":"VEC3"},{"bufferView":116,"componentType":5126,"count":2,"type":"VEC3"},{"bufferView":117,"componentType":5126,"count":2,"type":"VEC4"},{"bufferView":118,"componentType":5126,"count":2,"type":"VEC3"},{"bufferView":119,"componentType":5126,"count":2,"type":"VEC3"},{"bufferView":120,"componentType":5126,"count":2,"type":"VEC4"},{"bufferView":121,"componentType":5126,"count":2,"type":"VEC3"},{"bufferView":122,"componentType":5126,"count":2,"type":"VEC3"},{"bufferView":123,"componentType":5126,"count":2,"type":"VEC4"},{"bufferView":124,"componentType":5126,"count":2,"type":"VEC3"}],"bufferViews":[{"buffer":0,"byteLength":7608,"byteOffset":0,"target":34962},{"buffer":0,"byteLength":7608,"byteOffset":7608,"target":34962},{"buffer":0,"byteLength":2536,"byteOffset":15216,"target":34962},{"buffer":0,"byteLength":7608,"byteOffset":17752,"target":34962},{"buffer":0,"byteLength":2536,"byteOffset":25360,"target":34962},{"buffer":0,"byteLength":10144,"byteOffset":27896,"target":34962},{"buffer":0,"byteLength":1860,"byteOffset":38040,"target":34963},{"buffer":0,"byteLength":7224,"byteOffset":39900,"target":34962},{"buffer":0,"byteLength":7224,"byteOffset":47124,"target":34962},{"buffer":0,"byteLength":2408,"byteOffset":54348,"target":34962},{"buffer":0,"byteLength":7224,"byteOffset":56756,"target":34962},{"buffer":0,"byteLength":2408,"byteOffset":63980,"target":34962},{"buffer":0,"byteLength":9632,"byteOffset":66388,"target":34962},{"buffer":0,"byteLength":1812,"byteOffset":76020,"target":34963},{"buffer":0,"byteLength":2240,"byteOffset":77832},{"buffer":0,"byteLength":8,"byteOffset":80072},{"buffer":0,"byteLength":24,"byteOffset":80080},{"buffer":0,"byteLength":32,"byteOffset":80104},{"buffer":0,"byteLength":24,"byteOffset":80136},{"buffer":0,"byteLength":24,"byteOffset":80160},{"buffer":0,"byteLength":32,"byteOffset":80184},{"buffer":0,"byteLength":24,"byteOffset":80216},{"buffer":0,"byteLength":24,"byteOffset":80240},{"buffer":0,"byteLength":32,"byteOffset":80264},{"buffer":0,"byteLength":24,"byteOffset":80296},{"buffer":0,"byteLength":604,"byteOffset":80320},{"buffer":0,"byteLength":1812,"byteOffset":80924},{"buffer":0,"byteLength":32,"byteOffset":82736},{"buffer":0,"byteLength":24,"byteOffset":82768},{"buffer":0,"byteLength":24,"byteOffset":82792},{"buffer":0,"byteLength":2416,"byteOffset":82816},{"buffer":0,"byteLength":24,"byteOffset":85232},{"buffer":0,"byteLength":24,"byteOffset":85256},{"buffer":0,"byteLength":32,"byteOffset":85280},{"buffer":0,"byteLength":24,"byteOffset":85312},{"buffer":0,"byteLength":24,"byteOffset":85336},{"buffer":0,"byteLength":2416,"byteOffset":85360},{"buffer":0,"byteLength":24,"byteOffset":87776},{"buffer":0,"byteLength":24,"byteOffset":87800},{"buffer":0,"byteLength":32,"byteOffset":87824},{"buffer":0,"byteLength":24,"byteOffset":87856},{"buffer":0,"byteLength":24,"byteOffset":87880},{"buffer":0,"byteLength":2416,"byteOffset":87904},{"buffer":0,"byteLength":24,"byteOffset":90320},{"buffer":0,"byteLength":24,"byteOffset":90344},{"buffer":0,"byteLength":32,"byteOffset":90368},{"buffer":0,"byteLength":24,"byteOffset":90400},{"buffer":0,"byteLength":24,"byteOffset":90424},{"buffer":0,"byteLength":2416,"byteOffset":90448},{"buffer":0,"byteLength":24,"byteOffset":92864},{"buffer":0,"byteLength":24,"byteOffset":92888},{"buffer":0,"byteLength":32,"byteOffset":92912},{"buffer":0,"byteLength":24,"byteOffset":92944},{"buffer":0,"byteLength":24,"byteOffset":92968},{"buffer":0,"byteLength":2416,"byteOffset":92992},{"buffer":0,"byteLength":24,"byteOffset":95408},{"buffer":0,"byteLength":24,"byteOffset":95432},{"buffer":0,"byteLength":32,"byteOffset":95456},{"buffer":0,"byteLength":24,"byteOffset":95488},{"buffer":0,"byteLength":24,"byteOffset":95512},{"buffer":0,"byteLength":2416,"byteOffset":95536},{"buffer":0,"byteLength":24,"byteOffset":97952},{"buffer":0,"byteLength":24,"byteOffset":97976},{"buffer":0,"byteLength":32,"byteOffset":98000},{"buffer":0,"byteLength":24,"byteOffset":98032},{"buffer":0,"byteLength":24,"byteOffset":98056},{"buffer":0,"byteLength":2416,"byteOffset":98080},{"buffer":0,"byteLength":24,"byteOffset":100496},{"buffer":0,"byteLength":24,"byteOffset":100520},{"buffer":0,"byteLength":32,"byteOffset":100544},{"buffer":0,"byteLength":24,"byteOffset":100576},{"buffer":0,"byteLength":24,"byteOffset":100600},{"buffer":0,"byteLength":2416,"byteOffset":100624},{"buffer":0,"byteLength":24,"byteOffset":103040},{"buffer":0,"byteLength":24,"byteOffset":103064},{"buffer":0,"byteLength":32,"byteOffset":103088},{"buffer":0,"byteLength":24,"byteOffset":103120},{"buffer":0,"byteLength":24,"byteOffset":103144},{"buffer":0,"byteLength":32,"byteOffset":103168},{"buffer":0,"byteLength":24,"byteOffset":103200},{"buffer":0,"byteLength":24,"byteOffset":103224},{"buffer":0,"byteLength":32,"byteOffset":103248},{"buffer":0,"byteLength":24,"byteOffset":103280},{"buffer":0,"byteLength":24,"byteOffset":103304},{"buffer":0,"byteLength":32,"byteOffset":103328},{"buffer":0,"byteLength":24,"byteOffset":103360},{"buffer":0,"byteLength":24,"byteOffset":103384},{"buffer":0,"byteLength":2416,"byteOffset":103408},{"buffer":0,"byteLength":24,"byteOffset":105824},{"buffer":0,"byteLength":24,"byteOffset":105848},{"buffer":0,"byteLength":2416,"byteOffset":105872},{"buffer":0,"byteLength":24,"byteOffset":108288},{"buffer":0,"byteLength":24,"byteOffset":108312},{"buffer":0,"byteLength":32,"byteOffset":108336},{"buffer":0,"byteLength":24,"byteOffset":108368},{"buffer":0,"byteLength":24,"byteOffset":108392},{"buffer":0,"byteLength":32,"byteOffset":108416},{"buffer":0,"byteLength":24,"byteOffset":108448},{"buffer":0,"byteLength":24,"byteOffset":108472},{"buffer":0,"byteLength":32,"byteOffset":108496},{"buffer":0,"byteLength":24,"byteOffset":108528},{"buffer":0,"byteLength":24,"byteOffset":108552},{"buffer":0,"byteLength":32,"byteOffset":108576},{"buffer":0,"byteLength":24,"byteOffset":108608},{"buffer":0,"byteLength":24,"byteOffset":108632},{"buffer":0,"byteLength":32,"byteOffset":108656},{"buffer":0,"byteLength":24,"byteOffset":108688},{"buffer":0,"byteLength":24,"byteOffset":108712},{"buffer":0,"byteLength":32,"byteOffset":108736},{"buffer":0,"byteLength":24,"byteOffset":108768},{"buffer":0,"byteLength":24,"byteOffset":108792},{"buffer":0,"byteLength":32,"byteOffset":108816},{"buffer":0,"byteLength":24,"byteOffset":108848},{"buffer":0,"byteLength":24,"byteOffset":108872},{"buffer":0,"byteLength":32,"byteOffset":108896},{"buffer":0,"byteLength":24,"byteOffset":108928},{"buffer":0,"byteLength":24,"byteOffset":108952},{"buffer":0,"byteLength":32,"byteOffset":108976},{"buffer":0,"byteLength":24,"byteOffset":109008},{"buffer":0,"byteLength":24,"byteOffset":109032},{"buffer":0,"byteLength":32,"byteOffset":109056},{"buffer":0,"byteLength":24,"byteOffset":109088},{"buffer":0,"byteLength":24,"byteOffset":109112},{"buffer":0,"byteLength":32,"byteOffset":109136},{"buffer":0,"byteLength":24,"byteOffset":109168}],"buffers":[{"byteLength":109192,"uri":"data:application/octet-stream;base64,"}]}