{"asset":{"generator":"Khronos glTF Blender I/O v4.2.57","version":"2.0"},"scene":0,"scenes":[{"name":"Scene","nodes":[40]}],"nodes":[{"name":"FrontFoot.R_end","translation":[-3.184978503156799e-09,1,-2.088540895783808e-09]},{"children":[0],"name":"FrontFoot.R","rotation":[0.7071067690849304,-6.434409556277387e-07,-6.434409556277387e-07,0.7071067690849304],"translation":[-0.9117709994316101,0.10000348091125488,1.927022933959961]},{"name":"FrontLowLeg.R_end","rotation":[-7.450580596923828e-08,1.693720363959983e-08,-1.83042985213433e-08,1],"scale":[1,0.9999999403953552,0.9999999403953552],"translation":[2.1830247831644556e-08,1.5877680778503418,3.319918562283419e-08]},{"children":[2],"name":"FrontLowLeg.R","rotation":[0.13236455619335175,-0.018815649673342705,0.0025131378788501024,0.9910193085670471],"scale":[1,0.9999999403953552,0.9999999403953552],"translation":[-2.7008354663848877e-08,1.4804553985595703,3.0174851417541504e-07]},{"children":[3],"name":"FrontUpLeg.R","rotation":[0.7056754231452942,-0.7034597396850586,-0.04496978968381882,0.07172371447086334],"translation":[6.878883596073138e-08,0.6025583744049072,-4.528232011580258e-08]},{"children":[4],"name":"FrontLeg.R","rotation":[-2.508792249500402e-07,-2.890676320532748e-08,0.7071067690849304,0.7071067690849304],"translation":[-0.3246806859970093,0.8379973769187927,1.873094081878662]},{"name":"BackLowLeg.R_end","rotation":[1.6763806343078613e-08,1.488757228607085e-09,-2.435640578113407e-10,1],"translation":[2.1811477068922613e-08,2.171189069747925,-1.8175944660470122e-07]},{"children":[6],"name":"BackLowLeg.R","rotation":[-0.3593641221523285,0.018058473244309425,0.006955515127629042,0.9329967498779297],"scale":[1,1,0.9999999403953552],"translation":[-5.587935447692871e-08,1.0874390602111816,2.6263296604156494e-07]},{"children":[7],"name":"BackUpLeg.R","rotation":[-0.6769956350326538,0.668589174747467,-0.2041482776403427,0.23019307851791382],"scale":[1,0.9999997615814209,1.0000001192092896],"translation":[9.3403720313745e-08,0.46958303451538086,1.5261201724570128e-07]},{"children":[8],"name":"BackLeg.R","rotation":[-4.700013391811808e-07,-2.4802884013297444e-07,0.7071067690849304,0.7071067690849304],"translation":[-0.3246806859970093,0.837997317314148,-2.1785271167755127]},{"name":"FrontLowLeg.L_end","rotation":[-1.1175870895385742e-08,-5.095282062939077e-08,5.681067349883051e-08,1],"translation":[-2.1297022811950228e-08,1.5877680778503418,1.6304809946632304e-07]},{"children":[10],"name":"FrontLowLeg.L","rotation":[0.13220730423927307,0.05182737857103348,-0.0069222887977957726,0.9898420572280884],"scale":[0.9999999403953552,0.9999999403953552,0.9999999403953552],"translation":[3.725290298461914e-09,1.4804565906524658,2.9802322387695312e-08]},{"children":[11],"name":"FrontUpLeg.L","rotation":[-0.021431179717183113,-0.0951242446899414,0.7067819833755493,0.7006791234016418],"scale":[1.0000001192092896,1.0000001192092896,1.0000001192092896],"translation":[-1.0993600341180354e-07,0.6025584936141968,-8.015121011339943e-09]},{"children":[12],"name":"FrontLeg.L","rotation":[-0.7071067690849304,-0.7071067690849304,5.781346601452242e-08,2.2197245641564223e-07],"translation":[0.2630481719970703,0.8379973769187927,1.873094081878662]},{"name":"BackLowLeg.L_end","rotation":[-3.725290653733282e-08,-1.731349996703102e-08,1.2816409267202289e-08,1],"translation":[1.0500846769900818e-07,2.1711883544921875,1.0777171155496035e-08]},{"children":[14],"name":"BackLowLeg.L","rotation":[-0.3594152331352234,-0.00886763446033001,-0.003415721235796809,0.9331293702125549],"scale":[1,1,0.9999999403953552],"translation":[5.774199962615967e-08,1.0874391794204712,1.862645149230957e-08]},{"children":[15],"name":"BackUpLeg.L","rotation":[0.21080654859542847,0.2235964685678482,0.6749520897865295,0.6708240509033203],"scale":[0.9999999403953552,0.9999999403953552,1],"translation":[-2.9883324259571964e-08,0.46958303451538086,-6.055216772438143e-08]},{"children":[16],"name":"BackLeg.L","rotation":[-0.7071067690849304,-0.7071067690849304,4.1176397758135863e-07,3.0626614488937776e-07],"translation":[0.2630481719970703,0.837997317314148,-2.1785271167755127]},{"name":"Tail4_end","rotation":[2.2351741790771484e-07,-3.272065507431421e-09,-2.721049163767475e-09,1],"translation":[1.3227552386751995e-09,1.0268243551254272,8.448025567986406e-08]},{"children":[18],"name":"Tail4","rotation":[0.03903919830918312,3.6026513328124565e-08,1.9375539395127817e-08,0.9992376565933228],"scale":[1,1.0000001192092896,1],"translation":[-1.993271325773094e-09,0.699330747127533,1.1311039571637593e-07]},{"children":[19],"name":"Tail3","rotation":[-1.315618813890751e-08,0.9891946315765381,-0.14660848677158356,3.105244843482069e-07],"scale":[1,0.9999998807907104,1.0000001192092896],"translation":[5.679652304024785e-10,0.8778810501098633,1.1542667976982557e-07]},{"children":[20],"name":"Tail2","rotation":[-0.6165581941604614,9.425114910754928e-08,-7.529742873657597e-08,0.7873093485832214],"scale":[1,0.9999999403953552,1],"translation":[1.1726933868416722e-09,0.8375225067138672,3.576278970740532e-07]},{"children":[21],"name":"Tail1","rotation":[-0.6164658069610596,1.467509349595275e-07,-1.8692173853196437e-07,0.7873817086219788],"scale":[1,0.9999999403953552,0.9999999403953552],"translation":[0.011168531142175198,1.1115171909332275,0.04445922374725342]},{"children":[22],"name":"Back","rotation":[-0.14716225862503052,3.5117494689984596e-08,2.3514924407663784e-07,0.989112377166748],"translation":[-0.03228271007537842,1.4074052572250366,-2.402278184890747]},{"name":"Head_end","rotation":[-7.056223694235086e-08,1.825392246246338e-07,3.149034455418587e-08,1],"translation":[-3.166496753692627e-08,1.7753822803497314,-1.4901161193847656e-07]},{"children":[24],"name":"Head","rotation":[-0.624537467956543,-0.197814479470253,0.16660787165164948,0.7369288802146912],"scale":[0.9999999403953552,0.9999998807907104,0.9999998807907104],"translation":[1.5006662579253316e-09,1.3573296070098877,-2.5897742261804524e-07]},{"children":[25],"name":"Neck","rotation":[-0.08868448436260223,-0.02248888649046421,-0.017817644402384758,0.9956464767456055],"scale":[1,1.0000001192092896,1],"translation":[1.7695128917694092e-08,1.3137195110321045,9.208451956510544e-07]},{"children":[26],"name":"Shoulders","rotation":[-0.008421191945672035,-0.9597338438034058,-0.27944204211235046,0.027426157146692276],"translation":[-0.0736546516418457,1.8077162504196167,1.8519929647445679]},{"name":"Torso_end","rotation":[-7.50234221413848e-08,7.24073288438376e-07,-2.2992026060819626e-09,1],"translation":[-1.862645149230957e-09,1.5270235538482666,2.918443442467833e-07]},{"children":[28],"name":"Torso","rotation":[0.05375257879495621,0.000759026559535414,-0.013527121394872665,0.9984623789787292],"scale":[1,0.9999998211860657,0.9999999403953552],"translation":[2.15505746581357e-09,1.4671728610992432,1.8631141074365587e-08]},{"children":[29],"name":"Hips","rotation":[3.4854974728659727e-06,0.694421112537384,0.7195688486099243,3.3636852094787173e-06],"translation":[-0.03228271007537842,1.6898193359375,-1.4742004871368408]},{"children":[5,9,13,17,23,27,30],"name":"Body","translation":[0.005377650260925293,2.3020823001861572,-0.01735416054725647]},{"name":"BackFoot.R_end","translation":[-3.1849833881381073e-09,0.674536943435669,-2.531521658966085e-10]},{"children":[32],"name":"BackFoot.R","rotation":[0.7071067690849304,-6.434409556277387e-07,-6.434409556277387e-07,0.7071067690849304],"translation":[-0.8358624577522278,0.10000348091125488,-2.604720115661621]},{"name":"FrontFoot.L_end","translation":[2.065353221780697e-08,1,-3.5546463550417684e-09]},{"children":[34],"name":"FrontFoot.L","rotation":[0.7071067690849304,-9.806157095226808e-07,-9.806157095226808e-07,0.7071067690849304],"translation":[0.860893964767456,0.10000348091125488,1.927022933959961]},{"name":"BackFoot.L_end","translation":[2.065352511237961e-08,0.674536943435669,-3.2092373203340685e-09]},{"children":[36],"name":"BackFoot.L","rotation":[0.7071067690849304,-9.806157095226808e-07,-9.806157095226808e-07,0.7071067690849304],"translation":[0.7849856615066528,0.10000348091125488,-2.604720115661621]},{"children":[1,31,33,35,37],"name":"root"},{"mesh":0,"name":"Zebra","skin":0},{"children":[39,38],"name":"Armature"}],"animations":[{"channels":[{"sampler":0,"target":{"node":38,"path":"translation"}},{"sampler":1,"target":{"node":38,"path":"rotation"}},{"sampler":2,"target":{"node":38,"path":"scale"}},{"sampler":3,"target":{"node":1,"path":"translation"}},{"sampler":4,"target":{"node":1,"path":"rotation"}},{"sampler":5,"target":{"node":1,"path":"scale"}},{"sampler":6,"target":{"node":0,"path":"translation"}},{"sampler":7,"target":{"node":0,"path":"rotation"}},{"sampler":8,"target":{"node":0,"path":"scale"}},{"sampler":9,"target":{"node":31,"path":"translation"}},{"sampler":10,"target":{"node":31,"path":"rotation"}},{"sampler":11,"target":{"node":31,"path":"scale"}},{"sampler":12,"target":{"node":5,"path":"translation"}},{"sampler":13,"target":{"node":5,"path":"rotation"}},{"sampler":14,"target":{"node":5,"path":"scale"}},{"sampler":15,"target":{"node":4,"path":"translation"}},{"sampler":16,"target":{"node":4,"path":"rotation"}},{"sampler":17,"target":{"node":4,"path":"scale"}},{"sampler":18,"target":{"node":3,"path":"translation"}},{"sampler":19,"target":{"node":3,"path":"rotation"}},{"sampler":20,"target":{"node":3,"path":"scale"}},{"sampler":21,"target":{"node":2,"path":"translation"}},{"sampler":22,"target":{"node":2,"path":"rotation"}},{"sampler":23,"target":{"node":2,"path":"scale"}},{"sampler":24,"target":{"node":9,"path":"translation"}},{"sampler":25,"target":{"node":9,"path":"rotation"}},{"sampler":26,"target":{"node":9,"path":"scale"}},{"sampler":27,"target":{"node":8,"path":"translation"}},{"sampler":28,"target":{"node":8,"path":"rotation"}},{"sampler":29,"target":{"node":8,"path":"scale"}},{"sampler":30,"target":{"node":7,"path":"translation"}},{"sampler":31,"target":{"node":7,"path":"rotation"}},{"sampler":32,"target":{"node":7,"path":"scale"}},{"sampler":33,"target":{"node":6,"path":"translation"}},{"sampler":34,"target":{"node":6,"path":"rotation"}},{"sampler":35,"target":{"node":6,"path":"scale"}},{"sampler":36,"target":{"node":13,"path":"translation"}},{"sampler":37,"target":{"node":13,"path":"rotation"}},{"sampler":38,"target":{"node":13,"path":"scale"}},{"sampler":39,"target":{"node":12,"path":"translation"}},{"sampler":40,"target":{"node":12,"path":"rotation"}},{"sampler":41,"target":{"node":12,"path":"scale"}},{"sampler":42,"target":{"node":11,"path":"translation"}},{"sampler":43,"target":{"node":11,"path":"rotation"}},{"sampler":44,"target":{"node":11,"path":"scale"}},{"sampler":45,"target":{"node":10,"path":"translation"}},{"sampler":46,"target":{"node":10,"path":"rotation"}},{"sampler":47,"target":{"node":10,"path":"scale"}},{"sampler":48,"target":{"node":17,"path":"translation"}},{"sampler":49,"target":{"node":17,"path":"rotation"}},{"sampler":50,"target":{"node":17,"path":"scale"}},{"sampler":51,"target":{"node":16,"path":"translation"}},{"sampler":52,"target":{"node":16,"path":"rotation"}},{"sampler":53,"target":{"node":16,"path":"scale"}},{"sampler":54,"target":{"node":15,"path":"translation"}},{"sampler":55,"target":{"node":15,"path":"rotation"}},{"sampler":56,"target":{"node":15,"path":"scale"}},{"sampler":57,"target":{"node":14,"path":"translation"}},{"sampler":58,"target":{"node":14,"path":"rotation"}},{"sampler":59,"target":{"node":14,"path":"scale"}},{"sampler":60,"target":{"node":23,"path":"translation"}},{"sampler":61,"target":{"node":23,"path":"rotation"}},{"sampler":62,"target":{"node":23,"path":"scale"}},{"sampler":63,"target":{"node":22,"path":"translation"}},{"sampler":64,"target":{"node":22,"path":"rotation"}},{"sampler":65,"target":{"node":22,"path":"scale"}},{"sampler":66,"target":{"node":21,"path":"translation"}},{"sampler":67,"target":{"node":21,"path":"rotation"}},{"sampler":68,"target":{"node":21,"path":"scale"}},{"sampler":69,"target":{"node":20,"path":"translation"}},{"sampler":70,"target":{"node":20,"path":"rotation"}},{"sampler":71,"target":{"node":20,"path":"scale"}},{"sampler":72,"target":{"node":19,"path":"translation"}},{"sampler":73,"target":{"node":19,"path":"rotation"}},{"sampler":74,"target":{"node":19,"path":"scale"}},{"sampler":75,"target":{"node":18,"path":"translation"}},{"sampler":76,"target":{"node":18,"path":"rotation"}},{"sampler":77,"target":{"node":18,"path":"scale"}},{"sampler":78,"target":{"node":27,"path":"translation"}},{"sampler":79,"target":{"node":27,"path":"rotation"}},{"sampler":80,"target":{"node":27,"path":"scale"}},{"sampler":81,"target":{"node":26,"path":"translation"}},{"sampler":82,"target":{"node":26,"path":"rotation"}},{"sampler":83,"target":{"node":26,"path":"scale"}},{"sampler":84,"target":{"node":25,"path":"translation"}},{"sampler":85,"target":{"node":25,"path":"rotation"}},{"sampler":86,"target":{"node":25,"path":"scale"}},{"sampler":87,"target":{"node":24,"path":"translation"}},{"sampler":88,"target":{"node":24,"path":"rotation"}},{"sampler":89,"target":{"node":24,"path":"scale"}},{"sampler":90,"target":{"node":30,"path":"translation"}},{"sampler":91,"target":{"node":30,"path":"rotation"}},{"sampler":92,"target":{"node":30,"path":"scale"}},{"sampler":93,"target":{"node":29,"path":"translation"}},{"sampler":94,"target":{"node":29,"path":"rotation"}},{"sampler":95,"target":{"node":29,"path":"scale"}},{"sampler":96,"target":{"node":28,"path":"translation"}},{"sampler":97,"target":{"node":28,"path":"rotation"}},{"sampler":98,"target":{"node":28,"path":"scale"}},{"sampler":99,"target":{"node":33,"path":"translation"}},{"sampler":100,"target":{"node":33,"path":"rotation"}},{"sampler":101,"target":{"node":33,"path":"scale"}},{"sampler":102,"target":{"node":32,"path":"translation"}},{"sampler":103,"target":{"node":32,"path":"rotation"}},{"sampler":104,"target":{"node":32,"path":"scale"}},{"sampler":105,"target":{"node":35,"path":"translation"}},{"sampler":106,"target":{"node":35,"path":"rotation"}},{"sampler":107,"target":{"node":35,"path":"scale"}},{"sampler":108,"target":{"node":34,"path":"translation"}},{"sampler":109,"target":{"node":34,"path":"rotation"}},{"sampler":110,"target":{"node":34,"path":"scale"}},{"sampler":111,"target":{"node":37,"path":"translation"}},{"sampler":112,"target":{"node":37,"path":"rotation"}},{"sampler":113,"target":{"node":37,"path":"scale"}},{"sampler":114,"target":{"node":36,"path":"translation"}},{"sampler":115,"target":{"node":36,"path":"rotation"}},{"sampler":116,"target":{"node":36,"path":"scale"}},{"sampler":117,"target":{"node":40,"path":"translation"}},{"sampler":118,"target":{"node":40,"path":"rotation"}},{"sampler":119,"target":{"node":40,"path":"scale"}}],"name":"Armature|Armature|Death","samplers":[{"input":15,"interpolation":"STEP","output":16},{"input":15,"interpolation":"STEP","output":17},{"input":15,"interpolation":"STEP","output":18},{"input":19,"interpolation":"LINEAR","output":20},{"input":19,"interpolation":"LINEAR","output":21},{"input":15,"interpolation":"STEP","output":22},{"input":15,"interpolation":"STEP","output":23},{"input":15,"interpolation":"STEP","output":24},{"input":15,"interpolation":"STEP","output":25},{"input":19,"interpolation":"LINEAR","output":26},{"input":19,"interpolation":"LINEAR","output":27},{"input":15,"interpolation":"LINEAR","output":28},{"input":15,"interpolation":"LINEAR","output":29},{"input":19,"interpolation":"LINEAR","output":30},{"input":15,"interpolation":"LINEAR","output":31},{"input":15,"interpolation":"LINEAR","output":32},{"input":19,"interpolation":"LINEAR","output":33},{"input":15,"interpolation":"LINEAR","output":34},{"input":15,"interpolation":"LINEAR","output":35},{"input":19,"interpolation":"LINEAR","output":36},{"input":15,"interpolation":"LINEAR","output":37},{"input":15,"interpolation":"STEP","output":38},{"input":15,"interpolation":"STEP","output":39},{"input":15,"interpolation":"STEP","output":40},{"input":15,"interpolation":"LINEAR","output":41},{"input":19,"interpolation":"LINEAR","output":42},{"input":15,"interpolation":"LINEAR","output":43},{"input":15,"interpolation":"LINEAR","output":44},{"input":19,"interpolation":"LINEAR","output":45},{"input":15,"interpolation":"LINEAR","output":46},{"input":15,"interpolation":"LINEAR","output":47},{"input":19,"interpolation":"LINEAR","output":48},{"input":15,"interpolation":"LINEAR","output":49},{"input":15,"interpolation":"STEP","output":50},{"input":15,"interpolation":"STEP","output":51},{"input":15,"interpolation":"STEP","output":52},{"input":15,"interpolation":"LINEAR","output":53},{"input":19,"interpolation":"LINEAR","output":54},{"input":15,"interpolation":"LINEAR","output":55},{"input":15,"interpolation":"LINEAR","output":56},{"input":19,"interpolation":"LINEAR","output":57},{"input":15,"interpolation":"LINEAR","output":58},{"input":15,"interpolation":"LINEAR","output":59},{"input":19,"interpolation":"LINEAR","output":60},{"input":15,"interpolation":"LINEAR","output":61},{"input":15,"interpolation":"STEP","output":62},{"input":15,"interpolation":"STEP","output":63},{"input":15,"interpolation":"STEP","output":64},{"input":15,"interpolation":"LINEAR","output":65},{"input":19,"interpolation":"LINEAR","output":66},{"input":15,"interpolation":"LINEAR","output":67},{"input":15,"interpolation":"LINEAR","output":68},{"input":19,"interpolation":"LINEAR","output":69},{"input":15,"interpolation":"STEP","output":70},{"input":15,"interpolation":"LINEAR","output":71},{"input":19,"interpolation":"LINEAR","output":72},{"input":15,"interpolation":"LINEAR","output":73},{"input":15,"interpolation":"STEP","output":74},{"input":15,"interpolation":"STEP","output":75},{"input":15,"interpolation":"STEP","output":76},{"input":19,"interpolation":"LINEAR","output":77},{"input":15,"interpolation":"LINEAR","output":78},{"input":15,"interpolation":"LINEAR","output":79},{"input":15,"interpolation":"LINEAR","output":80},{"input":15,"interpolation":"LINEAR","output":81},{"input":15,"interpolation":"LINEAR","output":82},{"input":15,"interpolation":"LINEAR","output":83},{"input":19,"interpolation":"LINEAR","output":84},{"input":15,"interpolation":"LINEAR","output":85},{"input":15,"interpolation":"LINEAR","output":86},{"input":19,"interpolation":"LINEAR","output":87},{"input":15,"interpolation":"LINEAR","output":88},{"input":15,"interpolation":"LINEAR","output":89},{"input":19,"interpolation":"LINEAR","output":90},{"input":15,"interpolation":"LINEAR","output":91},{"input":15,"interpolation":"STEP","output":92},{"input":15,"interpolation":"STEP","output":93},{"input":15,"interpolation":"STEP","output":94},{"input":19,"interpolation":"LINEAR","output":95},{"input":19,"interpolation":"LINEAR","output":96},{"input":15,"interpolation":"LINEAR","output":97},{"input":15,"interpolation":"LINEAR","output":98},{"input":19,"interpolation":"LINEAR","output":99},{"input":15,"interpolation":"LINEAR","output":100},{"input":15,"interpolation":"LINEAR","output":101},{"input":19,"interpolation":"LINEAR","output":102},{"input":15,"interpolation":"STEP","output":103},{"input":15,"interpolation":"STEP","output":104},{"input":15,"interpolation":"STEP","output":105},{"input":15,"interpolation":"STEP","output":106},{"input":19,"interpolation":"LINEAR","output":107},{"input":15,"interpolation":"LINEAR","output":108},{"input":15,"interpolation":"LINEAR","output":109},{"input":15,"interpolation":"LINEAR","output":110},{"input":15,"interpolation":"LINEAR","output":111},{"input":15,"interpolation":"LINEAR","output":112},{"input":15,"interpolation":"STEP","output":113},{"input":15,"interpolation":"STEP","output":114},{"input":15,"interpolation":"STEP","output":115},{"input":19,"interpolation":"LINEAR","output":116},{"input":19,"interpolation":"LINEAR","output":117},{"input":15,"interpolation":"STEP","output":118},{"input":15,"interpolation":"STEP","output":119},{"input":15,"interpolation":"STEP","output":120},{"input":15,"interpolation":"STEP","output":121},{"input":19,"interpolation":"LINEAR","output":122},{"input":19,"interpolation":"LINEAR","output":123},{"input":15,"interpolation":"STEP","output":124},{"input":15,"interpolation":"STEP","output":125},{"input":15,"interpolation":"STEP","output":126},{"input":15,"interpolation":"STEP","output":127},{"input":19,"interpolation":"LINEAR","output":128},{"input":19,"interpolation":"LINEAR","output":129},{"input":15,"interpolation":"STEP","output":130},{"input":15,"interpolation":"STEP","output":131},{"input":15,"interpolation":"STEP","output":132},{"input":15,"interpolation":"STEP","output":133},{"input":15,"interpolation":"STEP","output":134},{"input":15,"interpolation":"STEP","output":135},{"input":15,"interpolation":"STEP","output":136}]},{"channels":[{"sampler":0,"target":{"node":38,"path":"translation"}},{"sampler":1,"target":{"node":38,"path":"rotation"}},{"sampler":2,"target":{"node":38,"path":"scale"}},{"sampler":3,"target":{"node":1,"path":"translation"}},{"sampler":4,"target":{"node":1,"path":"rotation"}},{"sampler":5,"target":{"node":1,"path":"scale"}},{"sampler":6,"target":{"node":0,"path":"translation"}},{"sampler":7,"target":{"node":0,"path":"rotation"}},{"sampler":8,"target":{"node":0,"path":"scale"}},{"sampler":9,"target":{"node":31,"path":"translation"}},{"sampler":10,"target":{"node":31,"path":"rotation"}},{"sampler":11,"target":{"node":31,"path":"scale"}},{"sampler":12,"target":{"node":5,"path":"translation"}},{"sampler":13,"target":{"node":5,"path":"rotation"}},{"sampler":14,"target":{"node":5,"path":"scale"}},{"sampler":15,"target":{"node":4,"path":"translation"}},{"sampler":16,"target":{"node":4,"path":"rotation"}},{"sampler":17,"target":{"node":4,"path":"scale"}},{"sampler":18,"target":{"node":3,"path":"translation"}},{"sampler":19,"target":{"node":3,"path":"rotation"}},{"sampler":20,"target":{"node":3,"path":"scale"}},{"sampler":21,"target":{"node":2,"path":"translation"}},{"sampler":22,"target":{"node":2,"path":"rotation"}},{"sampler":23,"target":{"node":2,"path":"scale"}},{"sampler":24,"target":{"node":9,"path":"translation"}},{"sampler":25,"target":{"node":9,"path":"rotation"}},{"sampler":26,"target":{"node":9,"path":"scale"}},{"sampler":27,"target":{"node":8,"path":"translation"}},{"sampler":28,"target":{"node":8,"path":"rotation"}},{"sampler":29,"target":{"node":8,"path":"scale"}},{"sampler":30,"target":{"node":7,"path":"translation"}},{"sampler":31,"target":{"node":7,"path":"rotation"}},{"sampler":32,"target":{"node":7,"path":"scale"}},{"sampler":33,"target":{"node":6,"path":"translation"}},{"sampler":34,"target":{"node":6,"path":"rotation"}},{"sampler":35,"target":{"node":6,"path":"scale"}},{"sampler":36,"target":{"node":13,"path":"translation"}},{"sampler":37,"target":{"node":13,"path":"rotation"}},{"sampler":38,"target":{"node":13,"path":"scale"}},{"sampler":39,"target":{"node":12,"path":"translation"}},{"sampler":40,"target":{"node":12,"path":"rotation"}},{"sampler":41,"target":{"node":12,"path":"scale"}},{"sampler":42,"target":{"node":11,"path":"translation"}},{"sampler":43,"target":{"node":11,"path":"rotation"}},{"sampler":44,"target":{"node":11,"path":"scale"}},{"sampler":45,"target":{"node":10,"path":"translation"}},{"sampler":46,"target":{"node":10,"path":"rotation"}},{"sampler":47,"target":{"node":10,"path":"scale"}},{"sampler":48,"target":{"node":17,"path":"translation"}},{"sampler":49,"target":{"node":17,"path":"rotation"}},{"sampler":50,"target":{"node":17,"path":"scale"}},{"sampler":51,"target":{"node":16,"path":"translation"}},{"sampler":52,"target":{"node":16,"path":"rotation"}},{"sampler":53,"target":{"node":16,"path":"scale"}},{"sampler":54,"target":{"node":15,"path":"translation"}},{"sampler":55,"target":{"node":15,"path":"rotation"}},{"sampler":56,"target":{"node":15,"path":"scale"}},{"sampler":57,"target":{"node":14,"path":"translation"}},{"sampler":58,"target":{"node":14,"path":"rotation"}},{"sampler":59,"target":{"node":14,"path":"scale"}},{"sampler":60,"target":{"node":23,"path":"translation"}},{"sampler":61,"target":{"node":23,"path":"rotation"}},{"sampler":62,"target":{"node":23,"path":"scale"}},{"sampler":63,"target":{"node":22,"path":"translation"}},{"sampler":64,"target":{"node":22,"path":"rotation"}},{"sampler":65,"target":{"node":22,"path":"scale"}},{"sampler":66,"target":{"node":21,"path":"translation"}},{"sampler":67,"target":{"node":21,"path":"rotation"}},{"sampler":68,"target":{"node":21,"path":"scale"}},{"sampler":69,"target":{"node":20,"path":"translation"}},{"sampler":70,"target":{"node":20,"path":"rotation"}},{"sampler":71,"target":{"node":20,"path":"scale"}},{"sampler":72,"target":{"node":19,"path":"translation"}},{"sampler":73,"target":{"node":19,"path":"rotation"}},{"sampler":74,"target":{"node":19,"path":"scale"}},{"sampler":75,"target":{"node":18,"path":"translation"}},{"sampler":76,"target":{"node":18,"path":"rotation"}},{"sampler":77,"target":{"node":18,"path":"scale"}},{"sampler":78,"target":{"node":27,"path":"translation"}},{"sampler":79,"target":{"node":27,"path":"rotation"}},{"sampler":80,"target":{"node":27,"path":"scale"}},{"sampler":81,"target":{"node":26,"path":"translation"}},{"sampler":82,"target":{"node":26,"path":"rotation"}},{"sampler":83,"target":{"node":26,"path":"scale"}},{"sampler":84,"target":{"node":25,"path":"translation"}},{"sampler":85,"target":{"node":25,"path":"rotation"}},{"sampler":86,"target":{"node":25,"path":"scale"}},{"sampler":87,"target":{"node":24,"path":"translation"}},{"sampler":88,"target":{"node":24,"path":"rotation"}},{"sampler":89,"target":{"node":24,"path":"scale"}},{"sampler":90,"target":{"node":30,"path":"translation"}},{"sampler":91,"target":{"node":30,"path":"rotation"}},{"sampler":92,"target":{"node":30,"path":"scale"}},{"sampler":93,"target":{"node":29,"path":"translation"}},{"sampler":94,"target":{"node":29,"path":"rotation"}},{"sampler":95,"target":{"node":29,"path":"scale"}},{"sampler":96,"target":{"node":28,"path":"translation"}},{"sampler":97,"target":{"node":28,"path":"rotation"}},{"sampler":98,"target":{"node":28,"path":"scale"}},{"sampler":99,"target":{"node":33,"path":"translation"}},{"sampler":100,"target":{"node":33,"path":"rotation"}},{"sampler":101,"target":{"node":33,"path":"scale"}},{"sampler":102,"target":{"node":32,"path":"translation"}},{"sampler":103,"target":{"node":32,"path":"rotation"}},{"sampler":104,"target":{"node":32,"path":"scale"}},{"sampler":105,"target":{"node":35,"path":"translation"}},{"sampler":106,"target":{"node":35,"path":"rotation"}},{"sampler":107,"target":{"node":35,"path":"scale"}},{"sampler":108,"target":{"node":34,"path":"translation"}},{"sampler":109,"target":{"node":34,"path":"rotation"}},{"sampler":110,"target":{"node":34,"path":"scale"}},{"sampler":111,"target":{"node":37,"path":"translation"}},{"sampler":112,"target":{"node":37,"path":"rotation"}},{"sampler":113,"target":{"node":37,"path":"scale"}},{"sampler":114,"target":{"node":36,"path":"translation"}},{"sampler":115,"target":{"node":36,"path":"rotation"}},{"sampler":116,"target":{"node":36,"path":"scale"}},{"sampler":117,"target":{"node":40,"path":"translation"}},{"sampler":118,"target":{"node":40,"path":"rotation"}},{"sampler":119,"target":{"node":40,"path":"scale"}}],"name":"Idle","samplers":[{"input":137,"interpolation":"STEP","output":138},{"input":137,"interpolation":"STEP","output":139},{"input":137,"interpolation":"STEP","output":140},{"input":137,"interpolation":"STEP","output":141},{"input":137,"interpolation":"STEP","output":142},{"input":137,"interpolation":"STEP","output":143},{"input":137,"interpolation":"STEP","output":144},{"input":137,"interpolation":"STEP","output":145},{"input":137,"interpolation":"STEP","output":146},{"input":147,"interpolation":"LINEAR","output":148},{"input":137,"interpolation":"STEP","output":149},{"input":137,"interpolation":"STEP","output":150},{"input":137,"interpolation":"STEP","output":151},{"input":147,"interpolation":"LINEAR","output":152},{"input":137,"interpolation":"STEP","output":153},{"input":137,"interpolation":"STEP","output":154},{"input":137,"interpolation":"STEP","output":155},{"input":137,"interpolation":"STEP","output":156},{"input":137,"interpolation":"STEP","output":157},{"input":147,"interpolation":"LINEAR","output":158},{"input":137,"interpolation":"STEP","output":159},{"input":137,"interpolation":"STEP","output":160},{"input":137,"interpolation":"STEP","output":161},{"input":137,"interpolation":"STEP","output":162},{"input":137,"interpolation":"STEP","output":163},{"input":147,"interpolation":"LINEAR","output":164},{"input":137,"interpolation":"STEP","output":165},{"input":137,"interpolation":"STEP","output":166},{"input":137,"interpolation":"STEP","output":167},{"input":137,"interpolation":"STEP","output":168},{"input":137,"interpolation":"STEP","output":169},{"input":147,"interpolation":"LINEAR","output":170},{"input":137,"interpolation":"STEP","output":171},{"input":137,"interpolation":"STEP","output":172},{"input":137,"interpolation":"STEP","output":173},{"input":137,"interpolation":"STEP","output":174},{"input":137,"interpolation":"STEP","output":175},{"input":147,"interpolation":"LINEAR","output":176},{"input":137,"interpolation":"STEP","output":177},{"input":137,"interpolation":"STEP","output":178},{"input":137,"interpolation":"STEP","output":179},{"input":137,"interpolation":"STEP","output":180},{"input":137,"interpolation":"STEP","output":181},{"input":147,"interpolation":"LINEAR","output":182},{"input":137,"interpolation":"STEP","output":183},{"input":137,"interpolation":"STEP","output":184},{"input":137,"interpolation":"STEP","output":185},{"input":137,"interpolation":"STEP","output":186},{"input":137,"interpolation":"STEP","output":187},{"input":147,"interpolation":"LINEAR","output":188},{"input":137,"interpolation":"STEP","output":189},{"input":137,"interpolation":"STEP","output":190},{"input":137,"interpolation":"STEP","output":191},{"input":137,"interpolation":"STEP","output":192},{"input":137,"interpolation":"STEP","output":193},{"input":147,"interpolation":"LINEAR","output":194},{"input":137,"interpolation":"STEP","output":195},{"input":137,"interpolation":"STEP","output":196},{"input":137,"interpolation":"STEP","output":197},{"input":137,"interpolation":"STEP","output":198},{"input":137,"interpolation":"STEP","output":199},{"input":137,"interpolation":"STEP","output":200},{"input":137,"interpolation":"STEP","output":201},{"input":137,"interpolation":"STEP","output":202},{"input":137,"interpolation":"STEP","output":203},{"input":137,"interpolation":"STEP","output":204},{"input":137,"interpolation":"STEP","output":205},{"input":137,"interpolation":"STEP","output":206},{"input":137,"interpolation":"STEP","output":207},{"input":137,"interpolation":"STEP","output":208},{"input":147,"interpolation":"LINEAR","output":209},{"input":137,"interpolation":"STEP","output":210},{"input":137,"interpolation":"STEP","output":211},{"input":147,"interpolation":"LINEAR","output":212},{"input":137,"interpolation":"STEP","output":213},{"input":137,"interpolation":"STEP","output":214},{"input":137,"interpolation":"STEP","output":215},{"input":137,"interpolation":"STEP","output":216},{"input":137,"interpolation":"STEP","output":217},{"input":137,"interpolation":"STEP","output":218},{"input":137,"interpolation":"STEP","output":219},{"input":137,"interpolation":"STEP","output":220},{"input":147,"interpolation":"LINEAR","output":221},{"input":137,"interpolation":"STEP","output":222},{"input":137,"interpolation":"STEP","output":223},{"input":147,"interpolation":"LINEAR","output":224},{"input":137,"interpolation":"STEP","output":225},{"input":137,"interpolation":"STEP","output":226},{"input":137,"interpolation":"STEP","output":227},{"input":137,"interpolation":"STEP","output":228},{"input":137,"interpolation":"STEP","output":229},{"input":137,"interpolation":"STEP","output":230},{"input":137,"interpolation":"STEP","output":231},{"input":137,"interpolation":"STEP","output":232},{"input":137,"interpolation":"STEP","output":233},{"input":137,"interpolation":"STEP","output":234},{"input":137,"interpolation":"STEP","output":235},{"input":137,"interpolation":"STEP","output":236},{"input":137,"interpolation":"STEP","output":237},{"input":137,"interpolation":"STEP","output":238},{"input":137,"interpolation":"STEP","output":239},{"input":137,"interpolation":"STEP","output":240},{"input":137,"interpolation":"STEP","output":241},{"input":137,"interpolation":"STEP","output":242},{"input":137,"interpolation":"STEP","output":243},{"input":137,"interpolation":"STEP","output":244},{"input":137,"interpolation":"STEP","output":245},{"input":137,"interpolation":"STEP","output":246},{"input":137,"interpolation":"STEP","output":247},{"input":137,"interpolation":"STEP","output":248},{"input":137,"interpolation":"STEP","output":249},{"input":137,"interpolation":"STEP","output":250},{"input":137,"interpolation":"STEP","output":251},{"input":137,"interpolation":"STEP","output":252},{"input":137,"interpolation":"STEP","output":253},{"input":137,"interpolation":"STEP","output":254},{"input":137,"interpolation":"STEP","output":255},{"input":137,"interpolation":"STEP","output":256},{"input":137,"interpolation":"STEP","output":257},{"input":137,"interpolation":"STEP","output":258}]}],"materials":[{"alphaMode":"MASK","doubleSided":true,"name":"White","pbrMetallicRoughness":{"baseColorFactor":[0.800000011920929,0.800000011920929,0.800000011920929,0],"metallicFactor":0,"roughnessFactor":0.690034806728363}},{"alphaMode":"MASK","doubleSided":true,"name":"Black","pbrMetallicRoughness":{"baseColorFactor":[0.029097778722643852,0.029097778722643852,0.029097778722643852,0],"metallicFactor":0,"roughnessFactor":0.690034806728363}}],"meshes":[{"name":"Cylinder","primitives":[{"attributes":{"POSITION":0,"NORMAL":1,"COLOR_0":2,"COLOR_1":3,"JOINTS_0":4,"WEIGHTS_0":5},"indices":6,"material":0},{"attributes":{"POSITION":7,"NORMAL":8,"COLOR_0":9,"COLOR_1":10,"JOINTS_0":11,"WEIGHTS_0":12},"indices":13,"material":1}]}],"skins":[{"inverseBindMatrices":14,"joints":[38,1,0,31,5,4,3,2,9,8,7,6,13,12,11,10,17,16,15,14,23,22,21,20,19,18,27,26,25,24,30,29,28,33,32,35,34,37,36],"name":"Armature"}],"accessors":[{"bufferView":0,"componentType":5126,"count":1184,"max":[1.2848868370056152,6.658593654632568,5.0042500495910645],"min":[-1.2848868370056152,0.21449971199035645,-3.1351852416992188],"type":"VEC3"},{"bufferView":1,"componentType":5126,"count":1184,"type":"VEC3"},{"bufferView":2,"componentType":5121,"count":1184,"normalized":true,"type":"VEC4"},{"bufferView":3,"componentType":5126,"count":1184,"type":"VEC3"},{"bufferView":4,"componentType":5121,"count":1184,"type":"VEC4"},{"bufferView":5,"componentType":5126,"count":1184,"type":"VEC4"},{"bufferView":6,"componentType":5123,"count":1746,"type":"SCALAR"},{"bufferView":7,"componentType":5126,"count":1532,"max":[1.2848868370056152,7.02764368057251,5.070975303649902],"min":[-1.2848868370056152,-0.04415464401245117,-4.1641621589660645],"type":"VEC3"},{"bufferView":8,"componentType":5126,"count":1532,"type":"VEC3"},{"bufferView":9,"componentType":5121,"count":1532,"normalized":true,"type":"VEC4"},{"bufferView":10,"componentType":5126,"count":1532,"type":"VEC3"},{"bufferView":11,"componentType":5121,"count":1532,"type":"VEC4"},{"bufferView":12,"componentType":5126,"count":1532,"type":"VEC4"},{"bufferView":13,"componentType":5123,"count":2316,"type":"SCALAR"},{"bufferView":14,"componentType":5126,"count":39,"type":"MAT4"},{"bufferView":15,"componentType":5126,"count":2,"max":[1.125],"min":[0.041666666666666664],"type":"SCALAR"},{"bufferView":16,"componentType":5126,"count":2,"type":"VEC3"},{"bufferView":17,"componentType":5126,"count":2,"type":"VEC4"},{"bufferView":18,"componentType":5126,"count":2,"type":"VEC3"},{"bufferView":19,"componentType":5126,"count":27,"max":[1.125],"min":[0.041666666666666664],"type":"SCALAR"},{"bufferView":20,"componentType":5126,"count":27,"type":"VEC3"},{"bufferView":21,"componentType":5126,"count":27,"type":"VEC4"},{"bufferView":22,"componentType":5126,"count":2,"type":"VEC3"},{"bufferView":23,"componentType":5126,"count":2,"type":"VEC3"},{"bufferView":24,"componentType":5126,"count":2,"type":"VEC4"},{"bufferView":25,"componentType":5126,"count":2,"type":"VEC3"},{"bufferView":26,"componentType":5126,"count":27,"type":"VEC3"},{"bufferView":27,"componentType":5126,"count":27,"type":"VEC4"},{"bufferView":28,"componentType":5126,"count":2,"type":"VEC3"},{"bufferView":29,"componentType":5126,"count":2,"type":"VEC3"},{"bufferView":30,"componentType":5126,"count":27,"type":"VEC4"},{"bufferView":31,"componentType":5126,"count":2,"type":"VEC3"},{"bufferView":32,"componentType":5126,"count":2,"type":"VEC3"},{"bufferView":33,"componentType":5126,"count":27,"type":"VEC4"},{"bufferView":34,"componentType":5126,"count":2,"type":"VEC3"},{"bufferView":35,"componentType":5126,"count":2,"type":"VEC3"},{"bufferView":36,"componentType":5126,"count":27,"type":"VEC4"},{"bufferView":37,"componentType":5126,"count":2,"type":"VEC3"},{"bufferView":38,"componentType":5126,"count":2,"type":"VEC3"},{"bufferView":39,"componentType":5126,"count":2,"type":"VEC4"},{"bufferView":40,"componentType":5126,"count":2,"type":"VEC3"},{"bufferView":41,"componentType":5126,"count":2,"type":"VEC3"},{"bufferView":42,"componentType":5126,"count":27,"type":"VEC4"},{"bufferView":43,"componentType":5126,"count":2,"type":"VEC3"},{"bufferView":44,"componentType":5126,"count":2,"type":"VEC3"},{"bufferView":45,"componentType":5126,"count":27,"type":"VEC4"},{"bufferView":46,"componentType":5126,"count":2,"type":"VEC3"},{"bufferView":47,"componentType":5126,"count":2,"type":"VEC3"},{"bufferView":48,"componentType":5126,"count":27,"type":"VEC4"},{"bufferView":49,"componentType":5126,"count":2,"type":"VEC3"},{"bufferView":50,"componentType":5126,"count":2,"type":"VEC3"},{"bufferView":51,"componentType":5126,"count":2,"type":"VEC4"},{"bufferView":52,"componentType":5126,"count":2,"type":"VEC3"},{"bufferView":53,"componentType":5126,"count":2,"type":"VEC3"},{"bufferView":54,"componentType":5126,"count":27,"type":"VEC4"},{"bufferView":55,"componentType":5126,"count":2,"type":"VEC3"},{"bufferView":56,"componentType":5126,"count":2,"type":"VEC3"},{"bufferView":57,"componentType":5126,"count":27,"type":"VEC4"},{"bufferView":58,"componentType":5126,"count":2,"type":"VEC3"},{"bufferView":59,"componentType":5126,"count":2,"type":"VEC3"},{"bufferView":60,"componentType":5126,"count":27,"type":"VEC4"},{"bufferView":61,"componentType":5126,"count":2,"type":"VEC3"},{"bufferView":62,"componentType":5126,"count":2,"type":"VEC3"},{"bufferView":63,"componentType":5126,"count":2,"type":"VEC4"},{"bufferView":64,"componentType":5126,"count":2,"type":"VEC3"},{"bufferView":65,"componentType":5126,"count":2,"type":"VEC3"},{"bufferView":66,"componentType":5126,"count":27,"type":"VEC4"},{"bufferView":67,"componentType":5126,"count":2,"type":"VEC3"},{"bufferView":68,"componentType":5126,"count":2,"type":"VEC3"},{"bufferView":69,"componentType":5126,"count":27,"type":"VEC4"},{"bufferView":70,"componentType":5126,"count":2,"type":"VEC3"},{"bufferView":71,"componentType":5126,"count":2,"type":"VEC3"},{"bufferView":72,"componentType":5126,"count":27,"type":"VEC4"},{"bufferView":73,"componentType":5126,"count":2,"type":"VEC3"},{"bufferView":74,"componentType":5126,"count":2,"type":"VEC3"},{"bufferView":75,"componentType":5126,"count":2,"type":"VEC4"},{"bufferView":76,"componentType":5126,"count":2,"type":"VEC3"},{"bufferView":77,"componentType":5126,"count":27,"type":"VEC3"},{"bufferView":78,"componentType":5126,"count":2,"type":"VEC4"},{"bufferView":79,"componentType":5126,"count":2,"type":"VEC3"},{"bufferView":80,"componentType":5126,"count":2,"type":"VEC3"},{"bufferView":81,"componentType":5126,"count":2,"type":"VEC4"},{"bufferView":82,"componentType":5126,"count":2,"type":"VEC3"},{"bufferView":83,"componentType":5126,"count":2,"type":"VEC3"},{"bufferView":84,"componentType":5126,"count":27,"type":"VEC4"},{"bufferView":85,"componentType":5126,"count":2,"type":"VEC3"},{"bufferView":86,"componentType":5126,"count":2,"type":"VEC3"},{"bufferView":87,"componentType":5126,"count":27,"type":"VEC4"},{"bufferView":88,"componentType":5126,"count":2,"type":"VEC3"},{"bufferView":89,"componentType":5126,"count":2,"type":"VEC3"},{"bufferView":90,"componentType":5126,"count":27,"type":"VEC4"},{"bufferView":91,"componentType":5126,"count":2,"type":"VEC3"},{"bufferView":92,"componentType":5126,"count":2,"type":"VEC3"},{"bufferView":93,"componentType":5126,"count":2,"type":"VEC4"},{"bufferView":94,"componentType":5126,"count":2,"type":"VEC3"},{"bufferView":95,"componentType":5126,"count":27,"type":"VEC3"},{"bufferView":96,"componentType":5126,"count":27,"type":"VEC4"},{"bufferView":97,"componentType":5126,"count":2,"type":"VEC3"},{"bufferView":98,"componentType":5126,"count":2,"type":"VEC3"},{"bufferView":99,"componentType":5126,"count":27,"type":"VEC4"},{"bufferView":100,"componentType":5126,"count":2,"type":"VEC3"},{"bufferView":101,"componentType":5126,"count":2,"type":"VEC3"},{"bufferView":102,"componentType":5126,"count":27,"type":"VEC4"},{"bufferView":103,"componentType":5126,"count":2,"type":"VEC3"},{"bufferView":104,"componentType":5126,"count":2,"type":"VEC3"},{"bufferView":105,"componentType":5126,"count":2,"type":"VEC4"},{"bufferView":106,"componentType":5126,"count":2,"type":"VEC3"},{"bufferView":107,"componentType":5126,"count":27,"type":"VEC3"},{"bufferView":108,"componentType":5126,"count":2,"type":"VEC4"},{"bufferView":109,"componentType":5126,"count":2,"type":"VEC3"},{"bufferView":110,"componentType":5126,"count":2,"type":"VEC3"},{"bufferView":111,"componentType":5126,"count":2,"type":"VEC4"},{"bufferView":112,"componentType":5126,"count":2,"type":"VEC3"},{"bufferView":113,"componentType":5126,"count":2,"type":"VEC3"},{"bufferView":114,"componentType":5126,"count":2,"type":"VEC4"},{"bufferView":115,"componentType":5126,"count":2,"type":"VEC3"},{"bufferView":116,"componentType":5126,"count":27,"type":"VEC3"},{"bufferView":117,"componentType":5126,"count":27,"type":"VEC4"},{"bufferView":118,"componentType":5126,"count":2,"type":"VEC3"},{"bufferView":119,"componentType":5126,"count":2,"type":"VEC3"},{"bufferView":120,"componentType":5126,"count":2,"type":"VEC4"},{"bufferView":121,"componentType":5126,"count":2,"type":"VEC3"},{"bufferView":122,"componentType":5126,"count":27,"type":"VEC3"},{"bufferView":123,"componentType":5126,"count":27,"type":"VEC4"},{"bufferView":124,"componentType":5126,"count":2,"type":"VEC3"},{"bufferView":125,"componentType":5126,"count":2,"type":"VEC3"},{"bufferView":126,"componentType":5126,"count":2,"type":"VEC4"},{"bufferView":127,"componentType":5126,"count":2,"type":"VEC3"},{"bufferView":128,"componentType":5126,"count":27,"type":"VEC3"},{"bufferView":129,"componentType":5126,"count":27,"type":"VEC4"},{"bufferView":130,"componentType":5126,"count":2,"type":"VEC3"},{"bufferView":131,"componentType":5126,"count":2,"type":"VEC3"},{"bufferView":132,"componentType":5126,"count":2,"type":"VEC4"},{"bufferView":133,"componentType":5126,"count":2,"type":"VEC3"},{"bufferView":134,"componentType":5126,"count":2,"type":"VEC3"},{"bufferView":135,"componentType":5126,"count":2,"type":"VEC4"},{"bufferView":136,"componentType":5126,"count":2,"type":"VEC3"},{"bufferView":137,"componentType":5126,"count":2,"max":[6.291666666666667],"min":[0.041666666666666664],"type":"SCALAR"},{"bufferView":138,"componentType":5126,"count":2,"type":"VEC3"},{"bufferView":139,"componentType":5126,"count":2,"type":"VEC4"},{"bufferView":140,"componentType":5126,"count":2,"type":"VEC3"},{"bufferView":141,"componentType":5126,"count":2,"type":"VEC3"},{"bufferView":142,"componentType":5126,"count":2,"type":"VEC4"},{"bufferView":143,"componentType":5126,"count":2,"type":"VEC3"},{"bufferView":144,"componentType":5126,"count":2,"type":"VEC3"},{"bufferView":145,"componentType":5126,"count":2,"type":"VEC4"},{"bufferView":146,"componentType":5126,"count":2,"type":"VEC3"},{"bufferView":147,"componentType":5126,"count":151,"max":[6.291666666666667],"min":[0.041666666666666664],"type":"SCALAR"},{"bufferView":148,"componentType":5126,"count":151,"type":"VEC3"},{"bufferView":149,"componentType":5126,"count":2,"type":"VEC4"},{"bufferView":150,"componentType":5126,"count":2,"type":"VEC3"},{"bufferView":151,"componentType":5126,"count":2,"type":"VEC3"},{"bufferView":152,"componentType":5126,"count":151,"type":"VEC4"},{"bufferView":153,"componentType":5126,"count":2,"type":"VEC3"},{"bufferView":154,"componentType":5126,"count":2,"type":"VEC3"},{"bufferView":155,"componentType":5126,"count":2,"type":"VEC4"},{"bufferView":156,"componentType":5126,"count":2,"type":"VEC3"},{"bufferView":157,"componentType":5126,"count":2,"type":"VEC3"},{"bufferView":158,"componentType":5126,"count":151,"type":"VEC4"},{"bufferView":159,"componentType":5126,"count":2,"type":"VEC3"},{"bufferView":160,"componentType":5126,"count":2,"type":"VEC3"},{"bufferView":161,"componentType":5126,"count":2,"type":"VEC4"},{"bufferView":162,"componentType":5126,"count":2,"type":"VEC3"},{"bufferView":163,"componentType":5126,"count":2,"type":"VEC3"},{"bufferView":164,"componentType":5126,"count":151,"type":"VEC4"},{"bufferView":165,"componentType":5126,"count":2,"type":"VEC3"},{"bufferView":166,"componentType":5126,"count":2,"type":"VEC3"},{"bufferView":167,"componentType":5126,"count":2,"type":"VEC4"},{"bufferView":168,"componentType":5126,"count":2,"type":"VEC3"},{"bufferView":169,"componentType":5126,"count":2,"type":"VEC3"},{"bufferView":170,"componentType":5126,"count":151,"type":"VEC4"},{"bufferView":171,"componentType":5126,"count":2,"type":"VEC3"},{"bufferView":172,"componentType":5126,"count":2,"type":"VEC3"},{"bufferView":173,"componentType":5126,"count":2,"type":"VEC4"},{"bufferView":174,"componentType":5126,"count":2,"type":"VEC3"},{"bufferView":175,"componentType":5126,"count":2,"type":"VEC3"},{"bufferView":176,"componentType":5126,"count":151,"type":"VEC4"},{"bufferView":177,"componentType":5126,"count":2,"type":"VEC3"},{"bufferView":178,"componentType":5126,"count":2,"type":"VEC3"},{"bufferView":179,"componentType":5126,"count":2,"type":"VEC4"},{"bufferView":180,"componentType":5126,"count":2,"type":"VEC3"},{"bufferView":181,"componentType":5126,"count":2,"type":"VEC3"},{"bufferView":182,"componentType":5126,"count":151,"type":"VEC4"},{"bufferView":183,"componentType":5126,"count":2,"type":"VEC3"},{"bufferView":184,"componentType":5126,"count":2,"type":"VEC3"},{"bufferView":185,"componentType":5126,"count":2,"type":"VEC4"},{"bufferView":186,"componentType":5126,"count":2,"type":"VEC3"},{"bufferView":187,"componentType":5126,"count":2,"type":"VEC3"},{"bufferView":188,"componentType":5126,"count":151,"type":"VEC4"},{"bufferView":189,"componentType":5126,"count":2,"type":"VEC3"},{"bufferView":190,"componentType":5126,"count":2,"type":"VEC3"},{"bufferView":191,"componentType":5126,"count":2,"type":"VEC4"},{"bufferView":192,"componentType":5126,"count":2,"type":"VEC3"},{"bufferView":193,"componentType":5126,"count":2,"type":"VEC3"},{"bufferView":194,"componentType":5126,"count":151,"type":"VEC4"},{"bufferView":195,"componentType":5126,"count":2,"type":"VEC3"},{"bufferView":196,"componentType":5126,"count":2,"type":"VEC3"},{"bufferView":197,"componentType":5126,"count":2,"type":"VEC4"},{"bufferView":198,"componentType":5126,"count":2,"type":"VEC3"},{"bufferView":199,"componentType":5126,"count":2,"type":"VEC3"},{"bufferView":200,"componentType":5126,"count":2,"type":"VEC4"},{"bufferView":201,"componentType":5126,"count":2,"type":"VEC3"},{"bufferView":202,"componentType":5126,"count":2,"type":"VEC3"},{"bufferView":203,"componentType":5126,"count":2,"type":"VEC4"},{"bufferView":204,"componentType":5126,"count":2,"type":"VEC3"},{"bufferView":205,"componentType":5126,"count":2,"type":"VEC3"},{"bufferView":206,"componentType":5126,"count":2,"type":"VEC4"},{"bufferView":207,"componentType":5126,"count":2,"type":"VEC3"},{"bufferView":208,"componentType":5126,"count":2,"type":"VEC3"},{"bufferView":209,"componentType":5126,"count":151,"type":"VEC4"},{"bufferView":210,"componentType":5126,"count":2,"type":"VEC3"},{"bufferView":211,"componentType":5126,"count":2,"type":"VEC3"},{"bufferView":212,"componentType":5126,"count":151,"type":"VEC4"},{"bufferView":213,"componentType":5126,"count":2,"type":"VEC3"},{"bufferView":214,"componentType":5126,"count":2,"type":"VEC3"},{"bufferView":215,"componentType":5126,"count":2,"type":"VEC4"},{"bufferView":216,"componentType":5126,"count":2,"type":"VEC3"},{"bufferView":217,"componentType":5126,"count":2,"type":"VEC3"},{"bufferView":218,"componentType":5126,"count":2,"type":"VEC4"},{"bufferView":219,"componentType":5126,"count":2,"type":"VEC3"},{"bufferView":220,"componentType":5126,"count":2,"type":"VEC3"},{"bufferView":221,"componentType":5126,"count":151,"type":"VEC4"},{"bufferView":222,"componentType":5126,"count":2,"type":"VEC3"},{"bufferView":223,"componentType":5126,"count":2,"type":"VEC3"},{"bufferView":224,"componentType":5126,"count":151,"type":"VEC4"},{"bufferView":225,"componentType":5126,"count":2,"type":"VEC3"},{"bufferView":226,"componentType":5126,"count":2,"type":"VEC3"},{"bufferView":227,"componentType":5126,"count":2,"type":"VEC4"},{"bufferView":228,"componentType":5126,"count":2,"type":"VEC3"},{"bufferView":229,"componentType":5126,"count":2,"type":"VEC3"},{"bufferView":230,"componentType":5126,"count":2,"type":"VEC4"},{"bufferView":231,"componentType":5126,"count":2,"type":"VEC3"},{"bufferView":232,"componentType":5126,"count":2,"type":"VEC3"},{"bufferView":233,"componentType":5126,"count":2,"type":"VEC4"},{"bufferView":234,"componentType":5126,"count":2,"type":"VEC3"},{"bufferView":235,"componentType":5126,"count":2,"type":"VEC3"},{"bufferView":236,"componentType":5126,"count":2,"type":"VEC4"},{"bufferView":237,"componentType":5126,"count":2,"type":"VEC3"},{"bufferView":238,"componentType":5126,"count":2,"type":"VEC3"},{"bufferView":239,"componentType":5126,"count":2,"type":"VEC4"},{"bufferView":240,"componentType":5126,"count":2,"type":"VEC3"},{"bufferView":241,"componentType":5126,"count":2,"type":"VEC3"},{"bufferView":242,"componentType":5126,"count":2,"type":"VEC4"},{"bufferView":243,"componentType":5126,"count":2,"type":"VEC3"},{"bufferView":244,"componentType":5126,"count":2,"type":"VEC3"},{"bufferView":245,"componentType":5126,"count":2,"type":"VEC4"},{"bufferView":246,"componentType":5126,"count":2,"type":"VEC3"},{"bufferView":247,"componentType":5126,"count":2,"type":"VEC3"},{"bufferView":248,"componentType":5126,"count":2,"type":"VEC4"},{"bufferView":249,"componentType":5126,"count":2,"type":"VEC3"},{"bufferView":250,"componentType":5126,"count":2,"type":"VEC3"},{"bufferView":251,"componentType":5126,"count":2,"type":"VEC4"},{"bufferView":252,"componentType":5126,"count":2,"type":"VEC3"},{"bufferView":253,"componentType":5126,"count":2,"type":"VEC3"},{"bufferView":254,"componentType":5126,"count":2,"type":"VEC4"},{"bufferView":255,"componentType":5126,"count":2,"type":"VEC3"},{"bufferView":256,"componentType":5126,"count":2,"type":"VEC3"},{"bufferView":257,"componentType":5126,"count":2,"type":"VEC4"},{"bufferView":258,"componentType":5126,"count":2,"type":"VEC3"}],"bufferViews":[{"buffer":0,"byteLength":14208,"byteOffset":0,"target":34962},{"buffer":0,"byteLength":14208,"byteOffset":14208,"target":34962},{"buffer":0,"byteLength":4736,"byteOffset":28416,"target":34962},{"buffer":0,"byteLength":14208,"byteOffset":33152,"target":34962},{"buffer":0,"byteLength":4736,"byteOffset":47360,"target":34962},{"buffer":0,"byteLength":18944,"byteOffset":52096,"target":34962},{"buffer":0,"byteLength":3492,"byteOffset":71040,"target":34963},{"buffer":0,"byteLength":18384,"byteOffset":74532,"target":34962},{"buffer":0,"byteLength":18384,"byteOffset":92916,"target":34962},{"buffer":0,"byteLength":6128,"byteOffset":111300,"target":34962},{"buffer":0,"byteLength":18384,"byteOffset":117428,"target":34962},{"buffer":0,"byteLength":6128,"byteOffset":135812,"target":34962},{"buffer":0,"byteLength":24512,"byteOffset":141940,"target":34962},{"buffer":0,"byteLength":4632,"byteOffset":166452,"target":34963},{"buffer":0,"byteLength":2496,"byteOffset":171084},{"buffer":0,"byteLength":8,"byteOffset":173580},{"buffer":0,"byteLength":24,"byteOffset":173588},{"buffer":0,"byteLength":32,"byteOffset":173612},{"buffer":0,"byteLength":24,"byteOffset":173644},{"buffer":0,"byteLength":108,"byteOffset":173668},{"buffer":0,"byteLength":324,"byteOffset":173776},{"buffer":0,"byteLength":432,"byteOffset":174100},{"buffer":0,"byteLength":24,"byteOffset":174532},{"buffer":0,"byteLength":24,"byteOffset":174556},{"buffer":0,"byteLength":32,"byteOffset":174580},{"buffer":0,"byteLength":24,"byteOffset":174612},{"buffer":0,"byteLength":324,"byteOffset":174636},{"buffer":0,"byteLength":432,"byteOffset":174960},{"buffer":0,"byteLength":24,"byteOffset":175392},{"buffer":0,"byteLength":24,"byteOffset":175416},{"buffer":0,"byteLength":432,"byteOffset":175440},{"buffer":0,"byteLength":24,"byteOffset":175872},{"buffer":0,"byteLength":24,"byteOffset":175896},{"buffer":0,"byteLength":432,"byteOffset":175920},{"buffer":0,"byteLength":24,"byteOffset":176352},{"buffer":0,"byteLength":24,"byteOffset":176376},{"buffer":0,"byteLength":432,"byteOffset":176400},{"buffer":0,"byteLength":24,"byteOffset":176832},{"buffer":0,"byteLength":24,"byteOffset":176856},{"buffer":0,"byteLength":32,"byteOffset":176880},{"buffer":0,"byteLength":24,"byteOffset":176912},{"buffer":0,"byteLength":24,"byteOffset":176936},{"buffer":0,"byteLength":432,"byteOffset":176960},{"buffer":0,"byteLength":24,"byteOffset":177392},{"buffer":0,"byteLength":24,"byteOffset":177416},{"buffer":0,"byteLength":432,"byteOffset":177440},{"buffer":0,"byteLength":24,"byteOffset":177872},{"buffer":0,"byteLength":24,"byteOffset":177896},{"buffer":0,"byteLength":432,"byteOffset":177920},{"buffer":0,"byteLength":24,"byteOffset":178352},{"buffer":0,"byteLength":24,"byteOffset":178376},{"buffer":0,"byteLength":32,"byteOffset":178400},{"buffer":0,"byteLength":24,"byteOffset":178432},{"buffer":0,"byteLength":24,"byteOffset":178456},{"buffer":0,"byteLength":432,"byteOffset":178480},{"buffer":0,"byteLength":24,"byteOffset":178912},{"buffer":0,"byteLength":24,"byteOffset":178936},{"buffer":0,"byteLength":432,"byteOffset":178960},{"buffer":0,"byteLength":24,"byteOffset":179392},{"buffer":0,"byteLength":24,"byteOffset":179416},{"buffer":0,"byteLength":432,"byteOffset":179440},{"buffer":0,"byteLength":24,"byteOffset":179872},{"buffer":0,"byteLength":24,"byteOffset":179896},{"buffer":0,"byteLength":32,"byteOffset":179920},{"buffer":0,"byteLength":24,"byteOffset":179952},{"buffer":0,"byteLength":24,"byteOffset":179976},{"buffer":0,"byteLength":432,"byteOffset":180000},{"buffer":0,"byteLength":24,"byteOffset":180432},{"buffer":0,"byteLength":24,"byteOffset":180456},{"buffer":0,"byteLength":432,"byteOffset":180480},{"buffer":0,"byteLength":24,"byteOffset":180912},{"buffer":0,"byteLength":24,"byteOffset":180936},{"buffer":0,"byteLength":432,"byteOffset":180960},{"buffer":0,"byteLength":24,"byteOffset":181392},{"buffer":0,"byteLength":24,"byteOffset":181416},{"buffer":0,"byteLength":32,"byteOffset":181440},{"buffer":0,"byteLength":24,"byteOffset":181472},{"buffer":0,"byteLength":324,"byteOffset":181496},{"buffer":0,"byteLength":32,"byteOffset":181820},{"buffer":0,"byteLength":24,"byteOffset":181852},{"buffer":0,"byteLength":24,"byteOffset":181876},{"buffer":0,"byteLength":32,"byteOffset":181900},{"buffer":0,"byteLength":24,"byteOffset":181932},{"buffer":0,"byteLength":24,"byteOffset":181956},{"buffer":0,"byteLength":432,"byteOffset":181980},{"buffer":0,"byteLength":24,"byteOffset":182412},{"buffer":0,"byteLength":24,"byteOffset":182436},{"buffer":0,"byteLength":432,"byteOffset":182460},{"buffer":0,"byteLength":24,"byteOffset":182892},{"buffer":0,"byteLength":24,"byteOffset":182916},{"buffer":0,"byteLength":432,"byteOffset":182940},{"buffer":0,"byteLength":24,"byteOffset":183372},{"buffer":0,"byteLength":24,"byteOffset":183396},{"buffer":0,"byteLength":32,"byteOffset":183420},{"buffer":0,"byteLength":24,"byteOffset":183452},{"buffer":0,"byteLength":324,"byteOffset":183476},{"buffer":0,"byteLength":432,"byteOffset":183800},{"buffer":0,"byteLength":24,"byteOffset":184232},{"buffer":0,"byteLength":24,"byteOffset":184256},{"buffer":0,"byteLength":432,"byteOffset":184280},{"buffer":0,"byteLength":24,"byteOffset":184712},{"buffer":0,"byteLength":24,"byteOffset":184736},{"buffer":0,"byteLength":432,"byteOffset":184760},{"buffer":0,"byteLength":24,"byteOffset":185192},{"buffer":0,"byteLength":24,"byteOffset":185216},{"buffer":0,"byteLength":32,"byteOffset":185240},{"buffer":0,"byteLength":24,"byteOffset":185272},{"buffer":0,"byteLength":324,"byteOffset":185296},{"buffer":0,"byteLength":32,"byteOffset":185620},{"buffer":0,"byteLength":24,"byteOffset":185652},{"buffer":0,"byteLength":24,"byteOffset":185676},{"buffer":0,"byteLength":32,"byteOffset":185700},{"buffer":0,"byteLength":24,"byteOffset":185732},{"buffer":0,"byteLength":24,"byteOffset":185756},{"buffer":0,"byteLength":32,"byteOffset":185780},{"buffer":0,"byteLength":24,"byteOffset":185812},{"buffer":0,"byteLength":324,"byteOffset":185836},{"buffer":0,"byteLength":432,"byteOffset":186160},{"buffer":0,"byteLength":24,"byteOffset":186592},{"buffer":0,"byteLength":24,"byteOffset":186616},{"buffer":0,"byteLength":32,"byteOffset":186640},{"buffer":0,"byteLength":24,"byteOffset":186672},{"buffer":0,"byteLength":324,"byteOffset":186696},{"buffer":0,"byteLength":432,"byteOffset":187020},{"buffer":0,"byteLength":24,"byteOffset":187452},{"buffer":0,"byteLength":24,"byteOffset":187476},{"buffer":0,"byteLength":32,"byteOffset":187500},{"buffer":0,"byteLength":24,"byteOffset":187532},{"buffer":0,"byteLength":324,"byteOffset":187556},{"buffer":0,"byteLength":432,"byteOffset":187880},{"buffer":0,"byteLength":24,"byteOffset":188312},{"buffer":0,"byteLength":24,"byteOffset":188336},{"buffer":0,"byteLength":32,"byteOffset":188360},{"buffer":0,"byteLength":24,"byteOffset":188392},{"buffer":0,"byteLength":24,"byteOffset":188416},{"buffer":0,"byteLength":32,"byteOffset":188440},{"buffer":0,"byteLength":24,"byteOffset":188472},{"buffer":0,"byteLength":8,"byteOffset":188496},{"buffer":0,"byteLength":24,"byteOffset":188504},{"buffer":0,"byteLength":32,"byteOffset":188528},{"buffer":0,"byteLength":24,"byteOffset":188560},{"buffer":0,"byteLength":24,"byteOffset":188584},{"buffer":0,"byteLength":32,"byteOffset":188608},{"buffer":0,"byteLength":24,"byteOffset":188640},{"buffer":0,"byteLength":24,"byteOffset":188664},{"buffer":0,"byteLength":32,"byteOffset":188688},{"buffer":0,"byteLength":24,"byteOffset":188720},{"buffer":0,"byteLength":604,"byteOffset":188744},{"buffer":0,"byteLength":1812,"byteOffset":189348},{"buffer":0,"byteLength":32,"byteOffset":191160},{"buffer":0,"byteLength":24,"byteOffset":191192},{"buffer":0,"byteLength":24,"byteOffset":191216},{"buffer":0,"byteLength":2416,"byteOffset":191240},{"buffer":0,"byteLength":24,"byteOffset":193656},{"buffer":0,"byteLength":24,"byteOffset":193680},{"buffer":0,"byteLength":32,"byteOffset":193704},{"buffer":0,"byteLength":24,"byteOffset":193736},{"buffer":0,"byteLength":24,"byteOffset":193760},{"buffer":0,"byteLength":2416,"byteOffset":193784},{"buffer":0,"byteLength":24,"byteOffset":196200},{"buffer":0,"byteLength":24,"byteOffset":196224},{"buffer":0,"byteLength":32,"byteOffset":196248},{"buffer":0,"byteLength":24,"byteOffset":196280},{"buffer":0,"byteLength":24,"byteOffset":196304},{"buffer":0,"byteLength":2416,"byteOffset":196328},{"buffer":0,"byteLength":24,"byteOffset":198744},{"buffer":0,"byteLength":24,"byteOffset":198768},{"buffer":0,"byteLength":32,"byteOffset":198792},{"buffer":0,"byteLength":24,"byteOffset":198824},{"buffer":0,"byteLength":24,"byteOffset":198848},{"buffer":0,"byteLength":2416,"byteOffset":198872},{"buffer":0,"byteLength":24,"byteOffset":201288},{"buffer":0,"byteLength":24,"byteOffset":201312},{"buffer":0,"byteLength":32,"byteOffset":201336},{"buffer":0,"byteLength":24,"byteOffset":201368},{"buffer":0,"byteLength":24,"byteOffset":201392},{"buffer":0,"byteLength":2416,"byteOffset":201416},{"buffer":0,"byteLength":24,"byteOffset":203832},{"buffer":0,"byteLength":24,"byteOffset":203856},{"buffer":0,"byteLength":32,"byteOffset":203880},{"buffer":0,"byteLength":24,"byteOffset":203912},{"buffer":0,"byteLength":24,"byteOffset":203936},{"buffer":0,"byteLength":2416,"byteOffset":203960},{"buffer":0,"byteLength":24,"byteOffset":206376},{"buffer":0,"byteLength":24,"byteOffset":206400},{"buffer":0,"byteLength":32,"byteOffset":206424},{"buffer":0,"byteLength":24,"byteOffset":206456},{"buffer":0,"byteLength":24,"byteOffset":206480},{"buffer":0,"byteLength":2416,"byteOffset":206504},{"buffer":0,"byteLength":24,"byteOffset":208920},{"buffer":0,"byteLength":24,"byteOffset":208944},{"buffer":0,"byteLength":32,"byteOffset":208968},{"buffer":0,"byteLength":24,"byteOffset":209000},{"buffer":0,"byteLength":24,"byteOffset":209024},{"buffer":0,"byteLength":2416,"byteOffset":209048},{"buffer":0,"byteLength":24,"byteOffset":211464},{"buffer":0,"byteLength":24,"byteOffset":211488},{"buffer":0,"byteLength":32,"byteOffset":211512},{"buffer":0,"byteLength":24,"byteOffset":211544},{"buffer":0,"byteLength":24,"byteOffset":211568},{"buffer":0,"byteLength":32,"byteOffset":211592},{"buffer":0,"byteLength":24,"byteOffset":211624},{"buffer":0,"byteLength":24,"byteOffset":211648},{"buffer":0,"byteLength":32,"byteOffset":211672},{"buffer":0,"byteLength":24,"byteOffset":211704},{"buffer":0,"byteLength":24,"byteOffset":211728},{"buffer":0,"byteLength":32,"byteOffset":211752},{"buffer":0,"byteLength":24,"byteOffset":211784},{"buffer":0,"byteLength":24,"byteOffset":211808},{"buffer":0,"byteLength":2416,"byteOffset":211832},{"buffer":0,"byteLength":24,"byteOffset":214248},{"buffer":0,"byteLength":24,"byteOffset":214272},{"buffer":0,"byteLength":2416,"byteOffset":214296},{"buffer":0,"byteLength":24,"byteOffset":216712},{"buffer":0,"byteLength":24,"byteOffset":216736},{"buffer":0,"byteLength":32,"byteOffset":216760},{"buffer":0,"byteLength":24,"byteOffset":216792},{"buffer":0,"byteLength":24,"byteOffset":216816},{"buffer":0,"byteLength":32,"byteOffset":216840},{"buffer":0,"byteLength":24,"byteOffset":216872},{"buffer":0,"byteLength":24,"byteOffset":216896},{"buffer":0,"byteLength":2416,"byteOffset":216920},{"buffer":0,"byteLength":24,"byteOffset":219336},{"buffer":0,"byteLength":24,"byteOffset":219360},{"buffer":0,"byteLength":2416,"byteOffset":219384},{"buffer":0,"byteLength":24,"byteOffset":221800},{"buffer":0,"byteLength":24,"byteOffset":221824},{"buffer":0,"byteLength":32,"byteOffset":221848},{"buffer":0,"byteLength":24,"byteOffset":221880},{"buffer":0,"byteLength":24,"byteOffset":221904},{"buffer":0,"byteLength":32,"byteOffset":221928},{"buffer":0,"byteLength":24,"byteOffset":221960},{"buffer":0,"byteLength":24,"byteOffset":221984},{"buffer":0,"byteLength":32,"byteOffset":222008},{"buffer":0,"byteLength":24,"byteOffset":222040},{"buffer":0,"byteLength":24,"byteOffset":222064},{"buffer":0,"byteLength":32,"byteOffset":222088},{"buffer":0,"byteLength":24,"byteOffset":222120},{"buffer":0,"byteLength":24,"byteOffset":222144},{"buffer":0,"byteLength":32,"byteOffset":222168},{"buffer":0,"byteLength":24,"byteOffset":222200},{"buffer":0,"byteLength":24,"byteOffset":222224},{"buffer":0,"byteLength":32,"byteOffset":222248},{"buffer":0,"byteLength":24,"byteOffset":222280},{"buffer":0,"byteLength":24,"byteOffset":222304},{"buffer":0,"byteLength":32,"byteOffset":222328},{"buffer":0,"byteLength":24,"byteOffset":222360},{"buffer":0,"byteLength":24,"byteOffset":222384},{"buffer":0,"byteLength":32,"byteOffset":222408},{"buffer":0,"byteLength":24,"byteOffset":222440},{"buffer":0,"byteLength":24,"byteOffset":222464},{"buffer":0,"byteLength":32,"byteOffset":222488},{"buffer":0,"byteLength":24,"byteOffset":222520},{"buffer":0,"byteLength":24,"byteOffset":222544},{"buffer":0,"byteLength":32,"byteOffset":222568},{"buffer":0,"byteLength":24,"byteOffset":222600},{"buffer":0,"byteLength":24,"byteOffset":222624},{"buffer":0,"byteLength":32,"byteOffset":222648},{"buffer":0,"byteLength":24,"byteOffset":222680}],"buffers":[{"byteLength":222704,"uri":"data:application/octet-stream;base64,"}]}